<svg height="512" viewBox="0 0 60 61" width="512" xmlns="http://www.w3.org/2000/svg"><g id="Page-1" fill="none" fill-rule="evenodd"><g id="029---Dead-Bug" fill="rgb(0,0,0)" fill-rule="nonzero"><path id="Shape" d="m59.5 45.61c-.006-.008-.015-.011-.021-.019-.0686721-.083215-.1435533-.1611048-.224-.233-1.438-1.206-4.516-.789-10.637.281l-.518-3.117 6.4-3.654c.2139091-.1215781.3750032-.3183125.452-.552l1-3c.1128959-.3394023.0361471-.7132523-.201336-.9807242-.237483-.2674719-.599621-.3879304-.95-.316-.350379.0719305-.6357681.3253219-.748664.6647242l-.88 2.637-6.672 3.811c-.3634797.2078017-.5590243.6200415-.49 1.033l.636 3.819c-.718.126-1.4546667.2523333-2.21.379l-4.071-6.112 6.212-4.437c.1725311-.1232572.3011269-.2984558.367-.5l1-3c.174522-.5246705-.1093295-1.091478-.634-1.266s-1.091478.1093295-1.266.634l-.9 2.691-6.735 4.811c-.4390001.3136273-.5500649.9189529-.251 1.368l4.105 6.162c-3.9402165.6509285-7.9160979 1.0636774-11.906 1.236l-3.322-7.079.333-1.667 4.876 5.46c.3138707.3533085.832227.438656 1.2428028.2046278.4105759-.2340283.6012666-.7235325.4571972-1.1736278l-6.577-20.695h12.307c.6282306.0009776 1.2204124-.2932888 1.5990475-.794597.3786352-.5013083.4997169-1.1513938.3269525-1.755403l-5.429-19c-.2477607-.85767435-1.0322578-1.44859418-1.925-1.45h-19.676c-.6835471.00008864-1.3197087.34926655-1.6868195.92586546-.3671107.57659891-.4143209 1.30075224-.1251805 1.92013454l5.672 12.154h-8.2c-.78839584-.000038-1.50325315.4630914-1.82545347 1.1826433s-.19161816 1.5612515.33345347 2.1493567l16.974 19.008-.692 3.46c-.0420495.2096942-.015763.4273459.075.621l3.084 6.579c-.06 0-.119 0-.179 0-1.1753754.0129879-2.3381071.2442457-3.429.682l-3.524-4.937.943-6.6c.0784244-.5467619-.3012381-1.0535756-.848-1.132s-1.0535756.3012381-1.132.848l-1 7c-.0362342.2547975.0271622.5137554.177.723l3.57 5c-1.8091584 1.1120812-3.3114156 2.659028-4.37 4.5-.1221106-.0535182-.2536902-.0820781-.387-.084-.5321462-.0009177-1.0587603-.1080084-1.549-.315-1.4238381-.520162-2.936648-.7529804-4.451-.685-3.4 0-4.647 2.9-4.93 5.031-1.21112155-.0029663-2.38581418-.4144963-3.334-1.168-1.152-.999-1.736-2.635-1.736-4.863 0-.5522847-.44771525-1-1-1s-1 .4477153-1 1c0 2.833.816 4.978 2.426 6.374 1.36836031 1.1121642 3.08705252 1.7025439 4.85 1.666.26153804.0011208.52293771-.0122329.783-.04h31.941c6.248 0 20-6.285 20-13 .0071474-.5054298-.1682525-.9964784-.494-1.383zm-24.293-43.885-.961.275zm-16.777 15.275c.6835471-.0000886 1.3197087-.3492665 1.6868195-.9258655.3671107-.5765989.4143209-1.3007522.1251805-1.9201345l-5.672-12.154h19.675l5.429 19h-12.307c-.6378094.0003129-1.2372221.3048143-1.6136196.819718-.3763974.5149038-.4846367 1.1784556-.2913804 1.786282l5.166 16.235-20.395-22.841zm9.57 33c.573 0 1.14-.02 1.708-.034h.033c.0087696-.0015243.0174493-.0035273.026-.006 6.1062443-.2700195 12.1836299-.997728 18.181-2.177h.016.007l.152-.026c2.7206122-.5573809 5.4743196-.9388381 8.244-1.142-5.442 3.393-13.601 5.385-22.367 5.385-5.1629295-.1470103-10.2366319 1.367669-14.474 4.321 1.317-3.431 4.919-6.321 8.474-6.321zm-16 5c1.2867381-.0645293 2.5733696.1292815 3.784.57.5585782.2147294 1.1447136.3493958 1.741.4-.2276331.6579521-.3835372 1.3385656-.465 2.03h-7.96c.208-1.187.861-3 2.9-3zm28 3h-19.363c3.9077462-2.7367727 8.5942564-4.1396044 13.363-4 9.33 0 18.055-2.2 23.821-5.941-1.493 4.713-12.29 9.941-17.821 9.941z"/></g></g></svg>