<?xml version="1.0" encoding="UTF-8" standalone="no"?>
<!DOCTYPE svg PUBLIC "-//W3C//DTD SVG 1.1//EN" "http://www.w3.org/Graphics/SVG/1.1/DTD/svg11.dtd">
<svg version="1.1" xmlns="http://www.w3.org/2000/svg" xmlns:xlink="http://www.w3.org/1999/xlink" preserveAspectRatio="xMidYMid meet" viewBox="0 0 640 640" width="640" height="640"><defs><path d="M128.65 622.02C123.99 626.66 117.47 628.93 110.93 628.18C104.39 627.43 98.55 623.76 95.05 618.18C94.58 617.43 92.2 613.66 87.91 606.88C60.39 562.85 45.1 538.39 42.04 533.49C36.71 524.94 37.99 513.84 45.14 506.72C47.74 504.12 60.75 491.1 84.18 467.68L85.24 466.51L184.65 565.92C151.05 599.58 132.39 618.28 128.65 622.02Z" id="bOuwFcdno"></path><path d="M104.03 601.71C99.52 606.23 93.22 608.5 86.86 607.89C82.27 600.56 45.58 541.85 40.99 534.51C35.66 525.96 36.95 514.85 44.09 507.74C46.69 505.13 59.7 492.12 83.13 468.7L160.03 545.6C126.43 579.27 107.76 597.97 104.03 601.71Z" id="b8rR07o1Es"></path><path d="M294.46 416.01L202.7 324.25C361.12 165.83 449.13 77.82 466.73 60.21C491.73 35.22 532.25 35.22 557.24 60.21C557.37 60.34 558.37 61.34 558.49 61.47C583.49 86.46 583.49 126.98 558.49 151.97C558.49 151.97 558.49 151.97 558.49 151.97L294.46 416.01Z" id="fuCbIVG9d"></path><path d="M262.48 395.89L194.65 328.07C359.88 162.84 451.68 71.05 470.04 52.69C488.76 33.96 519.13 33.96 537.86 52.69C537.86 52.69 537.86 52.69 537.86 52.69C556.58 71.42 556.58 101.79 537.86 120.51C537.86 120.51 537.86 120.51 537.86 120.51L262.48 395.89Z" id="acvOjVSP8"></path><path d="M531.9 96.62C529.93 89 523.98 83.04 516.36 81.08C508.74 79.11 500.65 81.44 495.24 87.15C479.94 102.45 403.48 178.91 265.84 316.55L296.43 347.13L525.82 117.74C531.19 108.74 533.21 101.7 531.9 96.62Z" id="aKy5HfLox"></path><path d="M166.43 584.21L143.18 560.86C99.02 516.7 74.49 492.16 69.58 487.26C63.4 481.11 61.55 471.84 64.89 463.79C69.51 452.53 106.55 362.42 111.18 351.16C112.25 348.57 113.8 346.22 115.76 344.22C117.61 342.38 126.86 333.17 143.5 316.6L174.11 285.98C183.26 276.77 188.35 271.65 189.36 270.62C195.84 264.28 205.58 262.63 213.79 266.46C216.1 267.45 218.2 268.86 219.97 270.62C231.44 282.1 323.17 373.92 334.64 385.39C338.68 389.44 340.96 394.93 340.96 400.65C340.96 406.37 338.68 411.86 334.64 415.9C312.21 438.34 256.14 494.45 166.43 584.21Z" id="a23PNhwWf6"></path><path d="M143.18 560.86C99.02 516.7 74.49 492.16 69.58 487.26C63.4 481.11 61.55 471.84 64.89 463.79C69.51 452.53 106.55 362.42 111.18 351.16C112.25 348.57 113.8 346.22 115.76 344.22C117.61 342.38 126.86 333.17 143.5 316.6L174.11 285.98C183.26 276.77 188.35 271.65 189.36 270.62C195.84 264.28 205.58 262.63 213.79 266.46C223.48 276.16 301.05 353.73 310.74 363.42C318.98 371.85 318.83 385.35 310.42 393.61C310.42 393.61 310.42 393.61 310.42 393.61L143.18 560.86Z" id="b1LD0uZNV"></path><path d="M218.65 339.49C218.65 333.75 216.38 328.25 212.32 324.19C200.85 312.72 109.09 220.97 97.62 209.5C89.17 201.05 75.48 201.05 67.03 209.5C67.03 209.5 67.03 209.5 67.03 209.5C58.59 217.94 58.59 231.64 67.03 240.08C74.26 247.31 110.38 283.43 175.39 348.44C175.39 348.45 175.39 348.45 175.39 348.45C175.4 360.39 185.08 370.07 197.02 370.07C197.02 370.07 197.02 370.07 197.02 370.07C208.97 370.07 218.65 360.39 218.65 348.45C218.65 348.45 218.65 348.45 218.65 348.45C218.65 343.07 218.65 340.09 218.65 339.49Z" id="a1M7s8vId7"></path><path d="M296.45 454.19C282.44 440.18 274.65 432.39 273.09 430.83C268.57 426.34 265.14 420.86 263.07 414.83C257.59 399.35 261.49 382.09 273.09 370.46C274.65 368.9 282.44 361.12 296.45 347.1L319.7 370.46C328.79 379.55 333.84 384.6 334.85 385.61C343.17 393.95 343.17 407.45 334.85 415.79C334.85 415.79 334.85 415.79 334.85 415.79L296.45 454.19Z" id="ge55kiHZW"></path><path d="M275.33 427.1C267.97 419.74 263.88 415.65 263.07 414.83C257.59 399.35 261.49 382.09 273.09 370.46C274.65 368.9 282.44 361.12 296.45 347.1C310.4 361.12 318.15 368.9 319.7 370.46C320.8 377.12 318.57 383.89 313.73 388.59C313.73 388.59 313.73 388.59 313.73 388.59L275.33 427.1Z" id="b1vLS3Kjmu"></path><path d="M516.69 26.36L519.54 26.63L522.39 27.01L525.22 27.51L528.03 28.11L530.82 28.82L533.59 29.63L536.34 30.56L539.05 31.6L541.73 32.75L544.37 34L546.97 35.36L549.53 36.84L552.04 38.42L554.5 40.11L556.9 41.91L559.25 43.82L561.53 45.84L563.76 47.97L565.03 49.24L567.15 51.47L569.17 53.75L571.08 56.1L572.88 58.5L574.57 60.96L576.16 63.47L577.63 66.03L578.99 68.63L580.25 71.27L581.39 73.95L582.43 76.66L583.36 79.4L584.17 82.17L584.88 84.97L585.48 87.78L585.97 90.61L586.35 93.46L586.63 96.31L586.79 99.17L586.84 102.04L586.79 104.9L586.62 107.76L586.35 110.61L585.97 113.46L585.48 116.29L584.88 119.1L584.17 121.9L583.35 124.67L582.42 127.41L581.38 130.12L580.23 132.8L578.98 135.44L577.61 138.04L576.14 140.6L574.56 143.1L572.86 145.56L571.06 147.97L569.15 150.31L567.13 152.6L565 154.82L334.56 385.26L334.4 385.41L334.25 385.56L334.09 385.7L333.93 385.84L333.77 385.97L333.61 386.1L333.44 386.23L333.27 386.36L333.1 386.48L332.93 386.6L332.76 386.71L332.58 386.82L332.4 386.93L332.22 387.03L332.04 387.13L331.85 387.23L331.67 387.32L331.48 387.41L331.29 387.5L331.1 387.58L330.9 387.66L330.71 387.73L330.51 387.8L330.31 387.87L330.12 387.93L329.92 387.99L329.71 388.04L329.51 388.09L329.31 388.14L329.1 388.18L328.9 388.22L328.69 388.26L328.48 388.29L328.28 388.31L328.07 388.34L327.86 388.36L327.65 388.37L327.44 388.38L327.22 388.39L327.01 388.39L326.8 388.39L326.59 388.38L326.38 388.37L326.17 388.36L325.96 388.34L325.75 388.31L325.54 388.29L325.33 388.26L325.13 388.22L324.92 388.18L324.72 388.14L324.51 388.09L324.31 388.04L324.11 387.99L323.91 387.93L323.71 387.87L323.51 387.8L323.32 387.73L323.12 387.66L322.93 387.58L322.74 387.5L322.55 387.41L322.36 387.32L322.17 387.23L321.99 387.13L321.81 387.03L321.63 386.93L321.45 386.82L321.27 386.71L321.09 386.6L320.92 386.48L320.75 386.36L320.58 386.23L320.42 386.1L320.25 385.97L320.09 385.84L319.93 385.7L319.78 385.56L319.62 385.41L319.47 385.26L227.71 293.51L227.57 293.36L227.42 293.2L227.28 293.04L227.14 292.89L227 292.72L226.87 292.56L226.75 292.39L226.62 292.23L226.5 292.06L226.38 291.88L226.27 291.71L226.16 291.53L226.05 291.35L225.95 291.17L225.85 290.99L225.75 290.8L225.66 290.62L225.57 290.43L225.48 290.24L225.4 290.05L225.32 289.85L225.25 289.66L225.18 289.46L225.11 289.27L225.05 289.07L224.99 288.87L224.94 288.67L224.89 288.46L224.84 288.26L224.8 288.06L224.76 287.85L224.72 287.64L224.69 287.44L224.66 287.23L224.64 287.02L224.62 286.81L224.61 286.6L224.6 286.39L224.59 286.18L224.59 285.97L224.59 285.75L224.6 285.54L224.61 285.33L224.62 285.12L224.64 284.91L224.66 284.7L224.69 284.49L224.72 284.29L224.76 284.08L224.8 283.88L224.84 283.67L224.89 283.47L224.94 283.26L224.99 283.06L225.05 282.86L225.11 282.67L225.18 282.47L225.25 282.27L225.32 282.08L225.4 281.88L225.48 281.69L225.57 281.5L225.66 281.31L225.75 281.13L225.85 280.94L225.95 280.76L226.05 280.58L226.16 280.4L226.27 280.22L226.38 280.05L226.5 279.88L226.62 279.71L226.75 279.54L226.87 279.37L227 279.21L227.14 279.05L227.28 278.89L227.42 278.73L227.57 278.58L227.71 278.42L458.16 47.97L460.39 45.84L462.67 43.82L465.02 41.91L467.42 40.11L469.88 38.42L472.39 36.84L474.95 35.36L477.55 34L480.19 32.75L482.87 31.6L485.58 30.56L488.33 29.63L491.1 28.82L493.89 28.11L496.7 27.51L499.53 27.01L502.38 26.63L505.23 26.36L508.1 26.2L510.96 26.14L513.82 26.2L516.69 26.36ZM506.86 47.62L504.82 47.81L502.79 48.08L500.77 48.44L498.76 48.86L496.76 49.37L494.78 49.96L492.83 50.62L490.89 51.36L488.98 52.18L487.09 53.08L485.23 54.05L483.41 55.1L481.61 56.23L479.86 57.44L478.14 58.73L476.47 60.09L474.83 61.53L473.25 63.05L250.34 285.96L327.01 362.64L549.92 139.74L551.44 138.15L552.89 136.52L554.25 134.84L555.54 133.12L556.74 131.37L557.88 129.57L558.93 127.75L559.9 125.89L560.8 124L561.62 122.09L562.36 120.15L563.02 118.19L563.61 116.21L564.11 114.22L564.54 112.21L564.89 110.18L565.17 108.15L565.36 106.11L565.48 104.07L565.52 102.02L565.48 99.98L565.36 97.93L565.17 95.89L564.89 93.86L564.54 91.84L564.11 89.83L563.61 87.83L563.02 85.85L562.36 83.9L561.62 81.96L560.8 80.04L559.9 78.16L558.93 76.3L557.88 74.47L556.74 72.68L555.54 70.92L554.25 69.21L552.89 67.53L551.44 65.9L549.92 64.31L548.65 63.04L547.06 61.52L545.43 60.08L543.76 58.71L542.04 57.43L540.28 56.22L538.49 55.09L536.66 54.04L534.81 53.07L532.92 52.17L531.01 51.35L529.07 50.61L527.11 49.95L525.13 49.37L523.14 48.86L521.13 48.43L519.11 48.08L517.07 47.81L515.04 47.61L512.99 47.5L510.95 47.46L508.9 47.5L506.86 47.62Z" id="a2Q9WbCioJ"></path><path d="M512.62 69.89L513.27 69.92L513.91 69.97L514.55 70.03L515.18 70.11L515.82 70.19L516.45 70.29L517.08 70.4L517.71 70.53L518.33 70.66L518.95 70.81L519.56 70.97L520.18 71.14L520.79 71.33L521.39 71.52L521.99 71.73L522.59 71.95L523.18 72.18L523.77 72.43L524.35 72.68L524.93 72.95L525.5 73.23L526.06 73.52L526.62 73.82L527.18 74.13L527.73 74.46L528.27 74.79L528.81 75.14L529.34 75.49L529.86 75.86L530.38 76.24L530.89 76.63L531.39 77.03L531.88 77.44L532.37 77.86L532.85 78.29L533.32 78.73L533.79 79.18L534.71 80.16L535.58 81.17L536.41 82.2L537.18 83.26L537.91 84.34L538.59 85.44L539.23 86.56L539.81 87.7L540.35 88.86L540.84 90.03L541.28 91.22L541.67 92.42L542.02 93.64L542.32 94.86L542.57 96.09L542.77 97.33L542.93 98.57L543.04 99.82L543.1 101.07L543.11 102.32L543.07 103.57L542.99 104.82L542.86 106.06L542.68 107.31L542.45 108.54L542.18 109.77L541.86 110.98L541.49 112.19L541.07 113.38L540.61 114.56L540.1 115.73L539.54 116.87L538.93 118L538.28 119.12L537.58 120.2L536.83 121.27L536.03 122.31L535.19 123.33L534.3 124.32L533.36 125.28L303.97 354.68L303.82 354.82L303.67 354.97L303.51 355.11L303.35 355.25L303.19 355.39L303.03 355.52L302.86 355.65L302.69 355.77L302.52 355.89L302.35 356.01L302.17 356.12L302 356.24L301.82 356.34L301.64 356.45L301.45 356.55L301.27 356.64L301.08 356.74L300.9 356.82L300.71 356.91L300.51 356.99L300.32 357.07L300.13 357.14L299.93 357.21L299.73 357.28L299.53 357.34L299.33 357.4L299.13 357.46L298.93 357.51L298.73 357.55L298.52 357.6L298.32 357.63L298.11 357.67L297.9 357.7L297.69 357.73L297.49 357.75L297.28 357.77L297.07 357.78L296.85 357.79L296.64 357.8L296.43 357.8L296.22 357.8L296.01 357.79L295.8 357.78L295.59 357.77L295.38 357.75L295.17 357.73L294.96 357.7L294.75 357.67L294.55 357.63L294.34 357.6L294.14 357.55L293.93 357.51L293.73 357.46L293.53 357.4L293.33 357.34L293.13 357.28L292.93 357.21L292.74 357.14L292.54 357.07L292.35 356.99L292.16 356.91L291.97 356.82L291.78 356.74L291.59 356.64L291.41 356.55L291.23 356.45L291.04 356.34L290.87 356.24L290.69 356.12L290.51 356.01L290.34 355.89L290.17 355.77L290 355.65L289.84 355.52L289.67 355.39L289.51 355.25L289.35 355.11L289.2 354.97L289.04 354.82L288.89 354.68L258.3 324.09L258.15 323.94L258 323.78L257.86 323.63L257.72 323.47L257.59 323.31L257.46 323.14L257.33 322.98L257.2 322.81L257.08 322.64L256.97 322.46L256.85 322.29L256.74 322.11L256.63 321.93L256.53 321.75L256.43 321.57L256.33 321.38L256.24 321.2L256.15 321.01L256.07 320.82L255.98 320.63L255.91 320.44L255.83 320.24L255.76 320.04L255.7 319.85L255.63 319.65L255.58 319.45L255.52 319.25L255.47 319.05L255.42 318.84L255.38 318.64L255.34 318.43L255.31 318.23L255.27 318.02L255.25 317.81L255.22 317.6L255.21 317.39L255.19 317.18L255.18 316.97L255.17 316.76L255.17 316.55L255.17 316.34L255.18 316.12L255.19 315.91L255.21 315.7L255.22 315.49L255.25 315.28L255.27 315.08L255.31 314.87L255.34 314.66L255.38 314.46L255.42 314.25L255.47 314.05L255.52 313.85L255.58 313.65L255.63 313.45L255.7 313.25L255.76 313.05L255.83 312.85L255.91 312.66L255.98 312.47L256.07 312.27L256.15 312.08L256.24 311.9L256.33 311.71L256.43 311.53L256.53 311.34L256.63 311.16L256.74 310.98L256.85 310.81L256.97 310.63L257.08 310.46L257.2 310.29L257.33 310.12L257.46 309.95L257.59 309.79L257.72 309.63L257.86 309.47L258 309.31L258.15 309.16L258.3 309.01L487.7 79.61L488.16 79.16L488.62 78.71L489.1 78.28L489.59 77.85L490.08 77.44L490.58 77.03L491.08 76.64L491.6 76.25L492.11 75.88L492.64 75.52L493.17 75.16L493.71 74.82L494.26 74.49L494.81 74.17L495.37 73.86L495.93 73.56L496.5 73.27L497.07 73L497.65 72.73L498.23 72.48L498.82 72.24L499.41 72L500.01 71.78L500.61 71.58L501.22 71.38L501.83 71.19L502.44 71.02L503.06 70.86L503.68 70.71L504.3 70.57L504.93 70.44L505.56 70.33L506.19 70.23L506.83 70.14L507.46 70.06L508.1 70L508.75 69.94L509.39 69.9L510.04 69.88L510.68 69.86L511.33 69.86L511.98 69.87L512.62 69.89ZM510.51 91.21L510.28 91.23L510.05 91.25L509.83 91.27L509.6 91.3L509.37 91.33L509.15 91.37L508.92 91.41L508.7 91.45L508.48 91.5L508.25 91.56L508.03 91.62L507.82 91.68L507.6 91.74L507.38 91.82L507.17 91.89L506.95 91.97L506.74 92.05L506.53 92.14L506.33 92.23L506.12 92.33L505.91 92.43L505.71 92.53L505.51 92.64L505.31 92.75L505.12 92.86L504.92 92.98L504.73 93.1L504.54 93.23L504.35 93.36L504.17 93.49L503.98 93.63L503.8 93.77L503.63 93.92L503.45 94.06L503.28 94.22L503.11 94.37L502.94 94.53L502.78 94.69L280.92 316.55L296.43 332.05L518.28 110.2L518.61 109.87L518.92 109.54L519.22 109.19L519.5 108.83L519.76 108.47L520.01 108.1L520.25 107.72L520.46 107.33L520.66 106.94L520.84 106.54L521.01 106.13L521.16 105.72L521.3 105.31L521.42 104.89L521.52 104.47L521.6 104.04L521.67 103.61L521.72 103.18L521.76 102.75L521.78 102.32L521.78 101.89L521.77 101.46L521.74 101.02L521.7 100.59L521.63 100.16L521.55 99.74L521.46 99.31L521.35 98.89L521.22 98.47L521.07 98.06L520.91 97.65L520.73 97.25L520.54 96.85L520.32 96.46L520.1 96.07L519.85 95.7L519.59 95.33L519.31 94.96L519.02 94.61L518.7 94.27L518.55 94.12L518.38 93.98L518.22 93.84L518.05 93.71L517.89 93.57L517.72 93.44L517.54 93.32L517.37 93.2L517.19 93.08L517.01 92.96L516.83 92.85L516.65 92.74L516.47 92.64L516.28 92.54L516.09 92.44L515.9 92.35L515.71 92.25L515.52 92.17L515.32 92.08L515.13 92L514.93 91.93L514.73 91.85L514.53 91.79L514.33 91.72L514.13 91.66L513.92 91.6L513.72 91.55L513.51 91.5L513.31 91.45L513.1 91.41L512.89 91.37L512.68 91.33L512.47 91.3L512.26 91.27L512.05 91.25L511.83 91.23L511.62 91.22L511.41 91.21L511.19 91.2L510.98 91.19L510.74 91.2L510.51 91.21Z" id="bnnnItEI"></path><path d="M158.89 591.72C149.21 582.03 71.7 504.53 62.01 494.84C52.82 485.63 50.06 471.8 55.02 459.77C59.66 448.5 96.73 358.32 101.37 347.05C102.96 343.17 105.31 339.65 108.28 336.69C111.05 333.92 133.19 311.77 135.96 309.01C140.12 304.84 146.88 304.84 151.04 309.01C155.21 313.17 155.21 319.92 151.04 324.09C148.27 326.86 126.12 349.01 123.35 351.78C122.38 352.75 121.6 353.91 121.08 355.19C116.45 366.46 79.39 456.61 74.76 467.88C73.11 471.95 74.03 476.61 77.1 479.76C83.05 485.71 112.83 515.49 166.44 569.1C262.85 472.69 316.41 419.13 327.12 408.41C331.37 404.12 331.37 397.21 327.12 392.91C315.65 381.44 223.89 289.68 212.42 278.21C208.07 274.11 201.28 274.11 196.92 278.21C195.39 279.74 183.15 291.98 181.62 293.51C178.93 296.2 175 297.25 171.32 296.27C167.64 295.28 164.77 292.4 163.78 288.72C162.79 285.04 163.85 281.12 166.54 278.42C168.07 276.89 180.31 264.66 181.84 263.13C194.63 250.97 214.71 250.97 227.51 263.12C238.98 274.59 330.73 366.36 342.2 377.83C354.78 390.45 354.78 410.88 342.2 423.5C325.38 440.32 190.8 574.9 173.98 591.72C171.98 593.72 169.26 594.85 166.44 594.85C166.44 594.85 166.44 594.85 166.44 594.85C162.74 594.1 160.23 593.06 158.89 591.72Z" id="g2sm74a2U"></path><path d="M126 465.91C124.35 461.93 125.26 457.34 128.31 454.29C131.37 451.23 155.84 426.76 158.89 423.7C163.06 419.54 169.81 419.54 173.98 423.7C178.14 427.87 178.14 434.62 173.98 438.79C170.92 441.85 146.45 466.32 143.4 469.38C141.4 471.38 138.68 472.5 135.85 472.5C131.54 472.5 127.65 469.9 126 465.91Z" id="erMKDFjMe"></path><path d="M171.87 511.79C170.22 507.81 171.14 503.22 174.19 500.17C177.24 497.11 201.72 472.64 204.78 469.58C208.95 465.46 215.67 465.48 219.81 469.63C223.96 473.78 223.98 480.49 219.86 484.67C216.8 487.73 192.33 512.2 189.27 515.26C187.27 517.26 184.56 518.38 181.73 518.38C181.73 518.38 181.73 518.38 181.73 518.38C176.26 516.65 172.97 514.45 171.87 511.79Z" id="a6gbCIMEvP"></path><path d="M133.65 504.15C132 500.16 132.91 495.58 135.96 492.53C142.08 486.41 191.02 437.47 197.13 431.35C201.3 427.19 208.05 427.19 212.22 431.35C216.38 435.52 216.38 442.27 212.22 446.43C206.1 452.55 157.16 501.49 151.04 507.61C149.04 509.61 146.33 510.74 143.5 510.73C143.5 510.73 143.5 510.73 143.5 510.73C138.03 509 134.75 506.8 133.65 504.15Z" id="a3KAfnpqbz"></path><path d="M84.8 192.9L86.03 193.01L87.25 193.17L88.47 193.38L89.68 193.63L90.89 193.93L92.08 194.27L93.27 194.66L94.44 195.1L95.6 195.58L96.74 196.1L97.86 196.67L98.97 197.29L100.06 197.96L101.13 198.67L102.18 199.42L103.2 200.22L104.2 201.07L105.17 201.96L219.86 316.66L220.31 317.11L220.75 317.58L221.17 318.06L221.59 318.54L222 319.03L222.4 319.53L222.78 320.03L223.16 320.54L223.53 321.06L223.88 321.58L224.23 322.11L224.56 322.65L224.88 323.19L225.2 323.74L225.5 324.29L225.79 324.85L226.07 325.41L226.34 325.98L226.6 326.56L226.84 327.14L227.08 327.72L227.3 328.31L227.52 328.9L227.72 329.5L227.91 330.1L228.09 330.71L228.25 331.32L228.41 331.93L228.55 332.54L228.68 333.16L228.8 333.79L228.91 334.41L229 335.04L229.08 335.67L229.15 336.3L229.21 336.93L229.26 337.57L229.29 338.21L229.31 338.85L229.32 339.49L229.32 348.45L229.29 349.78L229.21 351.09L229.08 352.4L228.89 353.68L228.66 354.95L228.37 356.2L228.04 357.44L227.66 358.65L227.24 359.84L226.77 361.01L226.26 362.16L225.7 363.28L225.11 364.38L224.47 365.45L223.79 366.49L223.08 367.51L222.32 368.5L221.54 369.45L220.71 370.38L219.85 371.27L218.96 372.13L218.03 372.96L217.08 373.74L216.09 374.5L215.07 375.21L214.03 375.89L212.96 376.53L211.86 377.13L210.74 377.68L209.59 378.19L208.42 378.66L207.23 379.09L206.02 379.46L204.78 379.8L203.53 380.08L202.26 380.31L200.98 380.5L199.68 380.63L198.36 380.71L197.03 380.74L195.83 380.72L194.65 380.65L193.48 380.54L192.31 380.39L191.16 380.2L190.03 379.97L188.9 379.7L187.8 379.39L186.7 379.04L185.63 378.66L184.57 378.24L183.53 377.78L182.51 377.28L181.51 376.76L180.52 376.19L179.56 375.6L178.63 374.97L177.71 374.31L176.82 373.62L175.95 372.9L175.11 372.15L174.3 371.37L173.51 370.57L172.75 369.73L172.02 368.87L171.32 367.98L170.65 367.07L170.01 366.13L169.41 365.17L168.83 364.19L168.29 363.18L167.79 362.15L167.32 361.1L166.88 360.03L166.48 358.94L166.12 357.83L165.8 356.71L165.52 355.56L165.28 354.4L165.08 353.22L59.49 247.62L58.57 246.66L57.69 245.67L56.87 244.66L56.09 243.62L55.35 242.56L54.67 241.47L54.03 240.36L53.44 239.24L52.89 238.1L52.4 236.94L51.95 235.77L51.55 234.58L51.19 233.38L50.88 232.17L50.62 230.95L50.41 229.73L50.25 228.5L50.13 227.26L50.06 226.03L50.03 224.79L50.06 223.55L50.13 222.31L50.25 221.07L50.41 219.84L50.62 218.62L50.88 217.4L51.19 216.19L51.55 214.99L51.95 213.81L52.4 212.63L52.89 211.48L53.44 210.33L54.03 209.21L54.67 208.1L55.35 207.02L56.09 205.95L56.87 204.91L57.69 203.9L58.57 202.91L59.49 201.95L60.46 201.06L61.46 200.21L62.49 199.41L63.53 198.66L64.6 197.95L65.69 197.28L66.8 196.67L67.92 196.1L69.07 195.57L70.22 195.09L71.4 194.65L72.58 194.27L73.78 193.92L74.98 193.63L76.19 193.37L77.41 193.17L78.64 193.01L79.87 192.9L81.1 192.83L82.33 192.8L83.57 192.83L84.8 192.9ZM81.66 213.85L81.33 213.88L81.01 213.91L80.69 213.95L80.37 214.01L80.05 214.07L79.73 214.14L79.42 214.22L79.11 214.31L78.81 214.41L78.5 214.52L78.21 214.63L77.91 214.76L77.62 214.89L77.33 215.03L77.05 215.18L76.78 215.34L76.5 215.5L76.24 215.68L75.97 215.86L75.72 216.05L75.47 216.24L75.22 216.44L74.98 216.66L74.75 216.87L74.52 217.1L74.3 217.33L74.08 217.57L73.87 217.81L73.67 218.06L73.48 218.32L73.29 218.58L73.11 218.85L72.94 219.13L72.78 219.41L72.62 219.7L72.47 219.99L72.33 220.29L72.2 220.59L72.08 220.9L71.97 221.21L71.86 221.52L71.77 221.84L71.69 222.15L71.61 222.47L71.55 222.79L71.49 223.11L71.45 223.43L71.41 223.75L71.39 224.07L71.37 224.39L71.37 224.71L71.37 225.03L71.38 225.34L71.4 225.66L71.43 225.98L71.47 226.3L71.52 226.61L71.58 226.92L71.64 227.24L71.72 227.55L71.8 227.85L71.9 228.16L72 228.46L72.11 228.76L72.23 229.05L72.36 229.35L72.5 229.64L72.64 229.92L72.8 230.2L72.96 230.48L73.13 230.76L73.31 231.03L73.5 231.29L73.7 231.55L73.91 231.8L74.12 232.05L74.34 232.3L74.57 232.53L182.94 340.91L183.08 341.06L183.23 341.21L183.37 341.37L183.51 341.53L183.64 341.69L183.78 341.85L183.9 342.02L184.03 342.19L184.15 342.36L184.27 342.53L184.38 342.71L184.49 342.88L184.6 343.06L184.7 343.24L184.8 343.43L184.9 343.61L184.99 343.8L185.08 343.98L185.17 344.17L185.25 344.37L185.33 344.56L185.4 344.75L185.47 344.95L185.54 345.15L185.6 345.35L185.66 345.55L185.71 345.75L185.76 345.95L185.81 346.15L185.85 346.36L185.89 346.56L185.93 346.77L185.96 346.98L185.98 347.18L186.01 347.39L186.03 347.6L186.04 347.81L186.05 348.02L186.06 348.24L186.06 348.45L186.07 348.9L186.1 349.35L186.14 349.79L186.2 350.23L186.28 350.66L186.38 351.08L186.49 351.5L186.62 351.91L186.76 352.32L186.92 352.71L187.1 353.1L187.28 353.49L187.49 353.86L187.7 354.22L187.93 354.58L188.18 354.92L188.43 355.26L188.7 355.58L188.98 355.9L189.27 356.2L189.57 356.49L189.89 356.77L190.21 357.04L190.55 357.3L190.89 357.54L191.25 357.77L191.61 357.98L191.99 358.19L192.37 358.38L192.76 358.55L193.15 358.71L193.56 358.85L193.97 358.98L194.39 359.09L194.81 359.19L195.25 359.27L195.68 359.33L196.12 359.37L196.57 359.4L197.02 359.41L197.48 359.4L197.92 359.37L198.36 359.33L198.8 359.27L199.23 359.19L199.66 359.09L200.08 358.98L200.49 358.85L200.89 358.71L201.29 358.55L201.68 358.38L202.06 358.19L202.43 357.98L202.8 357.77L203.15 357.54L203.5 357.3L203.83 357.04L204.16 356.77L204.47 356.49L204.78 356.2L205.07 355.9L205.35 355.58L205.62 355.26L205.87 354.92L206.11 354.58L206.34 354.22L206.56 353.86L206.76 353.49L206.95 353.1L207.13 352.71L207.28 352.32L207.43 351.91L207.56 351.5L207.67 351.08L207.76 350.66L207.84 350.23L207.91 349.79L207.95 349.35L207.98 348.9L207.99 348.45L207.99 339.49L207.98 339.27L207.98 339.05L207.97 338.84L207.95 338.62L207.93 338.41L207.91 338.19L207.88 337.98L207.85 337.77L207.81 337.55L207.77 337.34L207.73 337.13L207.68 336.92L207.63 336.72L207.57 336.51L207.51 336.3L207.44 336.1L207.38 335.9L207.3 335.7L207.23 335.5L207.15 335.3L207.06 335.1L206.98 334.91L206.89 334.71L206.79 334.52L206.69 334.33L206.59 334.14L206.48 333.96L206.37 333.77L206.26 333.59L206.14 333.41L206.02 333.23L205.9 333.06L205.77 332.88L205.64 332.71L205.5 332.54L205.37 332.38L205.22 332.21L205.08 332.05L204.93 331.89L204.78 331.74L90.07 217.04L89.92 216.89L89.76 216.74L89.6 216.59L89.44 216.45L89.27 216.31L89.1 216.17L88.93 216.04L88.76 215.91L88.58 215.79L88.41 215.67L88.23 215.55L88.04 215.44L87.86 215.33L87.67 215.22L87.49 215.12L87.3 215.02L87.11 214.92L86.91 214.83L86.72 214.74L86.52 214.66L86.32 214.58L86.12 214.5L85.92 214.43L85.72 214.36L85.51 214.3L85.31 214.24L85.1 214.18L84.89 214.13L84.68 214.08L84.47 214.04L84.26 214L84.05 213.96L83.84 213.93L83.62 213.9L83.41 213.88L83.19 213.86L82.98 213.85L82.76 213.84L82.54 213.83L82.32 213.83L81.99 213.84L81.66 213.85Z" id="c1ZoRW4p9A"></path><path d="M67.85 474.26L68.25 474.3L68.66 474.35L69.06 474.42L69.46 474.5L69.86 474.6L70.25 474.71L70.64 474.84L71.03 474.98L71.41 475.14L71.79 475.31L72.16 475.5L72.53 475.7L72.89 475.92L73.24 476.15L73.59 476.4L73.92 476.66L74.25 476.94L74.58 477.23L173.98 576.64L174.13 576.79L174.27 576.94L174.41 577.1L174.55 577.26L174.69 577.42L174.82 577.58L174.95 577.75L175.07 577.92L175.19 578.09L175.31 578.26L175.43 578.44L175.54 578.61L175.64 578.79L175.75 578.97L175.85 579.15L175.94 579.34L176.04 579.53L176.13 579.71L176.21 579.9L176.29 580.1L176.37 580.29L176.44 580.48L176.51 580.68L176.58 580.88L176.64 581.08L176.7 581.28L176.76 581.48L176.81 581.68L176.85 581.88L176.9 582.09L176.94 582.29L176.97 582.5L177 582.71L177.03 582.91L177.05 583.12L177.07 583.33L177.09 583.54L177.1 583.75L177.1 583.96L177.1 584.18L177.1 584.39L177.1 584.6L177.09 584.81L177.07 585.02L177.05 585.23L177.03 585.44L177 585.65L176.97 585.86L176.94 586.06L176.9 586.27L176.85 586.47L176.81 586.68L176.76 586.88L176.7 587.08L176.64 587.28L176.58 587.48L176.51 587.67L176.44 587.87L176.37 588.07L176.29 588.26L176.21 588.45L176.13 588.64L176.04 588.83L175.94 589.01L175.85 589.2L175.75 589.38L175.64 589.56L175.54 589.74L175.43 589.92L175.31 590.09L175.19 590.27L175.07 590.44L174.95 590.61L174.82 590.77L174.69 590.94L174.55 591.1L174.41 591.26L174.27 591.41L174.13 591.57L173.98 591.72L135.16 630.53L134.7 630.98L134.24 631.42L133.76 631.85L133.29 632.27L132.8 632.68L132.3 633.08L131.8 633.47L131.29 633.85L130.78 634.22L130.26 634.57L129.73 634.92L129.19 635.26L128.65 635.58L128.11 635.89L127.55 636.2L127 636.49L126.43 636.77L125.86 637.04L125.29 637.3L124.71 637.54L124.13 637.78L123.54 638L122.95 638.22L122.35 638.42L121.75 638.61L121.15 638.79L120.54 638.95L119.93 639.11L119.31 639.25L118.69 639.38L118.07 639.5L117.45 639.6L116.82 639.69L116.19 639.78L115.56 639.84L114.93 639.9L114.29 639.94L113.65 639.98L113.02 639.99L112.38 640L112.28 640L112.19 640L112.1 640L112 640L111.91 640L111.82 640L111.73 639.99L111.63 639.99L111.54 639.99L111.45 639.99L111.36 639.98L111.26 639.98L111.17 639.98L111.08 639.97L110.99 639.97L110.89 639.97L110.8 639.96L110.71 639.96L110.62 639.95L110.52 639.95L110.43 639.94L110.34 639.94L110.25 639.93L110.15 639.93L110.06 639.92L109.97 639.91L109.88 639.91L109.78 639.9L109.69 639.89L109.6 639.88L109.51 639.87L109.41 639.87L109.32 639.86L109.23 639.85L109.14 639.84L109.05 639.83L108.95 639.82L108.86 639.81L108.77 639.8L108.68 639.79L107.95 639.7L107.22 639.6L106.49 639.47L105.77 639.33L105.06 639.18L104.35 639.01L103.65 638.82L102.95 638.62L102.26 638.4L101.57 638.17L100.89 637.92L100.22 637.66L99.55 637.38L98.89 637.09L98.24 636.78L97.59 636.46L96.95 636.13L96.32 635.78L95.7 635.41L95.09 635.04L94.48 634.65L93.89 634.24L93.3 633.82L92.72 633.39L92.15 632.95L91.6 632.49L91.05 632.02L90.51 631.54L89.98 631.04L89.47 630.54L88.96 630.02L88.47 629.49L87.98 628.94L87.51 628.39L87.05 627.82L86.6 627.25L86.17 626.66L85.75 626.06L85.34 625.44L84.94 624.82L32 540.12L31.42 539.15L30.87 538.18L30.36 537.19L29.89 536.19L29.46 535.18L29.06 534.16L28.69 533.13L28.37 532.09L28.08 531.04L27.82 529.99L27.61 528.93L27.43 527.87L27.28 526.81L27.17 525.74L27.1 524.67L27.06 523.61L27.06 522.54L27.09 521.47L27.16 520.4L27.26 519.34L27.4 518.28L27.57 517.23L27.78 516.18L28.02 515.14L28.3 514.11L28.61 513.08L28.96 512.07L29.34 511.06L29.76 510.07L30.21 509.09L30.69 508.12L31.21 507.17L31.76 506.23L32.34 505.31L32.96 504.4L33.61 503.52L34.3 502.65L35.02 501.8L35.77 500.97L36.56 500.16L59.49 477.23L59.81 476.94L60.15 476.66L60.48 476.4L60.83 476.15L61.18 475.92L61.54 475.7L61.91 475.5L62.28 475.31L62.66 475.14L63.04 474.98L63.43 474.84L63.82 474.71L64.21 474.6L64.61 474.5L65.01 474.42L65.41 474.35L65.82 474.3L66.22 474.26L66.63 474.24L67.03 474.23L67.44 474.24L67.85 474.26ZM51.37 515.53L51.11 515.81L50.87 516.1L50.64 516.39L50.41 516.69L50.2 517L50.01 517.31L49.82 517.63L49.64 517.96L49.48 518.28L49.33 518.62L49.18 518.95L49.06 519.29L48.94 519.64L48.83 519.99L48.74 520.34L48.65 520.69L48.58 521.05L48.53 521.4L48.48 521.76L48.44 522.12L48.42 522.49L48.41 522.85L48.41 523.21L48.42 523.57L48.45 523.94L48.49 524.3L48.54 524.66L48.6 525.02L48.67 525.38L48.76 525.74L48.86 526.09L48.97 526.44L49.09 526.79L49.23 527.14L49.38 527.48L49.54 527.82L49.71 528.16L49.9 528.49L50.09 528.82L103.02 613.52L103.16 613.73L103.3 613.93L103.44 614.14L103.59 614.34L103.74 614.53L103.9 614.72L104.06 614.91L104.22 615.09L104.39 615.27L104.56 615.45L104.74 615.62L104.92 615.79L105.1 615.95L105.28 616.11L105.47 616.27L105.67 616.42L105.86 616.56L106.06 616.71L106.26 616.84L106.47 616.97L106.68 617.1L106.89 617.23L107.1 617.34L107.32 617.46L107.54 617.57L107.76 617.67L107.98 617.77L108.21 617.87L108.44 617.95L108.67 618.04L108.9 618.12L109.14 618.19L109.37 618.26L109.61 618.32L109.85 618.38L110.09 618.44L110.34 618.48L110.58 618.53L110.83 618.56L111.08 618.59L111.33 618.62L111.58 618.64L111.83 618.65L112.07 618.66L112.32 618.66L112.57 618.66L112.82 618.65L113.06 618.64L113.31 618.62L113.55 618.59L113.8 618.56L114.04 618.53L114.28 618.49L114.52 618.44L114.76 618.39L115 618.33L115.23 618.27L115.47 618.2L115.7 618.13L115.93 618.05L116.16 617.97L116.39 617.88L116.62 617.79L116.84 617.69L117.06 617.58L117.28 617.48L117.5 617.36L117.71 617.24L117.93 617.12L118.14 616.99L118.34 616.86L118.55 616.72L118.75 616.58L118.95 616.43L119.14 616.28L119.33 616.13L119.52 615.96L119.71 615.8L119.89 615.63L120.07 615.45L151.35 584.18L67.03 499.86L51.64 515.25L51.37 515.53Z" id="ai80mjvL2"></path><path d="M258.3 262.92C256.77 261.39 244.53 249.15 243.01 247.62C240.31 244.93 239.26 241 240.25 237.32C241.23 233.64 244.11 230.77 247.79 229.78C251.47 228.79 255.39 229.85 258.09 232.54C259.62 234.07 271.85 246.31 273.38 247.84C276.43 250.89 277.34 255.47 275.69 259.46C274.04 263.44 270.15 266.04 265.84 266.04C265.84 266.04 265.84 266.04 265.84 266.04C262.14 265.3 259.63 264.25 258.3 262.92Z" id="h6qXMXQSy"></path><path d="M288.89 232.33C287.36 230.8 275.13 218.57 273.6 217.04C269.43 212.88 269.43 206.12 273.6 201.96C277.76 197.79 284.52 197.79 288.68 201.96C290.21 203.49 302.44 215.72 303.97 217.25C307.02 220.3 307.93 224.89 306.28 228.87C304.63 232.85 300.75 235.45 296.43 235.46C296.43 235.46 296.43 235.46 296.43 235.46C292.74 234.71 290.22 233.67 288.89 232.33Z" id="aNrImeUri"></path><path d="M319.47 201.74C317.94 200.21 305.71 187.98 304.18 186.45C300.02 182.29 300.02 175.53 304.18 171.37C308.35 167.2 315.1 167.2 319.26 171.37C320.79 172.9 333.03 185.13 334.56 186.66C337.61 189.71 338.52 194.3 336.87 198.28C335.22 202.27 331.33 204.87 327.01 204.87C327.01 204.87 327.01 204.87 327.01 204.87C323.32 204.12 320.8 203.08 319.47 201.74Z" id="a6C3zyBzg"></path><path d="M350.05 171.16C348.53 169.63 336.29 157.39 334.76 155.86C330.6 151.7 330.6 144.95 334.76 140.78C338.93 136.62 345.68 136.62 349.85 140.78C351.38 142.31 363.61 154.55 365.14 156.08C368.19 159.13 369.1 163.71 367.45 167.7C365.8 171.69 361.91 174.28 357.6 174.29C357.6 174.29 357.6 174.29 357.6 174.29C353.9 173.54 351.39 172.5 350.05 171.16Z" id="imPkyIor"></path><path d="M380.65 140.57C379.12 139.04 366.88 126.81 365.36 125.28C362.66 122.59 361.61 118.66 362.6 114.98C363.58 111.3 366.46 108.43 370.14 107.44C373.82 106.45 377.74 107.51 380.44 110.2C381.97 111.73 394.2 123.96 395.73 125.49C398.78 128.54 399.69 133.13 398.04 137.11C396.39 141.1 392.5 143.7 388.19 143.7C388.19 143.7 388.19 143.7 388.19 143.7C384.49 142.95 381.98 141.91 380.65 140.57Z" id="au4yEHnI1"></path><path d="M411.23 109.99C409.7 108.46 397.47 96.22 395.94 94.7C391.77 90.53 391.77 83.78 395.94 79.61C400.1 75.45 406.86 75.45 411.02 79.61C412.55 81.14 424.78 93.37 426.31 94.9C429.36 97.95 430.27 102.54 428.62 106.53C426.97 110.51 423.08 113.11 418.77 113.11C418.77 113.11 418.77 113.11 418.77 113.11C415.08 112.36 412.56 111.32 411.23 109.99Z" id="fCmiSB3O6"></path><path d="M441.82 79.4C440.29 77.87 428.05 65.64 426.52 64.11C422.39 59.94 422.41 53.22 426.56 49.07C430.71 44.92 437.43 44.9 441.6 49.02C443.13 50.55 455.37 62.78 456.9 64.31C459.96 67.36 460.87 71.95 459.22 75.94C457.57 79.92 453.68 82.52 449.36 82.52C449.36 82.52 449.36 82.52 449.36 82.52C445.67 81.78 443.16 80.74 441.82 79.4Z" id="e3dRRXvBD"></path><path d="M472.4 48.82C470.88 47.29 458.64 35.05 457.11 33.52C452.95 29.36 452.95 22.6 457.11 18.44C461.28 14.27 468.03 14.27 472.2 18.44C473.72 19.97 485.96 32.2 487.49 33.73C490.54 36.78 491.45 41.37 489.8 45.35C488.15 49.34 484.26 51.94 479.95 51.94C479.95 51.94 479.95 51.94 479.95 51.94C476.25 51.19 473.74 50.15 472.4 48.82Z" id="d4GIKRZv"></path><path d="M540.12 55.15C538.11 52.37 537.57 48.8 538.65 45.54C539.42 43.25 545.53 24.9 546.3 22.6C547.49 18.97 550.54 16.26 554.28 15.49C558.02 14.72 561.89 16.01 564.42 18.87C566.95 21.73 567.75 25.73 566.53 29.35C565.76 31.65 559.64 50 558.88 52.29C557.43 56.65 553.36 59.59 548.77 59.59C545.34 59.59 542.12 57.94 540.12 55.15Z" id="a6SnMgQmZ"></path><path d="M553.53 65.92C552.7 60.76 555.72 55.75 560.68 54.09C562.98 53.33 581.33 47.21 583.62 46.45C589.21 44.58 595.25 47.6 597.11 53.19C598.98 58.78 595.96 64.82 590.37 66.69C588.08 67.45 569.73 73.57 567.43 74.33C566.34 74.7 565.2 74.88 564.06 74.88C564.06 74.88 564.06 74.88 564.06 74.88C557.6 72.35 554.09 69.36 553.53 65.92Z" id="c1nzKRbKMr"></path><path d="M508.06 37.01C507.29 34.71 501.18 16.36 500.41 14.06C499.2 10.45 500.01 6.46 502.53 3.6C505.06 0.74 508.93 -0.55 512.66 0.22C516.4 0.98 519.44 3.69 520.64 7.31C521.41 9.61 527.52 27.96 528.29 30.26C529.37 33.51 528.83 37.08 526.82 39.86C524.82 42.65 521.6 44.3 518.17 44.3C518.17 44.3 518.17 44.3 518.17 44.3C512.4 42.34 509.03 39.91 508.06 37.01Z" id="b555QdcLiH"></path><path d="M598.91 112.56C596.62 111.8 578.27 105.68 575.97 104.92C570.41 103.04 567.41 97.01 569.27 91.44C571.13 85.86 577.14 82.84 582.72 84.68C585.02 85.44 603.37 91.56 605.66 92.32C610.62 93.98 613.65 98.99 612.81 104.15C611.97 109.32 607.51 113.11 602.29 113.11C602.29 113.11 602.29 113.11 602.29 113.11C600.76 112.99 599.64 112.81 598.91 112.56Z" id="c1p60W7aNE"></path><path d="M365.36 369.97C363.83 368.44 351.58 356.21 350.05 354.68C345.93 350.51 345.94 343.79 350.09 339.64C354.24 335.49 360.96 335.46 365.14 339.59C366.67 341.12 378.91 353.35 380.44 354.88C383.49 357.93 384.4 362.52 382.75 366.51C381.1 370.49 377.21 373.09 372.9 373.09C372.9 373.09 372.9 373.09 372.9 373.09C369.2 372.34 366.69 371.3 365.36 369.97Z" id="a7Jk7PN8DH"></path><path d="M395.94 339.38C394.41 337.86 382.18 325.62 380.65 324.09C376.48 319.92 376.48 313.17 380.65 309.01C384.81 304.84 391.56 304.84 395.73 309.01C397.26 310.54 409.49 322.77 411.02 324.3C414.07 327.35 414.98 331.94 413.33 335.92C411.68 339.91 407.79 342.51 403.48 342.51C403.48 342.51 403.48 342.51 403.48 342.51C399.78 341.76 397.27 340.72 395.94 339.38Z" id="c3RcFXcumG"></path><path d="M426.52 308.8C424.99 307.27 412.76 295.04 411.23 293.51C407.07 289.34 407.07 282.59 411.23 278.42C415.39 274.26 422.15 274.26 426.31 278.42C427.84 279.95 440.08 292.18 441.6 293.71C444.65 296.76 445.57 301.35 443.92 305.34C442.26 309.32 438.38 311.92 434.06 311.92C434.06 311.92 434.06 311.92 434.06 311.92C430.37 311.17 427.85 310.13 426.52 308.8Z" id="d127FdmnRn"></path><path d="M457.11 278.21C455.58 276.68 443.35 264.45 441.82 262.92C437.71 258.75 437.74 252.04 441.88 247.9C446.02 243.75 452.73 243.73 456.9 247.84C458.43 249.37 470.67 261.6 472.2 263.13C475.25 266.18 476.16 270.76 474.51 274.75C472.86 278.73 468.97 281.33 464.65 281.33C464.65 281.33 464.65 281.33 464.65 281.33C460.96 280.59 458.45 279.55 457.11 278.21Z" id="ag99mWo0S"></path><path d="M487.7 247.62C486.17 246.09 473.93 233.86 472.41 232.33C468.24 228.17 468.24 221.41 472.41 217.25C476.57 213.08 483.32 213.08 487.49 217.25C489.02 218.78 501.25 231.01 502.78 232.54C505.83 235.59 506.74 240.18 505.09 244.16C503.44 248.15 499.55 250.75 495.24 250.75C495.24 250.75 495.24 250.75 495.24 250.75C491.54 250 489.03 248.96 487.7 247.62Z" id="b1IQ1fAtOo"></path><path d="M518.28 217.04C516.75 215.51 504.52 203.27 502.99 201.74C498.85 197.57 498.86 190.84 503.01 186.69C507.17 182.53 513.9 182.52 518.07 186.66C519.6 188.19 531.83 200.43 533.36 201.96C536.41 205.01 537.32 209.59 535.67 213.58C534.02 217.56 530.13 220.16 525.82 220.16C525.82 220.16 525.82 220.16 525.82 220.16C522.12 219.42 519.61 218.37 518.28 217.04Z" id="aoc4r3X7r"></path><path d="M548.87 186.45C547.34 184.92 535.11 172.69 533.58 171.16C529.41 167 529.41 160.24 533.58 156.08C537.74 151.91 544.5 151.91 548.66 156.08C550.19 157.61 562.42 169.84 563.95 171.37C567 174.42 567.91 179.01 566.26 182.99C564.61 186.98 560.73 189.57 556.41 189.58C556.41 189.58 556.41 189.58 556.41 189.58C552.72 188.83 550.2 187.79 548.87 186.45Z" id="kznoIo4Hq"></path><path d="M579.45 155.86C577.92 154.34 565.69 142.1 564.16 140.57C560 136.41 560 129.66 564.16 125.49C568.33 121.33 575.08 121.33 579.25 125.49C580.77 127.02 593.01 139.25 594.54 140.78C597.59 143.83 598.5 148.42 596.85 152.4C595.2 156.39 591.31 158.99 586.99 158.99C586.99 158.99 586.99 158.99 586.99 158.99C583.3 158.24 580.78 157.2 579.45 155.86Z" id="fI7dG3A41"></path><path d="M296.85 336.48L297.07 336.49L297.28 336.5L297.49 336.52L297.69 336.54L297.9 336.57L298.11 336.6L298.32 336.64L298.52 336.68L298.73 336.72L298.93 336.77L299.13 336.82L299.33 336.87L299.53 336.93L299.73 336.99L299.93 337.06L300.13 337.13L300.32 337.2L300.51 337.28L300.7 337.36L300.89 337.45L301.08 337.54L301.27 337.63L301.45 337.73L301.64 337.83L301.82 337.93L302 338.04L302.17 338.15L302.35 338.26L302.52 338.38L302.69 338.5L302.86 338.63L303.03 338.75L303.19 338.88L303.35 339.02L303.51 339.16L303.67 339.3L303.82 339.45L303.97 339.59L342.41 378.03L343.32 378.99L344.19 379.97L345.01 380.97L345.78 382L346.5 383.06L347.18 384.13L347.81 385.23L348.4 386.34L348.94 387.47L349.43 388.62L349.87 389.78L350.27 390.96L350.62 392.15L350.93 393.35L351.18 394.55L351.39 395.76L351.56 396.98L351.67 398.21L351.74 399.43L351.77 400.66L351.74 401.89L351.67 403.12L351.56 404.34L351.39 405.56L351.18 406.77L350.93 407.98L350.62 409.18L350.27 410.36L349.87 411.54L349.43 412.7L348.94 413.85L348.4 414.98L347.81 416.1L347.18 417.19L346.5 418.27L345.78 419.32L345.01 420.35L344.19 421.36L343.32 422.34L342.41 423.29L303.97 461.73L303.82 461.88L303.67 462.02L303.51 462.17L303.35 462.3L303.19 462.44L303.03 462.57L302.86 462.7L302.69 462.82L302.52 462.95L302.35 463.06L302.17 463.18L302 463.29L301.82 463.4L301.64 463.5L301.45 463.6L301.27 463.7L301.08 463.79L300.9 463.88L300.71 463.96L300.51 464.04L300.32 464.12L300.13 464.2L299.93 464.27L299.73 464.33L299.53 464.4L299.33 464.45L299.13 464.51L298.93 464.56L298.73 464.61L298.52 464.65L298.32 464.69L298.11 464.72L297.9 464.75L297.69 464.78L297.49 464.8L297.28 464.82L297.07 464.84L296.85 464.85L296.64 464.85L296.43 464.85L296.16 464.8L295.89 464.74L295.62 464.68L295.36 464.62L295.1 464.56L294.85 464.5L294.6 464.44L294.36 464.37L294.12 464.31L293.88 464.24L293.65 464.17L293.42 464.1L293.2 464.03L292.99 463.96L292.77 463.89L292.56 463.82L292.36 463.74L292.16 463.67L291.97 463.59L291.77 463.51L291.59 463.43L291.41 463.35L291.23 463.27L291.06 463.19L290.89 463.11L290.72 463.02L290.56 462.94L290.41 462.85L290.26 462.76L290.11 462.68L289.97 462.59L289.83 462.5L289.7 462.4L289.57 462.31L289.45 462.22L289.33 462.12L289.21 462.03L289.1 461.93L288.99 461.83L288.89 461.73L265.53 438.37L264.01 436.78L262.56 435.15L261.2 433.47L259.91 431.76L258.7 430L257.57 428.21L256.52 426.38L255.55 424.52L254.65 422.64L253.83 420.72L253.09 418.79L252.43 416.83L251.84 414.85L251.34 412.85L250.91 410.84L250.56 408.82L250.28 406.79L250.09 404.75L249.97 402.71L249.93 400.66L249.97 398.61L250.09 396.57L250.28 394.53L250.56 392.5L250.91 390.48L251.34 388.47L251.84 386.47L252.43 384.49L253.09 382.53L253.83 380.6L254.65 378.68L255.55 376.8L256.52 374.94L257.57 373.11L258.7 371.32L259.91 369.56L261.2 367.85L262.56 366.17L264.01 364.54L265.53 362.95L288.89 339.59L289.04 339.45L289.2 339.3L289.35 339.16L289.51 339.02L289.67 338.88L289.84 338.75L290 338.63L290.17 338.5L290.34 338.38L290.51 338.26L290.69 338.15L290.87 338.04L291.05 337.93L291.23 337.83L291.41 337.73L291.59 337.63L291.78 337.54L291.97 337.45L292.16 337.36L292.35 337.28L292.54 337.2L292.74 337.13L292.93 337.06L293.13 336.99L293.33 336.93L293.53 336.87L293.73 336.82L293.93 336.77L294.14 336.72L294.34 336.68L294.55 336.64L294.75 336.6L294.96 336.57L295.17 336.54L295.38 336.52L295.59 336.5L295.8 336.49L296.01 336.48L296.22 336.47L296.43 336.47L296.64 336.47L296.85 336.48ZM279.67 379.01L278.79 380.02L277.95 381.05L277.17 382.11L276.43 383.19L275.74 384.3L275.1 385.43L274.51 386.57L273.97 387.74L273.48 388.92L273.03 390.12L272.64 391.32L272.3 392.55L272 393.78L271.76 395.02L271.56 396.26L271.41 397.52L271.31 398.77L271.26 400.03L271.26 401.29L271.31 402.55L271.41 403.8L271.56 405.06L271.76 406.3L272 407.54L272.3 408.78L272.64 410L273.03 411.21L273.48 412.4L273.97 413.58L274.51 414.75L275.1 415.89L275.74 417.02L276.43 418.13L277.17 419.21L277.95 420.27L278.79 421.3L279.67 422.31L280.61 423.29L296.43 439.1L327.33 408.2L327.64 407.88L327.93 407.54L328.21 407.2L328.47 406.84L328.72 406.48L328.95 406.11L329.16 405.74L329.36 405.36L329.54 404.97L329.7 404.57L329.85 404.18L329.98 403.77L330.1 403.37L330.2 402.95L330.28 402.54L330.34 402.13L330.39 401.71L330.43 401.29L330.44 400.87L330.44 400.45L330.43 400.03L330.39 399.61L330.34 399.19L330.28 398.78L330.2 398.36L330.1 397.95L329.98 397.55L329.85 397.14L329.7 396.75L329.54 396.35L329.36 395.96L329.16 395.58L328.95 395.2L328.72 394.84L328.47 394.47L328.21 394.12L327.93 393.78L327.64 393.44L327.33 393.12L296.43 362.22L280.61 378.03L279.67 379.01Z" id="cGActt24X"></path></defs><g><g><g><use xlink:href="#bOuwFcdno" opacity="1" fill="#ffffff" fill-opacity="1"></use><g><use xlink:href="#bOuwFcdno" opacity="1" fill-opacity="0" stroke="#000000" stroke-width="1" stroke-opacity="0"></use></g></g><g><use xlink:href="#b8rR07o1Es" opacity="1" fill="#ffffff" fill-opacity="1"></use><g><use xlink:href="#b8rR07o1Es" opacity="1" fill-opacity="0" stroke="#000000" stroke-width="1" stroke-opacity="0"></use></g></g><g><use xlink:href="#fuCbIVG9d" opacity="1" fill="#ffffff" fill-opacity="1"></use><g><use xlink:href="#fuCbIVG9d" opacity="1" fill-opacity="0" stroke="#000000" stroke-width="1" stroke-opacity="0"></use></g></g><g><use xlink:href="#acvOjVSP8" opacity="1" fill="#ffffff" fill-opacity="1"></use><g><use xlink:href="#acvOjVSP8" opacity="1" fill-opacity="0" stroke="#000000" stroke-width="1" stroke-opacity="0"></use></g></g><g><use xlink:href="#aKy5HfLox" opacity="1" fill="#ffffff" fill-opacity="1"></use><g><use xlink:href="#aKy5HfLox" opacity="1" fill-opacity="0" stroke="#000000" stroke-width="1" stroke-opacity="0"></use></g></g><g><use xlink:href="#a23PNhwWf6" opacity="1" fill="#ffffff" fill-opacity="1"></use><g><use xlink:href="#a23PNhwWf6" opacity="1" fill-opacity="0" stroke="#000000" stroke-width="1" stroke-opacity="0"></use></g></g><g><use xlink:href="#b1LD0uZNV" opacity="1" fill="#ffffff" fill-opacity="1"></use><g><use xlink:href="#b1LD0uZNV" opacity="1" fill-opacity="0" stroke="#000000" stroke-width="1" stroke-opacity="0"></use></g></g><g><use xlink:href="#a1M7s8vId7" opacity="1" fill="#ffffff" fill-opacity="1"></use><g><use xlink:href="#a1M7s8vId7" opacity="1" fill-opacity="0" stroke="#000000" stroke-width="1" stroke-opacity="0"></use></g></g><g><use xlink:href="#ge55kiHZW" opacity="1" fill="#ffffff" fill-opacity="1"></use><g><use xlink:href="#ge55kiHZW" opacity="1" fill-opacity="0" stroke="#000000" stroke-width="1" stroke-opacity="0"></use></g></g><g><use xlink:href="#b1vLS3Kjmu" opacity="1" fill="#ffffff" fill-opacity="1"></use><g><use xlink:href="#b1vLS3Kjmu" opacity="1" fill-opacity="0" stroke="#000000" stroke-width="1" stroke-opacity="0"></use></g></g><g><use xlink:href="#a2Q9WbCioJ" opacity="1" fill="#000000" fill-opacity="1"></use><g><use xlink:href="#a2Q9WbCioJ" opacity="1" fill-opacity="0" stroke="#000000" stroke-width="1" stroke-opacity="0"></use></g></g><g><use xlink:href="#bnnnItEI" opacity="1" fill="#000000" fill-opacity="1"></use><g><use xlink:href="#bnnnItEI" opacity="1" fill-opacity="0" stroke="#000000" stroke-width="1" stroke-opacity="0"></use></g></g><g><use xlink:href="#g2sm74a2U" opacity="1" fill="#000000" fill-opacity="1"></use><g><use xlink:href="#g2sm74a2U" opacity="1" fill-opacity="0" stroke="#000000" stroke-width="1" stroke-opacity="0"></use></g></g><g><use xlink:href="#erMKDFjMe" opacity="1" fill="#000000" fill-opacity="1"></use><g><use xlink:href="#erMKDFjMe" opacity="1" fill-opacity="0" stroke="#000000" stroke-width="1" stroke-opacity="0"></use></g></g><g><use xlink:href="#a6gbCIMEvP" opacity="1" fill="#000000" fill-opacity="1"></use><g><use xlink:href="#a6gbCIMEvP" opacity="1" fill-opacity="0" stroke="#000000" stroke-width="1" stroke-opacity="0"></use></g></g><g><use xlink:href="#a3KAfnpqbz" opacity="1" fill="#000000" fill-opacity="1"></use><g><use xlink:href="#a3KAfnpqbz" opacity="1" fill-opacity="0" stroke="#000000" stroke-width="1" stroke-opacity="0"></use></g></g><g><use xlink:href="#c1ZoRW4p9A" opacity="1" fill="#000000" fill-opacity="1"></use><g><use xlink:href="#c1ZoRW4p9A" opacity="1" fill-opacity="0" stroke="#000000" stroke-width="1" stroke-opacity="0"></use></g></g><g><use xlink:href="#ai80mjvL2" opacity="1" fill="#000000" fill-opacity="1"></use><g><use xlink:href="#ai80mjvL2" opacity="1" fill-opacity="0" stroke="#000000" stroke-width="1" stroke-opacity="0"></use></g></g><g><use xlink:href="#h6qXMXQSy" opacity="1" fill="#000000" fill-opacity="1"></use><g><use xlink:href="#h6qXMXQSy" opacity="1" fill-opacity="0" stroke="#000000" stroke-width="1" stroke-opacity="0"></use></g></g><g><use xlink:href="#aNrImeUri" opacity="1" fill="#000000" fill-opacity="1"></use><g><use xlink:href="#aNrImeUri" opacity="1" fill-opacity="0" stroke="#000000" stroke-width="1" stroke-opacity="0"></use></g></g><g><use xlink:href="#a6C3zyBzg" opacity="1" fill="#000000" fill-opacity="1"></use><g><use xlink:href="#a6C3zyBzg" opacity="1" fill-opacity="0" stroke="#000000" stroke-width="1" stroke-opacity="0"></use></g></g><g><use xlink:href="#imPkyIor" opacity="1" fill="#000000" fill-opacity="1"></use><g><use xlink:href="#imPkyIor" opacity="1" fill-opacity="0" stroke="#000000" stroke-width="1" stroke-opacity="0"></use></g></g><g><use xlink:href="#au4yEHnI1" opacity="1" fill="#000000" fill-opacity="1"></use><g><use xlink:href="#au4yEHnI1" opacity="1" fill-opacity="0" stroke="#000000" stroke-width="1" stroke-opacity="0"></use></g></g><g><use xlink:href="#fCmiSB3O6" opacity="1" fill="#000000" fill-opacity="1"></use><g><use xlink:href="#fCmiSB3O6" opacity="1" fill-opacity="0" stroke="#000000" stroke-width="1" stroke-opacity="0"></use></g></g><g><use xlink:href="#e3dRRXvBD" opacity="1" fill="#000000" fill-opacity="1"></use><g><use xlink:href="#e3dRRXvBD" opacity="1" fill-opacity="0" stroke="#000000" stroke-width="1" stroke-opacity="0"></use></g></g><g><use xlink:href="#d4GIKRZv" opacity="1" fill="#000000" fill-opacity="1"></use><g><use xlink:href="#d4GIKRZv" opacity="1" fill-opacity="0" stroke="#000000" stroke-width="1" stroke-opacity="0"></use></g></g><g><use xlink:href="#a6SnMgQmZ" opacity="1" fill="#000000" fill-opacity="1"></use><g><use xlink:href="#a6SnMgQmZ" opacity="1" fill-opacity="0" stroke="#000000" stroke-width="1" stroke-opacity="0"></use></g></g><g><use xlink:href="#c1nzKRbKMr" opacity="1" fill="#000000" fill-opacity="1"></use><g><use xlink:href="#c1nzKRbKMr" opacity="1" fill-opacity="0" stroke="#000000" stroke-width="1" stroke-opacity="0"></use></g></g><g><use xlink:href="#b555QdcLiH" opacity="1" fill="#000000" fill-opacity="1"></use><g><use xlink:href="#b555QdcLiH" opacity="1" fill-opacity="0" stroke="#000000" stroke-width="1" stroke-opacity="0"></use></g></g><g><use xlink:href="#c1p60W7aNE" opacity="1" fill="#000000" fill-opacity="1"></use><g><use xlink:href="#c1p60W7aNE" opacity="1" fill-opacity="0" stroke="#000000" stroke-width="1" stroke-opacity="0"></use></g></g><g><use xlink:href="#a7Jk7PN8DH" opacity="1" fill="#000000" fill-opacity="1"></use><g><use xlink:href="#a7Jk7PN8DH" opacity="1" fill-opacity="0" stroke="#000000" stroke-width="1" stroke-opacity="0"></use></g></g><g><use xlink:href="#c3RcFXcumG" opacity="1" fill="#000000" fill-opacity="1"></use><g><use xlink:href="#c3RcFXcumG" opacity="1" fill-opacity="0" stroke="#000000" stroke-width="1" stroke-opacity="0"></use></g></g><g><use xlink:href="#d127FdmnRn" opacity="1" fill="#000000" fill-opacity="1"></use><g><use xlink:href="#d127FdmnRn" opacity="1" fill-opacity="0" stroke="#000000" stroke-width="1" stroke-opacity="0"></use></g></g><g><use xlink:href="#ag99mWo0S" opacity="1" fill="#000000" fill-opacity="1"></use><g><use xlink:href="#ag99mWo0S" opacity="1" fill-opacity="0" stroke="#000000" stroke-width="1" stroke-opacity="0"></use></g></g><g><use xlink:href="#b1IQ1fAtOo" opacity="1" fill="#000000" fill-opacity="1"></use><g><use xlink:href="#b1IQ1fAtOo" opacity="1" fill-opacity="0" stroke="#000000" stroke-width="1" stroke-opacity="0"></use></g></g><g><use xlink:href="#aoc4r3X7r" opacity="1" fill="#000000" fill-opacity="1"></use><g><use xlink:href="#aoc4r3X7r" opacity="1" fill-opacity="0" stroke="#000000" stroke-width="1" stroke-opacity="0"></use></g></g><g><use xlink:href="#kznoIo4Hq" opacity="1" fill="#000000" fill-opacity="1"></use><g><use xlink:href="#kznoIo4Hq" opacity="1" fill-opacity="0" stroke="#000000" stroke-width="1" stroke-opacity="0"></use></g></g><g><use xlink:href="#fI7dG3A41" opacity="1" fill="#000000" fill-opacity="1"></use><g><use xlink:href="#fI7dG3A41" opacity="1" fill-opacity="0" stroke="#000000" stroke-width="1" stroke-opacity="0"></use></g></g><g><use xlink:href="#cGActt24X" opacity="1" fill="#000000" fill-opacity="1"></use><g><use xlink:href="#cGActt24X" opacity="1" fill-opacity="0" stroke="#000000" stroke-width="1" stroke-opacity="0"></use></g></g></g></g></svg>