<?xml version="1.0" encoding="UTF-8" standalone="no"?>
<!DOCTYPE svg PUBLIC "-//W3C//DTD SVG 1.1//EN" "http://www.w3.org/Graphics/SVG/1.1/DTD/svg11.dtd">
<svg version="1.1" xmlns="http://www.w3.org/2000/svg" xmlns:xlink="http://www.w3.org/1999/xlink" preserveAspectRatio="xMidYMid meet" viewBox="0 0 687 687" width="687" height="687"><defs><path d="M380.88 514.37L380.42 518.3L379.83 522.32L379.13 526.42L378.31 530.61L377.37 534.86L376.31 539.19L375.13 543.58L373.84 548.02L372.44 552.51L370.92 557.05L369.29 561.63L367.55 566.24L365.7 570.88L363.74 575.53L361.67 580.2L359.49 584.88L357.21 589.57L354.82 594.25L352.32 598.92L349.72 603.58L347.02 608.21L344.22 612.82L341.31 617.4L338.31 621.93L335.2 626.43L332 630.87L328.7 635.26L325.3 639.58L321.81 643.84L318.22 648.02L314.54 652.12L310.76 656.14L306.9 660.06L302.94 663.89L298.89 667.61L294.75 671.23L290.53 674.73L286.22 678.1L284.6 678.04L283 677.95L281.41 677.83L279.84 677.69L278.28 677.51L276.74 677.31L275.21 677.08L273.7 676.83L272.2 676.54L270.72 676.24L269.25 675.9L267.8 675.54L266.36 675.16L264.94 674.75L263.53 674.31L262.14 673.85L260.76 673.37L259.39 672.86L258.05 672.33L256.71 671.77L255.4 671.2L254.1 670.6L252.81 669.98L251.54 669.33L250.28 668.67L249.04 667.98L247.82 667.27L246.61 666.54L245.41 665.79L244.23 665.02L243.07 664.23L241.92 663.43L240.79 662.6L239.67 661.75L238.57 660.88L237.49 660L236.42 659.1L235.36 658.18L234.32 657.24L233.3 656.29L233.29 656.29L231.98 655.02L230.7 653.73L229.44 652.4L228.21 651.05L227.01 649.67L225.83 648.27L224.68 646.85L223.56 645.4L222.47 643.92L221.4 642.43L220.36 640.91L219.35 639.37L218.36 637.81L217.4 636.23L216.47 634.63L215.57 633.02L214.7 631.38L213.85 629.73L213.03 628.07L212.24 626.38L211.47 624.69L210.74 622.97L210.03 621.25L209.35 619.51L208.7 617.76L208.07 616L207.48 614.22L206.91 612.44L206.37 610.64L205.86 608.84L205.38 607.03L204.92 605.21L204.5 603.39L204.1 601.56L203.73 599.72L203.39 597.88L203.08 596.04L202.8 594.19L202.54 592.33L202.32 590.48L202.27 590.02L202.22 589.56L202.17 589.11L202.12 588.65L202.08 588.19L202.04 587.73L202 587.27L201.96 586.81L201.92 586.35L201.89 585.89L201.85 585.43L201.82 584.98L201.79 584.52L201.77 584.06L201.74 583.6L201.72 583.14L201.69 582.68L201.67 582.22L201.65 581.77L201.64 581.31L201.62 580.85L201.61 580.39L201.59 579.93L201.58 579.48L201.58 579.02L201.57 578.56L201.57 578.1L201.56 577.65L201.56 577.19L201.56 576.73L201.56 576.28L201.57 575.82L201.57 575.37L201.58 574.91L201.59 574.46L201.6 574L201.62 573.55L201.63 573.09L201.65 572.64L201.67 572.18L203.31 571.07L205 569.94L206.72 568.81L208.48 567.68L210.27 566.54L212.1 565.4L213.96 564.25L215.86 563.1L217.79 561.94L219.75 560.78L221.74 559.62L223.76 558.46L225.81 557.29L227.89 556.13L230 554.96L232.13 553.79L234.28 552.62L236.46 551.45L238.66 550.28L240.88 549.11L243.13 547.94L245.4 546.77L247.68 545.61L249.98 544.44L252.3 543.28L254.64 542.12L256.99 540.97L259.36 539.81L261.74 538.66L264.14 537.52L266.54 536.38L268.96 535.24L271.39 534.11L273.82 532.99L276.27 531.87L278.72 530.76L281.17 529.65L283.64 528.55L286.11 527.46L288.58 526.37L291.22 525.57L293.86 524.78L296.5 524L299.13 523.23L301.76 522.47L304.38 521.73L306.99 521L309.6 520.28L312.19 519.58L314.77 518.89L317.34 518.22L319.9 517.56L322.45 516.91L324.97 516.29L327.48 515.67L329.98 515.08L332.45 514.5L334.91 513.94L337.34 513.4L339.75 512.87L342.13 512.37L344.49 511.88L346.83 511.41L349.14 510.96L351.42 510.54L353.67 510.13L355.89 509.74L358.08 509.38L360.23 509.04L362.35 508.72L364.44 508.42L366.49 508.14L368.5 507.89L370.47 507.66L372.41 507.46L374.3 507.28L376.15 507.13L377.96 507L379.73 506.9L381.44 506.82L381.22 510.54L380.88 514.37Z" id="b2akm63gzU"></path><path d="M521.73 262.91L521.27 266.84L520.69 270.86L519.98 274.96L519.16 279.14L518.22 283.4L517.16 287.73L515.99 292.12L514.7 296.56L513.29 301.05L511.78 305.59L510.15 310.17L508.4 314.78L506.55 319.42L504.59 324.07L502.52 328.74L500.34 333.42L498.06 338.11L495.67 342.79L493.18 347.46L490.58 352.11L487.87 356.75L485.07 361.36L482.16 365.94L479.16 370.47L476.05 374.97L472.85 379.41L469.55 383.8L466.15 388.12L462.66 392.38L459.07 396.56L455.39 400.66L451.61 404.68L447.75 408.6L443.79 412.43L439.74 416.15L435.61 419.77L431.38 423.27L427.07 426.64L425.45 426.58L423.85 426.49L422.27 426.37L420.69 426.23L419.14 426.05L417.59 425.85L416.06 425.62L414.55 425.37L413.05 425.08L411.57 424.77L410.1 424.44L408.65 424.08L407.21 423.69L405.79 423.28L404.38 422.85L402.99 422.39L401.61 421.91L400.25 421.4L398.9 420.87L397.57 420.31L396.25 419.74L394.95 419.14L393.66 418.51L392.39 417.87L391.13 417.2L389.89 416.52L388.67 415.81L387.46 415.08L386.27 414.33L385.09 413.56L383.92 412.77L382.77 411.96L381.64 411.14L380.53 410.29L379.42 409.42L378.34 408.54L377.27 407.64L376.21 406.72L375.18 405.78L374.15 404.83L374.14 404.83L372.83 403.56L371.55 402.26L370.29 400.94L369.06 399.59L367.86 398.21L366.68 396.81L365.53 395.38L364.41 393.93L363.32 392.46L362.25 390.96L361.21 389.45L360.2 387.91L359.21 386.35L358.26 384.77L357.33 383.17L356.42 381.56L355.55 379.92L354.7 378.27L353.88 376.61L353.09 374.92L352.32 373.22L351.59 371.51L350.88 369.79L350.2 368.05L349.55 366.3L348.92 364.53L348.33 362.76L347.76 360.98L347.22 359.18L346.71 357.38L346.23 355.57L345.77 353.75L345.35 351.93L344.95 350.1L344.58 348.26L344.24 346.42L343.93 344.57L343.65 342.73L343.4 340.87L343.17 339.02L343.12 338.56L343.07 338.1L343.02 337.64L342.98 337.19L342.93 336.73L342.89 336.27L342.85 335.81L342.81 335.35L342.78 334.89L342.74 334.43L342.71 333.97L342.68 333.52L342.65 333.06L342.62 332.6L342.59 332.14L342.57 331.68L342.55 331.22L342.52 330.76L342.51 330.31L342.49 329.85L342.47 329.39L342.46 328.93L342.45 328.47L342.44 328.02L342.43 327.56L342.42 327.1L342.42 326.64L342.41 326.19L342.41 325.73L342.41 325.27L342.42 324.82L342.42 324.36L342.43 323.91L342.43 323.45L342.44 322.99L342.46 322.54L342.47 322.08L342.48 321.63L342.5 321.18L342.52 320.72L344.16 319.6L345.85 318.48L347.57 317.35L349.33 316.22L351.12 315.08L352.95 313.93L354.82 312.79L356.71 311.63L358.64 310.48L360.6 309.32L362.6 308.16L364.62 307L366.67 305.83L368.74 304.66L370.85 303.5L372.98 302.33L375.13 301.16L377.31 299.99L379.51 298.82L381.74 297.65L383.98 296.48L386.25 295.31L388.53 294.15L390.84 292.98L393.16 291.82L395.49 290.66L397.85 289.51L400.21 288.35L402.59 287.2L404.99 286.06L407.39 284.92L409.81 283.78L412.24 282.65L414.67 281.53L417.12 280.41L419.57 279.3L422.03 278.19L424.49 277.09L426.96 276L429.43 274.91L432.07 274.11L434.71 273.32L437.35 272.54L439.98 271.77L442.61 271.01L445.23 270.27L447.84 269.54L450.45 268.82L453.04 268.12L455.63 267.43L458.2 266.76L460.76 266.1L463.3 265.45L465.83 264.83L468.34 264.21L470.83 263.62L473.3 263.04L475.76 262.48L478.19 261.94L480.6 261.41L482.99 260.91L485.35 260.42L487.68 259.95L489.99 259.5L492.27 259.08L494.52 258.67L496.74 258.28L498.93 257.92L501.08 257.58L503.2 257.26L505.29 256.96L507.34 256.68L509.35 256.43L511.33 256.2L513.26 256L515.15 255.82L517.01 255.67L518.81 255.54L520.58 255.43L522.3 255.36L522.08 259.08L521.73 262.91Z" id="aBfSsxYvF"></path><path d="M381.24 8.34L384.62 8.39L388.02 8.48L391.43 8.59L394.86 8.73L398.3 8.89L401.76 9.08L405.22 9.3L408.7 9.54L412.19 9.81L415.68 10.1L419.18 10.42L422.68 10.76L426.19 11.12L429.7 11.51L433.21 11.92L436.72 12.35L440.27 13.69L443.81 15.06L447.34 16.44L450.85 17.85L454.36 19.29L457.85 20.74L461.32 22.22L464.77 23.73L468.21 25.25L471.62 26.79L475.01 28.36L478.38 29.94L481.72 31.54L485.03 33.17L488.32 34.81L491.57 36.47L494.79 38.15L497.98 39.84L501.13 41.55L504.25 43.28L507.33 45.03L510.37 46.79L513.36 48.56L516.31 50.35L519.22 52.16L522.08 53.97L524.9 55.8L527.66 57.65L530.38 59.5L533.04 61.37L535.65 63.25L538.2 65.14L540.69 67.04L543.13 68.95L545.51 70.87L547.82 72.8L550.07 74.74L552.26 76.68L554.37 78.64L556.43 80.6L554.02 89.44L551.41 98.39L548.61 107.42L545.61 116.53L542.42 125.7L539.05 134.91L535.5 144.16L531.77 153.43L527.87 162.7L523.8 171.97L519.57 181.22L515.18 190.44L510.64 199.61L505.95 208.72L501.11 217.75L496.14 226.7L491.03 235.55L485.79 244.29L480.42 252.9L474.93 261.37L469.33 269.69L463.61 277.84L457.78 285.81L451.85 293.59L445.82 301.16L439.69 308.51L433.48 315.63L427.17 322.5L420.79 329.11L414.33 335.45L407.8 341.51L401.2 347.26L394.53 352.7L387.81 357.82L381.03 362.59L374.21 367.01L367.34 371.07L360.42 374.74L353.47 378.03L346.49 380.9L344.64 378.73L342.82 376.51L341.04 374.23L339.29 371.91L337.57 369.53L335.88 367.11L334.23 364.64L332.61 362.12L331.03 359.56L329.47 356.95L327.95 354.29L326.46 351.59L325 348.85L323.58 346.07L322.19 343.24L320.82 340.37L319.49 337.47L318.2 334.52L316.93 331.54L315.69 328.51L314.49 325.45L313.31 322.36L312.17 319.23L311.06 316.06L309.97 312.86L308.92 309.63L307.9 306.36L306.91 303.06L305.95 299.74L305.01 296.38L304.11 292.99L303.24 289.57L302.39 286.13L301.57 282.66L300.79 279.16L300.03 275.64L299.3 272.09L298.6 268.52L297.93 264.93L297.28 261.31L297.27 261.31L296.47 256.57L295.72 251.79L295.02 246.97L294.36 242.13L293.75 237.25L293.18 232.35L292.66 227.42L292.19 222.47L291.76 217.49L291.38 212.5L291.04 207.48L290.74 202.45L290.49 197.4L290.28 192.34L290.12 187.26L290 182.18L289.92 177.08L289.88 171.98L289.88 166.87L289.93 161.76L290.02 156.65L290.14 151.54L290.31 146.43L290.52 141.32L290.77 136.22L291.06 131.12L291.38 126.03L291.75 120.96L292.15 115.89L292.59 110.84L293.07 105.8L293.59 100.78L294.15 95.78L294.74 90.8L295.37 85.85L296.03 80.91L296.73 76.01L297.47 71.13L298.24 66.27L299.05 61.45L299.25 60.27L299.46 59.08L299.67 57.9L299.88 56.72L300.09 55.54L300.31 54.37L300.53 53.19L300.74 52.02L300.97 50.85L301.19 49.69L301.42 48.52L301.64 47.36L301.87 46.2L302.11 45.04L302.34 43.89L302.57 42.73L302.81 41.58L303.05 40.43L303.3 39.29L303.54 38.14L303.79 37L304.03 35.86L304.28 34.73L304.54 33.6L304.79 32.47L305.05 31.34L305.3 30.21L305.56 29.09L305.83 27.97L306.09 26.85L306.36 25.74L306.62 24.63L306.89 23.52L307.16 22.41L307.44 21.31L307.71 20.21L307.99 19.11L308.27 18.02L308.55 16.93L308.84 15.84L311.4 15.16L314.01 14.51L316.68 13.9L319.38 13.32L322.14 12.78L324.93 12.27L327.77 11.79L330.65 11.34L333.57 10.92L336.53 10.54L339.52 10.19L342.55 9.87L345.62 9.58L348.71 9.32L351.84 9.09L355 8.89L358.2 8.72L361.41 8.58L364.66 8.47L367.93 8.38L371.22 8.33L374.54 8.3L377.88 8.31L381.24 8.34Z" id="d31PqkZ7YB"></path><path d="M483.14 44.93L486.3 45.01L489.49 45.12L492.7 45.26L495.93 45.43L499.17 45.62L502.43 45.85L505.7 46.1L508.99 46.37L512.29 46.68L515.6 47.01L518.92 47.36L522.25 47.74L525.59 48.14L528.93 48.57L532.28 49.03L535.63 49.5L538.98 50L542.33 50.53L545.69 51.07L549.04 51.64L552.39 53.1L555.74 54.58L559.07 56.08L562.39 57.6L565.69 59.15L568.98 60.72L572.26 62.31L575.51 63.92L578.75 65.55L581.96 67.2L585.15 68.87L588.32 70.55L591.46 72.26L594.58 73.98L597.66 75.72L600.72 77.48L603.74 79.25L606.74 81.04L609.69 82.84L612.61 84.66L615.5 86.5L618.34 88.34L621.14 90.2L623.91 92.07L626.62 93.95L629.3 95.85L631.92 97.75L634.5 99.67L637.03 101.6L639.51 103.53L641.94 105.48L644.31 107.43L646.63 109.39L648.89 111.36L651.09 113.33L653.23 115.31L655.31 117.3L657.33 119.29L659.28 121.29L661.17 123.29L658.49 131.84L655.62 140.48L652.54 149.19L649.28 157.97L645.84 166.8L642.22 175.67L638.42 184.57L634.45 193.47L630.32 202.38L626.02 211.27L621.58 220.14L616.98 228.96L612.23 237.74L607.35 246.45L602.33 255.09L597.18 263.63L591.9 272.07L586.5 280.39L580.99 288.59L575.37 296.64L569.63 304.54L563.8 312.28L557.87 319.83L551.85 327.19L545.74 334.34L539.55 341.27L533.29 347.98L526.95 354.44L520.54 360.64L514.07 366.57L507.55 372.22L500.97 377.57L494.34 382.61L487.67 387.33L480.96 391.72L474.22 395.76L467.45 399.44L460.66 402.75L453.85 405.68L447.02 408.2L445.33 406L443.68 403.75L442.06 401.45L440.48 399.11L438.93 396.72L437.41 394.28L435.92 391.8L434.47 389.27L433.06 386.7L431.67 384.08L430.32 381.42L429.01 378.72L427.72 375.98L426.47 373.2L425.25 370.38L424.06 367.52L422.9 364.63L421.78 361.69L420.69 358.72L419.63 355.72L418.6 352.68L417.6 349.6L416.63 346.49L415.69 343.35L414.79 340.18L413.91 336.98L413.06 333.74L412.25 330.48L411.46 327.18L410.71 323.86L409.98 320.51L409.28 317.14L408.62 313.74L407.98 310.31L407.37 306.86L406.79 303.39L406.23 299.89L405.71 296.37L405.21 292.83L404.74 289.27L404.73 289.27L404.16 284.59L403.64 279.89L403.16 275.16L402.73 270.39L402.35 265.6L402.01 260.79L401.72 255.95L401.47 251.08L401.27 246.2L401.11 241.3L400.99 236.39L400.92 231.45L400.89 226.51L400.9 221.55L400.95 216.58L401.04 211.6L401.18 206.62L401.36 201.63L401.57 196.64L401.83 191.65L402.13 186.65L402.46 181.66L402.84 176.67L403.25 171.69L403.7 166.71L404.19 161.74L404.71 156.78L405.28 151.83L405.88 146.9L406.51 141.98L407.18 137.07L407.89 132.19L408.63 127.32L409.41 122.48L410.22 117.66L411.06 112.86L411.94 108.1L412.85 103.36L413.79 98.65L414.77 93.97L415.01 92.82L415.26 91.67L415.51 90.52L415.76 89.37L416.02 88.23L416.27 87.09L416.53 85.95L416.79 84.82L417.05 83.68L417.32 82.55L417.58 81.42L417.85 80.29L418.12 79.17L418.39 78.05L418.66 76.93L418.94 75.81L419.21 74.69L419.49 73.58L419.77 72.47L420.05 71.36L420.34 70.26L420.62 69.16L420.91 68.06L421.2 66.96L421.49 65.86L421.78 64.77L422.08 63.68L422.38 62.6L422.67 61.51L422.97 60.43L423.28 59.35L423.58 58.28L423.88 57.21L424.19 56.14L424.5 55.07L424.81 54.01L425.12 52.94L425.44 51.89L425.75 50.83L426.07 49.78L428.56 49.22L431.1 48.7L433.68 48.21L436.31 47.76L438.97 47.34L441.68 46.95L444.42 46.6L447.21 46.28L450.03 45.99L452.89 45.74L455.78 45.52L458.7 45.33L461.66 45.17L464.64 45.05L467.66 44.95L470.7 44.89L473.77 44.85L476.87 44.85L479.99 44.87L483.14 44.93Z" id="h72uqO8pkT"></path><path d="M202.21 307.6L203.28 313.01L204.42 318.36L205.63 323.66L206.91 328.89L208.26 334.05L209.68 339.14L211.16 344.16L212.72 349.1L214.35 353.97L216.05 358.75L217.83 363.45L219.68 368.07L221.6 372.59L223.59 377.02L225.66 381.36L227.81 385.59L230.03 389.73L232.33 393.76L234.7 397.69L237.15 401.51L239.68 405.21L242.29 408.8L244.98 412.27L247.75 415.62L250.59 418.85L253.52 421.95L256.53 424.92L259.62 427.76L262.8 430.47L266.05 433.03L269.39 435.46L272.82 437.74L276.33 439.88L279.92 441.86L283.6 443.7L287.37 445.38L291.23 446.9L295.17 448.26L295.26 454.58L295.29 460.9L295.26 467.2L295.16 473.5L294.99 479.77L294.76 486.03L294.46 492.26L294.09 498.47L293.66 504.65L293.15 510.79L292.58 516.9L291.94 522.97L291.22 529L290.43 534.98L289.58 540.91L288.64 546.79L287.64 552.61L286.56 558.37L285.41 564.07L284.18 569.7L282.87 575.27L281.49 580.76L280.03 586.17L278.49 591.51L276.87 596.76L275.18 601.92L273.4 607L271.54 611.98L269.61 616.87L267.58 621.66L265.48 626.34L263.3 630.92L261.03 635.39L258.67 639.75L256.23 643.99L253.7 648.11L251.09 652.11L248.39 655.98L245.6 659.72L242.73 663.33L236.3 661.72L229.88 659.74L223.48 657.39L217.1 654.69L210.75 651.64L204.43 648.26L198.14 644.55L191.88 640.53L185.67 636.21L179.5 631.59L173.37 626.7L167.3 621.53L161.28 616.1L155.32 610.42L149.42 604.51L143.58 598.36L137.81 592L132.12 585.43L126.5 578.66L120.96 571.7L115.51 564.57L110.14 557.28L104.86 549.83L99.68 542.23L94.6 534.5L89.61 526.65L84.73 518.69L79.96 510.62L75.31 502.47L70.77 494.23L66.34 485.92L62.05 477.56L57.88 469.14L53.84 460.69L49.93 452.21L46.16 443.71L42.53 435.21L39.05 426.71L35.72 418.22L32.54 409.76L32.1 408.57L31.67 407.37L31.24 406.18L30.81 404.99L30.38 403.8L29.96 402.61L29.55 401.43L29.13 400.24L28.72 399.05L28.31 397.87L27.91 396.69L27.5 395.5L27.1 394.32L26.71 393.14L26.32 391.96L25.93 390.78L25.54 389.61L25.16 388.43L24.78 387.26L24.41 386.08L24.03 384.91L23.66 383.74L23.3 382.57L22.94 381.4L22.58 380.24L22.22 379.07L21.87 377.91L21.52 376.75L21.17 375.58L20.83 374.43L20.49 373.27L20.16 372.11L19.83 370.96L19.5 369.81L19.17 368.66L18.85 367.51L18.53 366.36L18.22 365.21L17.91 364.07L17.6 362.93L19.01 361.53L20.46 360.14L21.95 358.75L23.46 357.37L25.01 355.99L26.59 354.61L28.2 353.24L29.84 351.87L31.52 350.5L33.22 349.14L34.95 347.79L36.71 346.44L38.5 345.09L40.32 343.76L42.16 342.42L44.03 341.09L45.93 339.77L47.85 338.45L49.79 337.14L51.76 335.84L53.75 334.54L55.77 333.25L57.81 331.97L59.87 330.69L61.95 329.42L64.06 328.16L66.18 326.91L68.32 325.66L70.49 324.42L72.67 323.19L74.87 321.97L77.08 320.75L79.32 319.54L81.57 318.35L83.83 317.16L86.12 315.98L88.41 314.81L90.72 313.65L93.05 312.5L95.38 311.35L97.9 310.74L100.43 310.14L102.97 309.55L105.53 308.96L108.1 308.39L110.67 307.84L113.26 307.29L115.85 306.75L118.46 306.23L121.07 305.72L123.69 305.22L126.31 304.73L128.94 304.26L131.58 303.8L134.23 303.35L136.87 302.91L139.52 302.48L142.18 302.07L144.84 301.68L147.5 301.29L150.16 300.92L152.82 300.56L155.48 300.22L158.15 299.89L160.81 299.57L163.47 299.27L166.13 298.98L168.79 298.71L171.44 298.45L174.09 298.21L176.74 297.98L179.38 297.77L182.01 297.57L184.64 297.38L187.26 297.21L189.88 297.06L192.49 296.92L195.09 296.8L197.68 296.7L200.26 296.61L201.2 302.13L202.21 307.6Z" id="g1tNpt8oCW"></path><path d="M346.52 164.78L347.23 164.8L347.94 164.83L348.66 164.86L349.4 164.9L350.14 164.95L350.9 165.01L351.66 165.07L352.43 165.14L353.21 165.21L354 165.29L354.79 165.38L355.59 165.47L356.4 165.57L357.22 165.68L358.04 165.79L358.86 165.91L359.7 166.03L360.53 166.16L361.37 166.29L362.22 166.43L363.07 166.58L363.92 166.73L364.77 166.88L365.63 167.04L366.49 167.21L367.35 167.38L368.22 167.55L369.08 167.73L369.95 167.91L370.81 168.1L371.68 168.29L372.54 168.48L373.41 168.68L374.26 169.03L375.11 169.37L375.95 169.72L376.8 170.07L377.63 170.43L378.47 170.79L379.29 171.15L380.11 171.52L380.93 171.89L381.74 172.26L382.54 172.63L383.33 173.01L384.12 173.39L384.9 173.77L385.67 174.15L386.43 174.53L387.18 174.92L387.92 175.3L388.65 175.69L389.37 176.08L390.07 176.47L390.77 176.86L391.45 177.25L392.12 177.64L392.78 178.03L393.42 178.43L394.05 178.82L394.67 179.21L395.26 179.6L395.85 179.99L396.42 180.38L396.97 180.77L397.5 181.16L398.02 181.55L398.52 181.94L399.01 182.32L399.47 182.71L398.65 184L397.77 185.31L396.84 186.62L395.85 187.94L394.81 189.26L393.72 190.57L392.58 191.89L391.4 193.2L390.17 194.5L388.89 195.8L387.58 197.08L386.22 198.35L384.82 199.6L383.39 200.83L381.92 202.05L380.42 203.24L378.89 204.4L377.33 205.54L375.74 206.65L374.12 207.73L372.47 208.77L370.81 209.77L369.12 210.74L367.41 211.67L365.69 212.55L363.94 213.39L362.18 214.19L360.41 214.93L358.63 215.62L356.84 216.25L355.04 216.83L353.23 217.35L351.42 217.81L349.61 218.21L347.79 218.54L345.98 218.8L344.17 218.99L343.76 218.58L343.36 218.17L342.97 217.74L342.6 217.31L342.23 216.87L341.87 216.43L341.53 215.97L341.19 215.52L340.87 215.05L340.55 214.58L340.24 214.1L339.95 213.62L339.66 213.13L339.38 212.63L339.12 212.13L338.86 211.63L338.61 211.11L338.37 210.6L338.14 210.07L337.92 209.55L337.71 209.02L337.51 208.48L337.32 207.94L337.14 207.39L336.96 206.84L336.8 206.29L336.64 205.73L336.49 205.17L336.35 204.6L336.22 204.03L336.1 203.46L335.99 202.89L335.88 202.31L335.78 201.72L335.7 201.14L335.62 200.55L335.55 199.96L335.54 199.96L335.46 199.19L335.39 198.41L335.34 197.63L335.3 196.84L335.27 196.05L335.26 195.26L335.25 194.47L335.27 193.68L335.29 192.88L335.33 192.08L335.38 191.28L335.44 190.48L335.51 189.68L335.6 188.88L335.69 188.08L335.8 187.28L335.92 186.48L336.05 185.68L336.2 184.88L336.35 184.08L336.52 183.28L336.69 182.49L336.88 181.7L337.07 180.91L337.28 180.13L337.5 179.35L337.73 178.57L337.96 177.79L338.21 177.02L338.47 176.26L338.73 175.5L339.01 174.74L339.29 173.99L339.59 173.25L339.89 172.51L340.2 171.78L340.52 171.05L340.6 170.87L340.68 170.69L340.76 170.52L340.84 170.34L340.93 170.16L341.01 169.99L341.09 169.81L341.18 169.64L341.26 169.46L341.35 169.29L341.43 169.11L341.52 168.94L341.61 168.77L341.69 168.6L341.78 168.42L341.87 168.25L341.96 168.08L342.04 167.91L342.13 167.74L342.22 167.57L342.31 167.4L342.4 167.24L342.5 167.07L342.59 166.9L342.68 166.73L342.77 166.57L342.87 166.4L342.96 166.24L343.05 166.07L343.15 165.91L343.24 165.74L343.34 165.58L343.43 165.42L343.53 165.26L343.63 165.1L343.72 164.94L343.82 164.78L344.48 164.77L345.15 164.76L345.83 164.77L346.52 164.78Z" id="f1tB0W28bD"></path><path d="M300.45 273.96L301.5 279.37L302.62 284.72L303.81 290.02L305.06 295.24L306.38 300.41L307.78 305.5L309.23 310.52L310.76 315.46L312.36 320.33L314.03 325.11L315.77 329.81L317.59 334.42L319.47 338.95L321.43 343.38L323.46 347.71L325.56 351.95L327.74 356.09L330 360.12L332.33 364.05L334.73 367.87L337.21 371.57L339.77 375.16L342.41 378.63L345.13 381.98L347.92 385.21L350.79 388.31L353.74 391.28L356.78 394.12L359.89 396.82L363.09 399.39L366.37 401.82L369.73 404.1L373.17 406.23L376.7 408.22L380.31 410.06L384 411.74L387.78 413.26L391.65 414.62L391.74 420.94L391.77 427.26L391.74 433.56L391.64 439.85L391.48 446.13L391.25 452.39L390.96 458.62L390.6 464.83L390.17 471L389.68 477.15L389.11 483.26L388.48 489.33L387.78 495.35L387.01 501.33L386.17 507.27L385.25 513.14L384.27 518.97L383.21 524.73L382.07 530.43L380.87 536.06L379.59 541.62L378.23 547.11L376.8 552.53L375.29 557.86L373.7 563.12L372.04 568.28L370.3 573.36L368.47 578.34L366.57 583.23L364.59 588.02L362.53 592.7L360.38 597.28L358.15 601.75L355.84 606.11L353.45 610.35L350.97 614.47L348.41 618.46L345.76 622.34L343.02 626.08L340.2 629.69L333.89 628.08L327.6 626.1L321.32 623.75L315.06 621.05L308.83 618L302.63 614.62L296.45 610.91L290.32 606.89L284.22 602.57L278.17 597.95L272.16 593.06L266.2 587.89L260.29 582.46L254.44 576.78L248.65 570.87L242.93 564.72L237.27 558.36L231.68 551.78L226.17 545.02L220.74 538.06L215.39 530.93L210.12 523.63L204.94 516.18L199.86 508.59L194.87 500.86L189.98 493.01L185.19 485.05L180.51 476.98L175.95 468.83L171.49 460.59L167.15 452.28L162.94 443.92L158.84 435.5L154.88 427.05L151.05 418.57L147.35 410.07L143.79 401.56L140.37 393.06L137.1 384.58L133.98 376.12L133.56 374.92L133.13 373.73L132.71 372.54L132.29 371.35L131.87 370.16L131.46 368.97L131.05 367.79L130.64 366.6L130.24 365.41L129.84 364.23L129.44 363.04L129.04 361.86L128.65 360.68L128.27 359.5L127.88 358.32L127.5 357.14L127.12 355.96L126.75 354.79L126.37 353.61L126.01 352.44L125.64 351.27L125.28 350.1L124.92 348.93L124.56 347.76L124.21 346.59L123.86 345.43L123.52 344.27L123.17 343.1L122.84 341.94L122.5 340.78L122.17 339.63L121.84 338.47L121.51 337.32L121.19 336.16L120.87 335.01L120.56 333.87L120.24 332.72L119.94 331.57L119.63 330.43L119.33 329.29L120.72 327.89L122.14 326.5L123.59 325.11L125.08 323.73L126.6 322.34L128.15 320.97L129.73 319.59L131.34 318.23L132.98 316.86L134.65 315.5L136.35 314.15L138.08 312.8L139.83 311.45L141.62 310.11L143.42 308.78L145.26 307.45L147.12 306.13L149 304.81L150.91 303.5L152.84 302.2L154.8 300.9L156.78 299.61L158.78 298.33L160.8 297.05L162.84 295.78L164.91 294.52L166.99 293.26L169.09 292.02L171.22 290.78L173.36 289.55L175.51 288.32L177.69 287.11L179.88 285.9L182.09 284.71L184.31 283.52L186.55 282.34L188.8 281.17L191.07 280.01L193.35 278.85L195.64 277.71L198.11 277.1L200.6 276.5L203.09 275.9L205.6 275.32L208.11 274.75L210.64 274.19L213.18 273.65L215.72 273.11L218.28 272.59L220.84 272.08L223.41 271.58L225.99 271.09L228.57 270.62L231.16 270.15L233.75 269.7L236.35 269.27L238.95 268.84L241.55 268.43L244.16 268.03L246.77 267.65L249.38 267.28L251.99 266.92L254.61 266.58L257.22 266.25L259.83 265.93L262.44 265.63L265.05 265.34L267.66 265.07L270.26 264.81L272.86 264.57L275.46 264.34L278.05 264.12L280.63 263.92L283.21 263.74L285.79 263.57L288.35 263.42L290.91 263.28L293.46 263.16L296 263.06L298.54 262.97L299.46 268.49L300.45 273.96Z" id="c1rEE6Z6lw"></path><path d="M378.82 0.05L381.92 0.11L385.05 0.19L388.2 0.3L391.36 0.43L394.55 0.59L397.75 0.77L400.97 0.97L404.21 1.19L407.46 1.44L410.73 1.71L414 2L417.29 2.31L420.59 2.65L423.89 3.01L427.21 3.39L430.53 3.79L433.85 4.21L437.18 4.66L440.51 5.12L443.85 5.61L447.18 6.12L450.52 6.65L453.85 7.2L457.18 7.76L460.51 8.35L463.83 8.96L467.15 9.59L470.46 10.24L473.76 10.91L477.05 11.6L480.33 12.31L483.6 13.04L486.86 13.78L490.1 14.55L493.33 15.33L496.54 16.13L499.73 16.95L502.9 17.79L507.02 18.91L511.21 20.1L515.49 21.35L519.84 22.67L524.26 24.05L528.74 25.49L533.28 26.99L537.87 28.56L542.5 30.18L547.18 31.87L551.89 33.61L556.62 35.41L561.39 37.27L566.16 39.19L570.95 41.16L575.75 43.19L580.55 45.28L585.34 47.42L590.12 49.61L594.89 51.85L599.63 54.15L604.35 56.5L609.03 58.91L613.67 61.36L618.27 63.86L622.82 66.41L627.32 69.01L631.75 71.66L636.11 74.35L640.41 77.09L644.62 79.88L648.75 82.71L652.79 85.59L656.74 88.51L660.58 91.48L664.32 94.48L667.95 97.53L671.46 100.62L674.84 103.75L678.1 106.92L678.35 107.18L678.59 107.44L678.82 107.7L679.04 107.97L679.26 108.25L679.47 108.53L679.67 108.82L679.87 109.11L680.05 109.4L680.23 109.7L680.4 110.01L680.56 110.31L680.71 110.63L680.86 110.94L680.99 111.26L681.12 111.58L681.24 111.9L681.35 112.23L681.45 112.56L681.54 112.89L681.63 113.23L681.71 113.56L681.77 113.9L681.83 114.24L681.88 114.58L681.92 114.93L681.96 115.27L681.98 115.62L681.99 115.96L682 116.31L682 116.66L681.98 117.01L681.96 117.36L681.93 117.71L681.89 118.05L681.84 118.4L681.78 118.75L681.71 119.1L681.63 119.44L681.55 119.79L680.09 125.09L678.58 130.41L676.99 135.75L675.34 141.11L673.62 146.49L671.84 151.87L670 157.26L668.1 162.67L666.14 168.07L664.12 173.48L662.04 178.89L659.91 184.3L657.72 189.7L655.48 195.09L653.18 200.48L650.83 205.86L648.44 211.22L645.99 216.56L643.49 221.89L640.95 227.2L638.36 232.48L635.72 237.74L633.05 242.97L630.32 248.17L627.56 253.33L624.76 258.47L621.92 263.56L619.03 268.62L616.12 273.63L613.16 278.6L610.17 283.52L607.15 288.39L604.1 293.22L601.01 297.99L597.89 302.7L594.75 307.35L591.58 311.95L588.38 316.48L585.15 320.95L581.9 325.34L579.12 329.03L576.26 332.74L573.32 336.48L570.31 340.23L567.22 343.99L564.07 347.76L560.83 351.52L557.53 355.28L554.16 359.01L550.72 362.73L547.21 366.42L543.64 370.07L540 373.68L536.29 377.25L532.53 380.76L528.7 384.21L524.81 387.6L520.86 390.91L516.85 394.15L512.78 397.29L508.66 400.35L504.48 403.31L500.25 406.16L495.96 408.91L491.63 411.53L487.24 414.04L482.8 416.41L478.32 418.65L473.78 420.74L469.2 422.69L464.58 424.48L459.91 426.11L455.2 427.57L450.44 428.85L445.65 429.96L440.81 430.88L435.94 431.61L431.03 432.13L426.08 432.45L421.1 432.56L420.7 432.56L420.3 432.56L419.89 432.55L419.49 432.55L419.09 432.54L418.68 432.53L418.28 432.52L417.88 432.51L417.47 432.5L417.07 432.48L416.67 432.47L416.27 432.45L415.86 432.43L415.46 432.41L415.06 432.39L414.66 432.37L414.26 432.34L413.85 432.32L413.45 432.29L413.05 432.26L412.65 432.23L412.25 432.19L411.85 432.16L411.45 432.13L411.04 432.09L410.64 432.05L410.24 432.01L409.84 431.97L409.44 431.93L409.04 431.88L408.64 431.84L408.24 431.79L407.84 431.74L407.44 431.69L407.04 431.64L406.65 431.59L406.25 431.54L405.85 431.48L405.45 431.42L405.05 431.36L405.01 435.62L404.94 439.86L404.84 444.07L404.71 448.26L404.56 452.43L404.37 456.58L404.16 460.69L403.92 464.79L403.65 468.86L403.35 472.9L403.03 476.92L402.68 480.91L402.29 484.87L401.88 488.81L401.45 492.71L400.98 496.59L400.49 500.44L399.97 504.26L399.42 508.06L398.85 511.82L398.24 515.55L397.61 519.25L396.95 522.92L396.27 526.55L395.56 530.16L394.82 533.73L394.05 537.27L393.26 540.77L392.43 544.24L391.59 547.68L390.71 551.08L389.81 554.44L388.88 557.77L387.92 561.07L386.94 564.32L385.93 567.54L384.9 570.72L383.84 573.87L382.75 576.97L381.63 580.04L380.13 584L378.58 587.9L376.98 591.71L375.34 595.46L373.65 599.13L371.93 602.73L370.15 606.25L368.34 609.7L366.48 613.07L364.58 616.37L362.63 619.59L360.65 622.73L358.62 625.79L356.55 628.78L354.44 631.7L352.29 634.53L350.09 637.28L347.86 639.96L345.59 642.56L343.28 645.08L340.93 647.52L338.54 649.87L336.11 652.15L333.64 654.35L331.14 656.47L328.59 658.5L326.01 660.46L323.4 662.33L320.75 664.12L318.06 665.83L315.33 667.45L312.57 668.99L309.77 670.45L306.94 671.82L304.08 673.11L301.18 674.31L298.24 675.43L295.27 676.46L292.27 677.41L289.24 678.27L288.55 678.45L287.85 678.63L287.16 678.81L286.46 678.98L285.76 679.14L285.07 679.3L284.37 679.46L283.67 679.61L282.97 679.75L282.26 679.9L281.56 680.03L280.86 680.17L280.15 680.3L279.45 680.42L278.74 680.54L278.03 680.65L277.33 680.76L276.62 680.87L275.91 680.97L275.2 681.06L274.49 681.15L273.78 681.24L273.07 681.32L272.35 681.4L271.64 681.47L270.93 681.54L270.21 681.6L269.5 681.66L268.78 681.72L268.07 681.76L267.35 681.81L266.64 681.85L265.92 681.88L265.2 681.92L264.49 681.94L263.77 681.96L263.05 681.98L262.33 681.99L261.61 682L260.9 682L255.91 681.89L250.97 681.57L246.06 681.04L241.18 680.32L236.35 679.4L231.55 678.29L226.8 677.01L222.09 675.54L217.42 673.92L212.79 672.12L208.21 670.18L203.68 668.08L199.19 665.85L194.76 663.47L190.37 660.97L186.03 658.35L181.75 655.6L177.51 652.75L173.34 649.79L169.21 646.73L165.15 643.58L161.14 640.35L157.19 637.04L153.3 633.65L149.47 630.2L145.7 626.69L142 623.12L138.36 619.51L134.78 615.86L131.28 612.17L127.84 608.45L124.46 604.71L121.16 600.96L117.93 597.2L114.77 593.43L111.69 589.67L108.68 585.92L105.74 582.18L102.88 578.47L100.1 574.78L97.58 571.38L95.07 567.94L92.58 564.46L90.11 560.94L87.65 557.38L85.21 553.78L82.78 550.15L80.38 546.49L77.99 542.79L75.62 539.06L73.27 535.3L70.94 531.5L68.63 527.68L66.34 523.84L64.07 519.96L61.82 516.06L59.6 512.13L57.4 508.18L55.22 504.21L53.07 500.22L50.94 496.21L48.84 492.17L46.76 488.12L44.71 484.06L42.69 479.97L40.69 475.88L38.72 471.76L36.78 467.64L34.87 463.5L32.98 459.36L31.13 455.2L29.31 451.04L27.52 446.87L25.76 442.69L24.03 438.51L22.33 434.32L20.67 430.13L19.04 425.94L17.45 421.75L15.89 417.56L15.88 417.56L15.88 417.54L15.88 417.54L15.87 417.52L15.87 417.51L15.87 417.5L15.86 417.5L15.42 416.28L14.98 415.07L14.54 413.85L14.1 412.63L13.66 411.42L13.23 410.2L12.8 408.99L12.38 407.77L11.96 406.56L11.54 405.34L11.12 404.13L10.71 402.92L10.3 401.7L9.89 400.49L9.49 399.28L9.09 398.07L8.69 396.86L8.29 395.65L7.9 394.44L7.51 393.23L7.13 392.02L6.75 390.81L6.37 389.61L6 388.4L5.62 387.19L5.26 385.99L4.89 384.79L4.53 383.58L4.17 382.38L3.81 381.18L3.46 379.98L3.11 378.78L2.77 377.58L2.43 376.38L2.09 375.19L1.76 373.99L1.42 372.8L1.1 371.61L0.77 370.41L0.45 369.22L0.36 368.88L0.29 368.53L0.22 368.18L0.16 367.84L0.11 367.49L0.07 367.14L0.04 366.79L0.01 366.44L0 366.09L0 365.75L0 365.4L0.02 365.05L0.04 364.71L0.07 364.36L0.11 364.02L0.16 363.68L0.22 363.34L0.29 363L0.37 362.66L0.45 362.33L0.55 362L0.65 361.67L0.76 361.34L0.88 361.02L1.01 360.7L1.14 360.38L1.29 360.06L1.44 359.75L1.6 359.45L1.77 359.14L1.95 358.84L2.13 358.55L2.33 358.26L2.53 357.97L2.74 357.69L2.95 357.41L3.18 357.14L3.41 356.88L3.65 356.61L3.9 356.36L7.16 353.19L10.54 350.06L14.05 346.97L17.68 343.92L21.42 340.91L25.26 337.95L29.21 335.03L33.25 332.15L37.38 329.32L41.6 326.53L45.89 323.79L50.25 321.09L54.69 318.45L59.18 315.85L63.73 313.29L68.33 310.79L72.97 308.34L77.66 305.94L82.37 303.59L87.11 301.29L91.88 299.04L96.66 296.85L101.45 294.71L106.25 292.63L111.05 290.6L115.84 288.63L120.62 286.71L125.38 284.85L130.12 283.05L134.83 281.3L139.5 279.62L144.14 277.99L148.72 276.43L153.26 274.93L157.74 273.49L162.16 272.11L166.51 270.79L170.79 269.54L174.98 268.35L179.1 267.23L181.57 266.57L184.06 265.93L186.55 265.29L189.06 264.67L191.57 264.06L194.1 263.46L196.63 262.87L199.16 262.29L201.71 261.73L204.26 261.18L206.82 260.63L209.38 260.1L211.95 259.59L214.52 259.08L217.09 258.59L219.67 258.11L222.26 257.64L224.84 257.18L227.43 256.73L230.02 256.3L232.61 255.88L235.2 255.48L237.79 255.08L240.39 254.7L242.98 254.33L245.57 253.97L248.15 253.63L250.74 253.3L253.32 252.98L255.91 252.68L258.48 252.39L261.06 252.11L263.63 251.85L266.19 251.59L268.75 251.36L271.3 251.13L273.85 250.92L276.39 250.73L278.92 250.54L281.44 250.38L280.9 246.02L280.39 241.64L279.91 237.22L279.48 232.77L279.07 228.29L278.71 223.78L278.38 219.24L278.08 214.68L277.82 210.09L277.6 205.48L277.41 200.84L277.26 196.19L277.14 191.52L277.05 186.83L277 182.13L276.99 177.41L277.01 172.68L277.06 167.94L277.15 163.19L277.28 158.42L277.44 153.66L277.63 148.88L277.86 144.11L278.12 139.33L278.42 134.55L278.74 129.76L279.11 124.98L279.51 120.21L279.94 115.44L280.4 110.67L280.9 105.91L281.43 101.17L282 96.43L282.6 91.7L283.23 86.99L283.89 82.29L284.59 77.61L285.32 72.94L286.09 68.3L286.89 63.67L286.89 63.64L286.9 63.6L286.9 63.57L286.91 63.53L286.91 63.5L286.92 63.46L286.92 63.43L286.93 63.39L286.93 63.36L286.94 63.32L286.94 63.29L286.95 63.25L286.95 63.22L286.96 63.18L286.96 63.15L286.97 63.11L286.97 63.08L286.98 63.04L286.99 63.01L286.99 62.97L287 62.94L287 62.9L287.01 62.87L287.02 62.83L287.02 62.8L287.03 62.76L287.04 62.73L287.04 62.69L287.05 62.66L287.06 62.62L287.06 62.59L287.07 62.55L287.08 62.52L287.09 62.48L287.09 62.45L287.1 62.42L287.11 62.38L287.12 62.35L287.12 62.31L287.13 62.28L287.34 61.11L287.55 59.94L287.77 58.77L287.99 57.6L288.2 56.43L288.43 55.27L288.65 54.11L288.87 52.95L289.1 51.79L289.33 50.63L289.56 49.47L289.8 48.32L290.03 47.17L290.27 46.01L290.51 44.87L290.75 43.72L291 42.57L291.24 41.43L291.49 40.29L291.74 39.15L292 38.01L292.25 36.88L292.51 35.74L292.77 34.61L293.03 33.48L293.29 32.35L293.56 31.23L293.82 30.1L294.09 28.98L294.36 27.86L294.64 26.75L294.91 25.63L295.19 24.52L295.47 23.41L295.75 22.3L296.04 21.2L296.32 20.09L296.61 18.99L296.9 17.89L297.19 16.8L297.29 16.45L297.4 16.12L297.51 15.78L297.63 15.45L297.76 15.12L297.9 14.8L298.05 14.48L298.21 14.17L298.37 13.86L298.54 13.56L298.72 13.26L298.9 12.97L299.1 12.68L299.3 12.4L299.5 12.12L299.72 11.85L299.94 11.59L300.17 11.33L300.4 11.07L300.64 10.83L300.89 10.59L301.14 10.35L301.4 10.12L301.67 9.9L301.94 9.69L302.21 9.48L302.5 9.28L302.78 9.09L303.08 8.9L303.37 8.72L303.68 8.55L303.99 8.39L304.3 8.24L304.62 8.09L304.94 7.95L305.26 7.82L305.6 7.7L305.93 7.58L306.27 7.48L306.61 7.38L307.99 7.02L309.38 6.66L310.79 6.32L312.21 5.98L313.65 5.66L315.1 5.34L316.57 5.03L318.05 4.73L319.54 4.44L321.05 4.16L322.57 3.89L324.11 3.63L325.66 3.37L327.23 3.13L328.81 2.89L330.4 2.67L332.01 2.45L333.63 2.24L335.27 2.04L336.92 1.85L338.58 1.67L340.25 1.5L341.94 1.34L343.65 1.19L345.36 1.04L347.09 0.91L348.84 0.78L350.59 0.67L352.36 0.56L354.15 0.46L355.94 0.38L357.75 0.3L359.57 0.23L361.41 0.17L363.26 0.12L365.12 0.07L366.99 0.04L368.88 0.02L370.78 0.01L372.69 0L375.74 0.01L378.82 0.05ZM280.77 277.11L278.3 277.29L275.83 277.48L273.35 277.69L270.86 277.91L268.37 278.14L265.87 278.39L263.37 278.64L260.86 278.92L258.35 279.2L255.84 279.5L253.32 279.82L250.8 280.14L248.28 280.48L245.75 280.83L243.23 281.2L240.7 281.57L238.18 281.96L235.65 282.37L233.13 282.78L230.61 283.21L228.09 283.65L225.57 284.1L223.05 284.57L220.54 285.04L218.03 285.53L215.53 286.04L213.03 286.55L210.54 287.07L208.05 287.61L205.57 288.16L203.09 288.72L200.62 289.29L198.16 289.87L195.71 290.47L193.27 291.08L190.83 291.69L188.41 292.32L186 292.96L181.31 294.25L176.62 295.58L171.95 296.96L167.28 298.38L162.63 299.86L157.99 301.37L153.37 302.94L148.77 304.54L144.2 306.18L139.64 307.86L135.12 309.58L130.63 311.34L126.17 313.13L121.75 314.96L117.37 316.82L113.03 318.71L108.74 320.62L104.49 322.57L100.29 324.55L96.14 326.55L92.05 328.57L88.02 330.62L84.05 332.69L80.13 334.78L76.29 336.89L72.51 339.02L68.81 341.17L65.18 343.33L61.62 345.5L58.14 347.69L54.75 349.88L51.43 352.09L48.21 354.31L45.07 356.53L42.03 358.76L39.08 360.99L36.23 363.23L33.48 365.46L30.83 367.7L28.29 369.94L28.44 370.46L28.59 370.97L28.73 371.49L28.88 372L29.03 372.52L29.19 373.04L29.34 373.55L29.49 374.07L29.64 374.59L29.8 375.11L29.95 375.62L30.11 376.14L30.26 376.66L30.42 377.18L30.57 377.7L30.73 378.21L30.89 378.73L31.05 379.25L31.21 379.77L31.37 380.29L31.53 380.81L31.69 381.33L31.85 381.85L32.02 382.37L32.18 382.89L32.34 383.41L32.51 383.93L32.67 384.45L32.84 384.97L33.01 385.49L33.17 386.01L33.34 386.53L33.51 387.05L33.68 387.57L33.85 388.09L34.02 388.62L34.19 389.14L34.36 389.66L34.53 390.18L34.71 390.7L35.24 390.3L35.77 389.9L36.32 389.49L36.86 389.08L37.42 388.66L37.98 388.24L38.55 387.82L39.12 387.39L39.7 386.96L40.29 386.52L40.88 386.09L41.48 385.65L42.08 385.2L42.69 384.76L43.3 384.31L43.91 383.86L44.53 383.41L45.16 382.96L45.79 382.5L46.42 382.04L47.06 381.58L47.7 381.12L48.35 380.66L49 380.19L49.65 379.73L50.31 379.26L50.97 378.79L51.64 378.32L52.3 377.86L52.97 377.39L53.65 376.92L54.32 376.45L55 375.98L55.68 375.51L56.36 375.04L57.04 374.57L57.73 374.1L58.42 373.63L59.11 373.16L59.8 372.69L60.26 372.39L60.73 372.12L61.21 371.86L61.69 371.63L62.18 371.42L62.67 371.22L63.17 371.05L63.67 370.9L64.18 370.77L64.68 370.66L65.19 370.57L65.71 370.5L66.22 370.45L66.73 370.42L67.25 370.41L67.76 370.42L68.27 370.45L68.78 370.5L69.29 370.57L69.79 370.66L70.29 370.76L70.79 370.89L71.28 371.04L71.76 371.2L72.24 371.38L72.71 371.58L73.18 371.8L73.64 372.04L74.09 372.3L74.52 372.57L74.96 372.86L75.37 373.17L75.78 373.5L76.18 373.85L76.57 374.21L76.94 374.59L77.3 374.99L77.65 375.4L77.98 375.83L78.29 376.28L78.59 376.74L78.87 377.21L79.12 377.69L79.36 378.17L79.57 378.66L79.76 379.15L79.93 379.65L80.08 380.15L80.21 380.66L80.32 381.17L80.41 381.68L80.48 382.19L80.53 382.7L80.56 383.22L80.57 383.73L80.56 384.24L80.53 384.75L80.48 385.26L80.41 385.77L80.32 386.27L80.22 386.77L80.09 387.27L79.95 387.76L79.78 388.24L79.6 388.72L79.4 389.2L79.18 389.66L78.94 390.12L78.68 390.57L78.41 391.01L78.12 391.44L77.81 391.86L77.48 392.27L77.13 392.66L76.77 393.05L76.39 393.42L75.99 393.78L75.58 394.13L75.15 394.46L74.7 394.78L73.81 395.38L72.92 395.98L72.03 396.59L71.15 397.2L70.26 397.81L69.39 398.42L68.51 399.03L67.64 399.64L66.78 400.25L65.92 400.86L65.06 401.46L64.21 402.07L63.37 402.68L62.53 403.28L61.7 403.88L60.87 404.47L60.06 405.07L59.25 405.66L58.45 406.24L57.65 406.83L56.87 407.4L56.1 407.98L55.33 408.54L54.58 409.1L53.83 409.66L53.1 410.21L52.37 410.75L51.66 411.29L50.96 411.81L50.27 412.33L49.6 412.85L48.94 413.35L48.29 413.85L47.65 414.33L47.03 414.81L46.42 415.27L45.83 415.73L45.25 416.18L44.69 416.61L44.14 417.03L45.62 420.83L47.13 424.62L48.66 428.41L50.23 432.2L51.81 435.98L53.43 439.76L55.08 443.53L56.74 447.29L58.44 451.05L60.16 454.8L61.91 458.53L63.68 462.26L65.47 465.98L67.29 469.68L69.13 473.37L70.99 477.05L72.88 480.71L74.79 484.36L76.72 487.99L78.67 491.6L80.64 495.2L82.63 498.77L84.64 502.33L86.67 505.86L88.72 509.38L90.79 512.87L92.87 516.33L94.97 519.77L97.09 523.19L99.23 526.58L101.39 529.94L103.56 533.27L105.74 536.58L107.94 539.86L110.16 543.1L112.38 546.31L114.63 549.49L116.88 552.64L119.15 555.76L121.43 558.83L124.93 563.45L128.44 567.96L131.95 572.36L135.48 576.66L139.01 580.85L142.55 584.93L146.09 588.91L149.64 592.77L153.2 596.53L156.75 600.17L160.32 603.71L163.88 607.13L167.44 610.44L171 613.64L174.57 616.73L178.13 619.7L181.69 622.56L185.24 625.3L188.79 627.93L192.34 630.44L195.88 632.83L199.42 635.11L202.94 637.27L206.46 639.31L209.97 641.23L213.47 643.03L216.95 644.71L220.43 646.27L223.89 647.71L227.34 649.03L230.77 650.22L234.19 651.3L237.6 652.24L240.98 653.07L244.35 653.76L247.7 654.34L251.03 654.78L254.34 655.1L257.63 655.29L260.9 655.36L261.44 655.36L261.98 655.35L262.53 655.34L263.07 655.33L263.61 655.31L264.15 655.29L264.7 655.27L265.24 655.25L265.78 655.21L266.32 655.18L266.86 655.14L267.41 655.1L267.95 655.06L268.49 655.01L269.03 654.96L269.57 654.9L270.1 654.85L270.64 654.78L271.18 654.72L271.72 654.65L272.26 654.58L272.79 654.5L273.33 654.42L273.86 654.34L274.4 654.25L274.93 654.16L275.47 654.07L276 653.97L276.53 653.87L277.07 653.77L277.6 653.66L278.13 653.55L278.66 653.44L279.19 653.32L279.71 653.2L280.24 653.07L280.77 652.94L281.29 652.81L281.82 652.68L282.34 652.54L287.63 650.93L292.75 648.99L297.69 646.73L302.47 644.16L307.07 641.29L311.51 638.12L315.79 634.67L319.91 630.95L323.86 626.96L327.66 622.72L331.31 618.23L334.8 613.51L338.14 608.56L341.33 603.4L344.37 598.02L347.27 592.45L350.02 586.69L352.63 580.75L355.11 574.64L357.44 568.38L359.64 561.96L361.71 555.4L363.65 548.7L365.45 541.89L367.13 534.96L368.69 527.93L370.12 520.8L371.43 513.59L372.62 506.3L373.7 498.95L374.66 491.54L375.5 484.09L376.24 476.6L376.86 469.08L377.38 461.54L377.8 453.99L378.11 446.44L378.32 438.9L378.43 431.38L378.44 423.89L378.43 423.89L378.41 423.88L378.39 423.87L378.36 423.86L378.35 423.85L378.33 423.84L378.31 423.83L378.27 423.82L378.26 423.81L378.25 423.81L378.24 423.8L378.14 423.76L378.11 423.74L378.09 423.73L378.08 423.73L378.05 423.72L378.04 423.71L378.02 423.7L378 423.7L377.91 423.66L377.82 423.62L377.73 423.58L377.63 423.54L377.54 423.5L377.45 423.46L377.36 423.42L377.27 423.38L377.18 423.34L377.09 423.3L377 423.26L376.91 423.22L376.82 423.18L376.73 423.14L376.63 423.1L376.54 423.06L376.45 423.02L376.36 422.98L376.27 422.94L376.18 422.9L376.09 422.85L376 422.81L375.91 422.77L375.82 422.73L375.73 422.69L375.64 422.65L375.55 422.61L375.46 422.57L375.37 422.52L375.28 422.48L375.19 422.44L375.1 422.4L375.01 422.36L374.92 422.32L374.83 422.27L374.74 422.23L374.65 422.19L374.56 422.15L374.47 422.1L374.38 422.06L374.35 422.05L374.3 422.02L374.25 422L374.22 421.99L374.2 421.98L374.17 421.96L374.12 421.94L374.06 421.91L374.01 421.89L373.99 421.88L373.93 421.85L373.88 421.83L373.86 421.82L373.8 421.79L373.75 421.77L373.73 421.75L373.67 421.73L373.65 421.71L373.6 421.69L373.57 421.68L373.52 421.65L373.49 421.64L373.47 421.63L373.42 421.6L373.39 421.59L373.34 421.56L373.24 421.52L373.15 421.47L373.06 421.43L372.96 421.38L372.87 421.34L372.78 421.29L372.69 421.25L372.59 421.2L372.5 421.15L372.41 421.11L372.31 421.06L372.22 421.02L372.13 420.97L372.03 420.92L371.94 420.88L371.85 420.83L371.76 420.79L371.66 420.74L371.57 420.69L371.48 420.65L371.38 420.6L371.29 420.55L371.2 420.5L371.11 420.46L371.01 420.41L370.92 420.36L370.83 420.32L370.74 420.27L370.65 420.22L370.55 420.17L370.46 420.13L370.37 420.08L370.28 420.03L370.18 419.98L370.09 419.93L370 419.89L369.91 419.84L369.82 419.79L369.72 419.74L369.62 419.69L369.6 419.68L369.59 419.67L369.57 419.66L369.54 419.65L369.51 419.63L369.49 419.61L369.47 419.61L369.46 419.6L369.44 419.59L369.41 419.57L369.38 419.56L369.35 419.54L369.33 419.53L369.28 419.5L369.27 419.49L369.25 419.49L369.24 419.48L369.19 419.45L369.14 419.42L369.09 419.4L369.05 419.37L368.7 419.18L368.35 418.99L368 418.8L367.65 418.61L367.31 418.41L366.96 418.22L366.61 418.02L366.27 417.82L365.92 417.62L365.58 417.42L365.23 417.22L364.89 417.02L364.55 416.81L364.21 416.61L363.86 416.4L363.52 416.19L363.18 415.98L362.84 415.77L362.5 415.56L362.16 415.34L361.83 415.13L361.49 414.91L361.15 414.69L360.82 414.48L360.48 414.26L360.14 414.03L359.81 413.81L359.48 413.59L359.14 413.36L358.81 413.13L358.48 412.9L358.15 412.67L357.82 412.44L357.49 412.21L357.16 411.98L356.83 411.74L356.5 411.5L356.17 411.27L355.84 411.03L355.52 410.79L354.53 411.93L353.51 413.06L352.48 414.15L351.42 415.23L350.34 416.28L349.24 417.31L348.12 418.31L346.97 419.28L345.81 420.23L344.63 421.16L343.43 422.05L342.21 422.93L340.97 423.77L339.71 424.59L338.44 425.38L337.15 426.14L335.85 426.88L334.53 427.59L333.19 428.26L331.84 428.91L330.47 429.54L329.1 430.13L327.71 430.69L326.3 431.22L324.89 431.72L323.46 432.2L322.02 432.64L320.57 433.05L319.11 433.43L317.64 433.78L316.16 434.09L314.67 434.38L313.18 434.63L311.67 434.85L310.16 435.03L308.64 435.19L307.12 435.31L305.59 435.39L304.05 435.44L302.51 435.46L300.66 435.43L298.82 435.36L296.99 435.24L295.17 435.07L293.35 434.85L291.55 434.58L289.75 434.27L287.97 433.91L286.21 433.5L284.45 433.05L282.72 432.55L280.99 432.01L279.29 431.43L277.6 430.8L275.93 430.13L274.27 429.42L272.64 428.66L271.03 427.87L269.44 427.03L267.87 426.15L266.33 425.23L264.8 424.27L263.31 423.27L261.84 422.24L260.39 421.16L258.98 420.05L257.59 418.9L256.23 417.72L254.9 416.5L253.6 415.24L252.33 413.95L251.1 412.62L249.9 411.26L248.73 409.86L247.6 408.43L246.5 406.97L245.44 405.48L244.42 403.95L243.43 402.39L242.49 400.81L242.22 400.32L241.98 399.84L241.76 399.34L241.56 398.85L241.38 398.35L241.22 397.84L241.08 397.33L240.97 396.82L240.87 396.31L240.8 395.79L240.75 395.28L240.71 394.76L240.7 394.24L240.71 393.73L240.73 393.22L240.78 392.71L240.84 392.2L240.93 391.69L241.03 391.19L241.15 390.7L241.3 390.21L241.46 389.72L241.64 389.24L241.83 388.77L242.05 388.3L242.28 387.85L242.53 387.4L242.8 386.96L243.09 386.53L243.39 386.11L243.72 385.7L244.05 385.3L244.41 384.92L244.78 384.55L245.17 384.19L245.58 383.84L246 383.51L246.44 383.19L246.89 382.89L247.36 382.61L247.84 382.35L248.33 382.1L248.82 381.88L249.32 381.68L249.82 381.5L250.33 381.35L250.84 381.21L251.35 381.09L251.86 381L252.38 380.92L252.89 380.87L253.41 380.84L253.92 380.82L254.44 380.83L254.95 380.86L255.46 380.9L255.97 380.97L256.47 381.05L256.97 381.16L257.47 381.28L257.96 381.42L258.45 381.58L258.93 381.76L259.4 381.96L259.86 382.17L260.32 382.41L260.77 382.66L261.21 382.93L261.64 383.22L262.06 383.52L262.47 383.84L262.86 384.18L263.25 384.54L263.62 384.91L263.98 385.3L264.33 385.7L264.66 386.12L264.97 386.56L265.27 387.02L265.56 387.49L266.14 388.46L266.75 389.42L267.38 390.36L268.03 391.28L268.7 392.18L269.4 393.06L270.12 393.92L270.86 394.76L271.62 395.57L272.4 396.37L273.2 397.14L274.02 397.9L274.85 398.63L275.71 399.33L276.58 400.02L277.47 400.68L278.38 401.32L279.3 401.93L280.23 402.52L281.18 403.09L282.15 403.63L283.13 404.14L284.12 404.63L285.13 405.1L286.14 405.54L287.17 405.95L288.21 406.34L289.26 406.7L290.32 407.03L291.39 407.34L292.47 407.61L293.56 407.86L294.66 408.09L295.76 408.28L296.87 408.44L297.99 408.58L299.11 408.68L300.24 408.76L301.37 408.8L302.51 408.82L303.49 408.81L304.47 408.77L305.44 408.72L306.41 408.64L307.37 408.54L308.33 408.42L309.29 408.27L310.24 408.11L311.18 407.92L312.12 407.71L313.05 407.49L313.98 407.24L314.9 406.97L315.81 406.68L316.71 406.37L317.61 406.04L318.5 405.69L319.38 405.32L320.25 404.93L321.11 404.53L321.96 404.1L322.8 403.66L323.63 403.19L324.46 402.71L325.27 402.21L326.07 401.7L326.85 401.16L327.63 400.61L328.39 400.04L329.15 399.45L329.89 398.85L330.61 398.23L331.32 397.59L332.02 396.93L332.71 396.26L333.38 395.58L334.03 394.88L334.68 394.16L335.3 393.43L335.91 392.68L335.77 392.52L335.64 392.37L335.5 392.21L335.36 392.06L335.23 391.9L335.09 391.74L334.95 391.59L334.82 391.43L334.68 391.27L334.54 391.12L334.41 390.96L334.27 390.8L334.14 390.64L334 390.48L333.87 390.33L333.73 390.17L333.6 390.01L333.46 389.85L333.33 389.69L333.19 389.53L333.06 389.37L332.92 389.21L332.79 389.05L332.66 388.88L332.52 388.72L332.39 388.56L332.25 388.4L332.12 388.24L331.99 388.07L331.86 387.91L331.72 387.75L331.59 387.58L331.46 387.42L331.33 387.25L331.19 387.09L331.06 386.93L330.93 386.76L330.8 386.59L330.67 386.43L330.54 386.26L330.51 386.23L330.48 386.2L330.47 386.18L330.45 386.15L330.42 386.12L330.39 386.08L330.36 386.04L330.33 386.01L330.3 385.97L330.28 385.94L330.24 385.9L330.17 385.81L330.11 385.73L330.04 385.64L329.97 385.56L329.91 385.47L329.84 385.38L329.77 385.3L329.71 385.21L329.64 385.13L329.57 385.04L329.51 384.95L329.44 384.87L329.38 384.78L329.31 384.69L329.24 384.61L329.18 384.52L329.11 384.43L329.05 384.34L328.98 384.26L328.91 384.17L328.85 384.08L328.78 383.99L328.72 383.91L328.65 383.82L328.59 383.73L328.52 383.64L328.45 383.56L328.39 383.47L328.32 383.38L328.26 383.29L328.19 383.21L328.13 383.12L328.06 383.03L327.99 382.94L327.93 382.85L327.86 382.77L327.8 382.68L327.73 382.59L327.67 382.5L327.6 382.41L327.58 382.38L327.55 382.34L327.5 382.28L327.47 382.24L327.42 382.17L327.4 382.14L327.35 382.07L327.32 382.04L327.25 381.93L327.17 381.83L327.14 381.8L327.09 381.73L327.04 381.66L327.02 381.63L326.99 381.59L326.94 381.52L326.92 381.49L326.89 381.46L326.87 381.42L326.84 381.39L326.81 381.35L326.79 381.32L326.76 381.28L326.74 381.25L326.71 381.21L326.69 381.18L326.66 381.14L326.64 381.11L326.61 381.07L326.59 381.04L326.53 380.96L326.47 380.87L326.41 380.79L326.35 380.7L326.28 380.62L326.22 380.54L326.16 380.45L326.1 380.37L326.04 380.28L325.98 380.2L325.92 380.12L325.86 380.03L325.8 379.95L325.74 379.86L325.69 379.78L325.63 379.69L325.57 379.61L325.51 379.52L325.45 379.44L325.39 379.35L325.33 379.27L325.27 379.18L325.21 379.1L325.15 379.01L325.09 378.93L325.03 378.84L324.97 378.76L324.91 378.67L324.85 378.59L324.79 378.5L324.73 378.42L324.67 378.33L324.61 378.25L324.55 378.16L324.49 378.08L324.44 377.99L324.38 377.9L324.32 377.82L324.26 377.73L324.2 377.65L324.14 377.56L324.06 377.44L324 377.36L323.92 377.23L323.83 377.11L323.75 376.98L323.69 376.9L323.64 376.82L323.61 376.78L323.55 376.69L323.52 376.65L323.47 376.57L323.44 376.53L323.38 376.44L323.33 376.36L323.3 376.32L323.24 376.24L323.19 376.15L323.13 376.07L323.07 375.99L323.02 375.9L322.96 375.81L322.9 375.73L322.84 375.64L322.79 375.56L322.73 375.47L322.67 375.38L322.61 375.3L322.56 375.21L322.5 375.12L322.44 375.04L322.38 374.95L322.33 374.86L322.27 374.78L322.21 374.69L322.15 374.6L322.1 374.52L322.04 374.43L321.98 374.34L321.93 374.25L321.87 374.17L321.81 374.08L321.76 373.99L321.7 373.9L321.64 373.82L321.58 373.73L321.53 373.64L321.47 373.55L321.41 373.47L321.36 373.38L321.3 373.29L321.24 373.2L321.19 373.11L321.13 373.03L321.07 372.94L321.02 372.85L320.96 372.76L320.9 372.67L320.85 372.58L320.79 372.5L320.74 372.41L320.71 372.37L320.66 372.29L320.61 372.2L320.55 372.12L320.53 372.08L320.48 371.99L320.45 371.95L320.4 371.87L320.37 371.82L320.32 371.74L320.27 371.66L320.21 371.57L320.14 371.45L320.06 371.32L320.03 371.28L319.95 371.15L319.88 371.03L319.74 370.81L319.7 370.75L319.66 370.68L319.62 370.62L319.58 370.55L319.54 370.49L319.5 370.42L319.46 370.36L319.42 370.3L319.38 370.23L319.34 370.17L319.3 370.1L319.26 370.04L319.21 369.97L319.09 369.78L319.05 369.71L319.01 369.65L318.97 369.58L318.93 369.52L318.89 369.45L318.85 369.39L318.81 369.33L318.77 369.26L318.73 369.2L318.68 369.13L318.64 369.07L318.6 369L318.56 368.94L318.52 368.87L318.48 368.81L318.44 368.74L318.4 368.67L318.36 368.61L318.32 368.54L318.28 368.48L318.24 368.41L318.2 368.35L318.16 368.28L318.12 368.21L318.1 368.18L318.08 368.15L318.06 368.12L318.04 368.09L318.03 368.05L318.01 368.02L317.99 367.99L317.97 367.96L317.95 367.93L317.93 367.89L317.91 367.86L317.89 367.83L317.88 367.8L317.86 367.76L317.84 367.73L317.82 367.7L317.8 367.67L317.78 367.64L317.75 367.57L317.67 367.44L317.65 367.41L317.62 367.34L317.6 367.31L317.58 367.28L317.56 367.25L317.54 367.21L317.53 367.18L317.51 367.15L317.49 367.12L317.47 367.09L317.45 367.05L317.43 367.02L317.41 366.99L317.4 366.96L317.38 366.93L317.38 366.93L317.37 366.91L317.37 366.91L317.36 366.89L317.35 366.88L317.34 366.87L317.34 366.86L317.33 366.85L317.32 366.83L317.3 366.8L317.28 366.76L317.27 366.74L317.25 366.71L317.24 366.69L317.21 366.64L317.19 366.6L317.16 366.55L316.83 365.99L316.51 365.43L316.19 364.87L315.87 364.3L315.55 363.74L315.23 363.17L314.91 362.6L314.6 362.03L314.28 361.45L313.97 360.88L313.66 360.3L313.35 359.72L313.04 359.13L312.73 358.55L312.42 357.96L312.12 357.37L311.81 356.78L311.51 356.19L311.21 355.59L310.91 354.99L310.61 354.39L310.31 353.79L310.01 353.19L309.72 352.58L309.42 351.97L309.13 351.36L308.84 350.75L308.55 350.13L308.26 349.52L307.97 348.9L307.68 348.28L307.4 347.65L307.11 347.03L306.83 346.4L306.55 345.77L306.27 345.14L305.99 344.51L305.71 343.87L305.44 343.24L305.16 342.6L305.15 342.58L305.14 342.55L305.13 342.54L305.13 342.54L305.13 342.53L305.13 342.52L305.12 342.52L305.12 342.51L305.1 342.47L305.09 342.45L305.09 342.43L305.07 342.41L305.06 342.38L305.05 342.36L305.05 342.35L305.04 342.33L304.99 342.2L304.93 342.08L304.88 341.95L304.83 341.82L304.77 341.7L304.72 341.57L304.67 341.45L304.61 341.32L304.56 341.2L304.51 341.07L304.45 340.94L304.4 340.82L304.35 340.69L304.3 340.56L304.24 340.44L304.19 340.31L304.14 340.18L304.08 340.06L304.03 339.93L303.98 339.8L303.93 339.68L303.87 339.55L303.82 339.42L303.77 339.29L303.72 339.17L303.66 339.04L303.61 338.91L303.56 338.78L303.51 338.66L303.46 338.53L303.4 338.4L303.35 338.27L303.3 338.14L303.25 338.01L303.2 337.89L303.14 337.76L303.09 337.63L303.04 337.5L302.99 337.37L302.94 337.24L302.93 337.22L302.92 337.21L302.91 337.19L302.9 337.16L302.9 337.14L302.89 337.13L302.88 337.1L302.86 337.04L302.84 337L302.3 335.65L301.78 334.3L301.25 332.94L300.73 331.57L300.22 330.19L299.71 328.81L299.21 327.41L298.71 326.01L298.22 324.6L297.74 323.18L297.25 321.75L296.78 320.32L296.31 318.87L295.84 317.42L295.39 315.96L294.93 314.49L294.48 313.01L294.04 311.53L293.6 310.03L293.17 308.53L292.74 307.02L292.32 305.5L291.91 303.98L291.49 302.44L291.09 300.9L290.69 299.35L290.3 297.79L289.91 296.23L289.52 294.65L289.15 293.07L288.77 291.48L288.41 289.88L288.05 288.27L287.69 286.65L287.34 285.03L287 283.4L286.66 281.76L286.32 280.11L286 278.46L285.67 276.8L283.22 276.95L280.77 277.11ZM369.74 26.65L368.28 26.67L366.83 26.69L365.39 26.71L363.95 26.75L362.53 26.79L361.12 26.83L359.71 26.88L358.32 26.94L356.93 27L355.55 27.07L354.19 27.14L352.83 27.22L351.48 27.3L350.14 27.4L348.81 27.49L347.49 27.59L346.18 27.7L344.88 27.82L343.59 27.94L342.31 28.06L341.04 28.2L339.78 28.33L338.52 28.48L337.28 28.63L336.05 28.78L334.83 28.94L333.62 29.11L332.41 29.28L331.22 29.46L330.04 29.65L328.87 29.84L327.71 30.03L326.55 30.23L325.41 30.44L324.28 30.65L323.16 30.87L322.05 31.1L320.95 31.33L320.83 31.78L320.72 32.23L320.61 32.67L320.5 33.12L320.39 33.57L320.28 34.02L320.17 34.47L320.06 34.92L319.95 35.37L319.84 35.83L319.74 36.28L319.63 36.73L319.52 37.18L319.41 37.63L319.31 38.09L319.2 38.54L319.1 38.99L318.99 39.45L318.88 39.9L318.78 40.36L318.68 40.81L318.57 41.27L318.47 41.73L318.36 42.18L318.26 42.64L318.16 43.1L318.06 43.55L317.95 44.01L317.85 44.47L317.75 44.93L317.65 45.38L317.55 45.84L317.45 46.3L317.35 46.76L317.25 47.22L317.15 47.68L317.05 48.14L316.95 48.6L316.86 49.06L316.76 49.52L317.41 49.44L318.08 49.36L318.75 49.28L319.43 49.2L320.12 49.12L320.82 49.03L321.52 48.95L322.23 48.87L322.94 48.79L323.66 48.7L324.39 48.62L325.12 48.54L325.86 48.46L326.61 48.38L327.36 48.29L328.12 48.21L328.88 48.13L329.64 48.05L330.41 47.97L331.19 47.89L331.97 47.81L332.75 47.74L333.54 47.66L334.33 47.58L335.13 47.51L335.93 47.43L336.73 47.36L337.54 47.28L338.35 47.21L339.16 47.14L339.97 47.07L340.79 47L341.6 46.93L342.43 46.86L343.25 46.8L344.07 46.73L344.9 46.67L345.72 46.61L346.55 46.55L347.38 46.49L347.93 46.46L348.48 46.46L349.02 46.47L349.55 46.51L350.09 46.57L350.61 46.65L351.13 46.75L351.64 46.87L352.14 47.01L352.64 47.16L353.13 47.34L353.6 47.54L354.07 47.75L354.53 47.98L354.98 48.23L355.42 48.5L355.85 48.78L356.26 49.08L356.67 49.39L357.06 49.72L357.44 50.06L357.81 50.42L358.16 50.79L358.49 51.18L358.82 51.57L359.13 51.98L359.42 52.41L359.69 52.84L359.95 53.29L360.2 53.75L360.42 54.22L360.63 54.7L360.82 55.18L360.99 55.68L361.14 56.19L361.27 56.71L361.39 57.23L361.48 57.76L361.55 58.3L361.6 58.85L361.63 59.4L361.63 59.94L361.61 60.48L361.58 61.02L361.52 61.55L361.44 62.07L361.34 62.59L361.22 63.1L361.08 63.6L360.92 64.09L360.74 64.58L360.54 65.06L360.33 65.53L360.1 65.99L359.85 66.44L359.58 66.88L359.3 67.3L359.01 67.72L358.69 68.12L358.36 68.52L358.02 68.9L357.66 69.26L357.29 69.61L356.91 69.95L356.51 70.28L356.1 70.59L355.68 70.88L355.24 71.16L354.8 71.42L354.34 71.66L353.87 71.89L353.39 72.09L352.91 72.28L352.41 72.46L351.9 72.61L351.38 72.74L350.86 72.85L350.33 72.94L349.79 73.02L349.24 73.06L348.17 73.14L347.09 73.22L346.02 73.3L344.94 73.39L343.87 73.47L342.81 73.56L341.74 73.65L340.68 73.75L339.63 73.84L338.58 73.94L337.53 74.04L336.49 74.14L335.45 74.24L334.43 74.34L333.41 74.45L332.39 74.55L331.39 74.66L330.39 74.77L329.4 74.87L328.43 74.98L327.46 75.09L326.5 75.2L325.56 75.31L324.62 75.42L323.7 75.53L322.79 75.63L321.89 75.74L321.01 75.85L320.14 75.96L319.28 76.07L318.44 76.17L317.62 76.28L316.81 76.38L316.01 76.48L315.24 76.59L314.48 76.69L313.74 76.78L313.02 76.88L312.31 76.98L311.63 77.07L310.91 81.62L310.23 86.19L309.58 90.77L308.96 95.37L308.38 99.98L307.82 104.6L307.31 109.23L306.82 113.87L306.37 118.52L305.95 123.18L305.57 127.84L305.22 132.5L304.9 137.16L304.62 141.82L304.37 146.48L304.16 151.14L303.98 155.79L303.83 160.44L303.72 165.08L303.64 169.71L303.6 174.33L303.59 178.94L303.62 183.53L303.68 188.11L303.77 192.67L303.91 197.22L304.07 201.74L304.27 206.25L304.51 210.73L304.78 215.19L305.09 219.62L305.43 224.02L305.81 228.4L306.22 232.75L306.67 237.07L307.15 241.35L307.67 245.6L308.23 249.81L308.82 253.99L309.45 258.13L309.46 258.19L309.47 258.25L309.49 258.37L309.5 258.42L309.51 258.48L309.52 258.54L309.53 258.6L309.55 258.72L309.56 258.78L309.57 258.84L309.58 258.9L309.59 258.96L309.59 259.02L309.6 259.08L309.61 259.14L309.62 259.2L309.64 259.32L309.66 259.44L309.69 259.62L309.74 259.92L309.77 260.1L309.79 260.22L309.82 260.4L309.84 260.52L309.84 260.53L309.84 260.55L309.85 260.56L309.85 260.57L309.86 260.6L309.86 260.63L309.87 260.67L309.88 260.7L309.88 260.71L309.88 260.73L309.89 260.75L309.89 260.77L309.89 260.78L309.9 260.79L309.9 260.81L309.9 260.81L310.48 264.23L311.1 267.76L311.79 271.4L312.53 275.14L313.33 278.96L314.19 282.87L315.12 286.85L316.11 290.89L317.17 294.99L318.3 299.13L319.5 303.32L320.78 307.53L322.14 311.76L323.57 316L325.09 320.24L326.69 324.48L328.37 328.7L330.14 332.91L332 337.07L333.96 341.2L336.01 345.28L338.15 349.3L340.4 353.26L342.74 357.14L345.19 360.93L347.74 364.64L350.4 368.24L353.17 371.73L356.05 375.11L359.04 378.35L362.16 381.47L365.38 384.43L368.73 387.25L372.2 389.9L375.8 392.38L379.52 394.68L383.38 396.79L387.36 398.71L391.48 400.43L395.73 401.92L395.73 401.93L395.75 401.93L395.75 401.93L395.75 401.93L395.77 401.94L395.8 401.95L395.82 401.96L395.82 401.96L395.83 401.96L395.84 401.97L395.94 402L396.03 402.03L396.12 402.06L396.22 402.09L396.31 402.12L396.41 402.15L396.5 402.18L396.6 402.21L396.69 402.24L396.79 402.27L396.88 402.3L396.97 402.33L397.07 402.35L397.16 402.38L397.26 402.41L397.35 402.44L397.45 402.47L397.54 402.5L397.64 402.53L397.74 402.56L397.83 402.59L397.93 402.61L398.02 402.64L398.12 402.67L398.21 402.7L398.31 402.73L398.4 402.75L398.5 402.78L398.6 402.81L398.69 402.84L398.79 402.86L398.88 402.89L398.98 402.92L399.08 402.94L399.17 402.97L399.27 403L399.37 403.02L399.46 403.05L399.56 403.07L399.66 403.1L400.18 403.24L400.7 403.37L401.23 403.51L401.76 403.63L402.28 403.76L402.81 403.88L403.34 404L403.87 404.11L404.4 404.22L404.93 404.33L405.47 404.44L406 404.54L406.53 404.63L407.06 404.73L407.6 404.82L408.13 404.9L408.67 404.99L409.21 405.06L409.74 405.14L410.28 405.21L410.82 405.28L411.36 405.35L411.89 405.41L412.43 405.47L412.97 405.52L413.51 405.57L414.05 405.62L414.59 405.67L415.14 405.71L415.68 405.74L416.22 405.78L416.76 405.81L417.3 405.83L417.84 405.86L418.39 405.88L418.93 405.89L419.47 405.9L420.02 405.91L420.56 405.92L421.1 405.92L424.37 405.86L427.66 405.66L430.97 405.34L434.3 404.9L437.65 404.33L441.01 403.63L444.4 402.8L447.8 401.86L451.22 400.79L454.66 399.59L458.11 398.27L461.57 396.83L465.04 395.27L468.53 393.59L472.03 391.79L475.54 389.87L479.05 387.83L482.58 385.67L486.11 383.39L489.65 381L493.2 378.49L496.75 375.86L500.31 373.12L503.87 370.26L507.43 367.29L510.99 364.2L514.55 361L518.12 357.69L521.68 354.27L525.24 350.73L528.8 347.09L532.35 343.33L535.9 339.47L539.45 335.49L542.99 331.41L546.52 327.22L550.04 322.92L553.56 318.52L557.06 314.01L560.56 309.39L563.55 305.35L566.52 301.24L569.47 297.08L572.39 292.86L575.29 288.58L578.16 284.26L581.01 279.88L583.83 275.46L586.62 270.99L589.38 266.48L592.11 261.92L594.81 257.33L597.47 252.7L600.1 248.03L602.7 243.32L605.27 238.59L607.8 233.82L610.29 229.03L612.74 224.21L615.15 219.36L617.52 214.5L619.86 209.61L622.15 204.71L624.39 199.79L626.6 194.85L628.75 189.91L630.87 184.95L632.93 179.99L634.95 175.01L636.92 170.04L638.84 165.06L640.7 160.09L642.52 155.11L644.29 150.14L646 145.17L647.65 140.22L649.25 135.27L650.8 130.33L652.28 125.41L653.71 120.5L651.17 118.26L648.52 116.03L645.77 113.79L642.92 111.55L639.97 109.32L636.92 107.09L633.79 104.87L630.56 102.65L627.25 100.45L623.86 98.25L620.38 96.06L616.82 93.89L613.19 91.73L609.49 89.59L605.71 87.46L601.86 85.35L597.95 83.26L593.98 81.19L589.95 79.14L585.86 77.11L581.71 75.11L577.51 73.14L573.26 71.19L568.97 69.27L564.63 67.38L560.25 65.52L555.82 63.7L551.37 61.9L546.88 60.15L542.35 58.43L537.8 56.74L533.23 55.1L528.63 53.5L524.01 51.94L519.37 50.42L514.72 48.95L510.05 47.52L505.37 46.14L500.69 44.81L496 43.53L492.99 42.73L489.96 41.95L486.92 41.19L483.86 40.45L480.78 39.72L477.69 39.01L474.59 38.32L471.48 37.65L468.36 37L465.23 36.36L462.1 35.74L458.96 35.15L455.81 34.57L452.65 34.01L449.5 33.47L446.34 32.95L443.18 32.45L440.02 31.96L436.86 31.5L433.71 31.06L430.55 30.64L427.4 30.24L424.26 29.86L421.12 29.49L417.99 29.15L414.87 28.84L411.76 28.54L408.66 28.26L405.57 28L402.5 27.77L399.43 27.56L396.39 27.37L393.36 27.2L390.34 27.05L387.35 26.93L384.37 26.82L381.42 26.74L378.49 26.69L375.57 26.65L372.69 26.64L371.21 26.64L369.74 26.65Z" id="e1di1gTtKj"></path><path d="M537.88 171.94L539.72 172.06L541.54 172.23L543.36 172.45L545.16 172.72L546.95 173.03L548.73 173.39L550.5 173.8L552.25 174.25L553.99 174.74L555.72 175.28L557.42 175.87L559.11 176.5L560.78 177.17L562.44 177.88L564.07 178.64L565.68 179.43L567.27 180.27L568.84 181.15L570.38 182.07L571.91 183.03L573.4 184.02L574.87 185.06L576.32 186.13L577.73 187.25L579.12 188.4L580.48 189.58L581.81 190.8L583.11 192.06L584.38 193.35L585.61 194.68L586.81 196.04L587.98 197.44L589.12 198.87L590.21 200.33L591.27 201.82L592.3 203.35L593.28 204.91L594.23 206.5L594.49 206.98L594.73 207.46L594.96 207.96L595.16 208.45L595.33 208.96L595.49 209.46L595.63 209.97L595.74 210.48L595.84 210.99L595.91 211.51L595.97 212.02L596 212.54L596.01 213.06L596.01 213.57L595.98 214.08L595.93 214.59L595.87 215.1L595.78 215.61L595.68 216.11L595.56 216.6L595.41 217.09L595.25 217.58L595.07 218.06L594.88 218.53L594.66 219L594.43 219.45L594.18 219.9L593.91 220.34L593.62 220.77L593.32 221.19L592.99 221.6L592.66 222L592.3 222.38L591.93 222.76L591.54 223.12L591.13 223.46L590.71 223.79L590.27 224.11L589.82 224.41L589.35 224.69L589.19 224.78L589.03 224.87L588.87 224.95L588.71 225.04L588.55 225.12L588.39 225.19L588.23 225.27L588.07 225.34L587.91 225.41L587.74 225.48L587.58 225.55L587.41 225.61L587.25 225.67L587.08 225.73L586.92 225.79L586.75 225.84L586.59 225.89L586.42 225.94L586.25 225.99L586.08 226.04L585.92 226.08L585.75 226.12L585.58 226.16L585.41 226.2L585.24 226.23L585.07 226.26L584.9 226.29L584.74 226.32L584.57 226.34L584.4 226.37L584.23 226.39L584.06 226.41L583.89 226.42L583.72 226.44L583.55 226.45L583.38 226.46L583.21 226.47L583.04 226.47L582.87 226.48L582.7 226.48L582.36 226.47L582.01 226.46L581.67 226.44L581.32 226.41L580.98 226.37L580.64 226.32L580.3 226.26L579.97 226.19L579.63 226.12L579.3 226.04L578.97 225.95L578.64 225.85L578.32 225.74L577.99 225.62L577.67 225.5L577.36 225.36L577.04 225.22L576.73 225.07L576.43 224.91L576.13 224.75L575.83 224.57L575.53 224.39L575.24 224.2L574.96 224.01L574.68 223.8L574.4 223.59L574.13 223.37L573.87 223.14L573.61 222.9L573.35 222.66L573.1 222.41L572.86 222.15L572.62 221.88L572.39 221.61L572.17 221.33L571.95 221.04L571.74 220.75L571.54 220.44L571.34 220.13L571.15 219.82L570.57 218.84L569.97 217.88L569.34 216.94L568.68 216.02L568.01 215.12L567.31 214.24L566.59 213.38L565.85 212.54L565.09 211.72L564.31 210.93L563.51 210.15L562.69 209.4L561.85 208.67L561 207.96L560.13 207.28L559.24 206.62L558.33 205.98L557.41 205.37L556.48 204.78L555.52 204.21L554.56 203.67L553.58 203.15L552.59 202.66L551.58 202.2L550.56 201.76L549.54 201.35L548.5 200.96L547.44 200.6L546.38 200.27L545.31 199.96L544.23 199.68L543.15 199.43L542.05 199.21L540.95 199.02L539.84 198.85L538.72 198.72L537.6 198.61L536.47 198.54L535.33 198.49L534.2 198.48L533.06 198.49L531.93 198.54L530.8 198.61L529.67 198.72L528.56 198.85L527.45 199.02L526.34 199.21L525.25 199.43L524.16 199.68L523.08 199.96L522.01 200.27L520.95 200.6L519.9 200.96L518.86 201.35L517.83 201.76L516.81 202.2L515.81 202.66L514.82 203.15L513.84 203.67L512.87 204.21L511.92 204.78L510.98 205.37L510.06 205.98L509.16 206.62L508.27 207.28L507.39 207.96L506.54 208.67L505.7 209.4L504.88 210.15L504.08 210.93L503.3 211.72L502.54 212.54L501.8 213.38L501.09 214.24L500.39 215.12L499.71 216.02L499.06 216.94L498.43 217.88L497.82 218.84L497.24 219.82L496.96 220.29L496.66 220.74L496.34 221.18L496.01 221.6L495.67 222.01L495.31 222.39L494.93 222.77L494.55 223.12L494.15 223.46L493.74 223.78L493.32 224.09L492.89 224.37L492.46 224.64L492.01 224.89L491.55 225.13L491.08 225.34L490.61 225.54L490.13 225.72L489.65 225.88L489.16 226.02L488.66 226.14L488.16 226.25L487.65 226.33L487.15 226.4L486.64 226.44L486.12 226.47L485.61 226.48L485.09 226.46L484.58 226.43L484.06 226.38L483.55 226.3L483.03 226.21L482.52 226.09L482.01 225.96L481.51 225.8L481.01 225.62L480.51 225.42L480.02 225.2L479.53 224.96L479.05 224.69L478.58 224.41L478.12 224.11L477.68 223.79L477.26 223.46L476.86 223.12L476.47 222.76L476.09 222.38L475.74 222L475.4 221.6L475.08 221.19L474.77 220.77L474.49 220.34L474.22 219.9L473.97 219.45L473.73 219L473.52 218.53L473.32 218.06L473.14 217.58L472.98 217.09L472.84 216.6L472.72 216.11L472.61 215.61L472.53 215.1L472.46 214.59L472.42 214.08L472.39 213.57L472.38 213.06L472.4 212.54L472.43 212.02L472.48 211.51L472.56 210.99L472.65 210.48L472.77 209.97L472.91 209.46L473.06 208.96L473.24 208.45L473.44 207.96L473.66 207.46L473.91 206.98L474.17 206.5L475.12 204.91L476.1 203.35L477.12 201.82L478.18 200.33L479.28 198.87L480.41 197.44L481.58 196.04L482.78 194.68L484.02 193.35L485.29 192.06L486.58 190.8L487.91 189.58L489.27 188.4L490.66 187.25L492.08 186.13L493.52 185.06L494.99 184.02L496.49 183.03L498.01 182.07L499.56 181.15L501.12 180.27L502.71 179.43L504.33 178.64L505.96 177.88L507.61 177.17L509.28 176.5L510.97 175.87L512.68 175.28L514.4 174.74L516.14 174.25L517.89 173.8L519.66 173.39L521.44 173.03L523.23 172.72L525.04 172.45L526.85 172.23L528.67 172.06L530.51 171.94L532.35 171.86L534.2 171.84L536.04 171.86L537.88 171.94Z" id="f10j6Phc0h"></path><path d="M365.4 123.55L367.19 123.67L368.98 123.83L370.77 124.04L372.55 124.29L374.33 124.59L376.1 124.94L377.86 125.34L379.62 125.77L381.36 126.26L383.09 126.79L384.82 127.37L386.53 128L388.22 128.67L389.9 129.39L391.57 130.15L393.22 130.96L394.85 131.82L396.46 132.72L398.05 133.66L399.61 134.65L401.13 135.67L402.63 136.73L404.09 137.83L405.52 138.96L406.91 140.13L408.28 141.33L409.6 142.57L410.9 143.83L412.15 145.13L413.38 146.46L414.56 147.82L415.71 149.21L416.82 150.63L417.9 152.07L418.93 153.54L419.93 155.04L420.89 156.56L421.81 158.11L422.69 159.67L423.52 161.26L424.32 162.88L425.08 164.51L425.79 166.16L426.46 167.83L427.09 169.52L427.67 171.23L428.21 172.95L428.71 174.69L429.16 176.44L429.57 178.21L429.93 179.99L430.24 181.78L430.51 183.59L430.73 185.4L430.9 187.22L431.02 189.06L431.09 190.9L431.12 192.74L431.11 193.29L431.08 193.84L431.02 194.37L430.95 194.9L430.85 195.43L430.73 195.95L430.6 196.45L430.44 196.95L430.27 197.45L430.07 197.93L429.86 198.4L429.63 198.87L429.39 199.32L429.12 199.76L428.85 200.19L428.55 200.61L428.24 201.02L427.91 201.41L427.57 201.79L427.22 202.16L426.85 202.52L426.47 202.86L426.07 203.18L425.67 203.49L425.25 203.79L424.82 204.07L424.37 204.33L423.92 204.58L423.46 204.81L422.98 205.02L422.5 205.21L422.01 205.39L421.51 205.54L421 205.68L420.48 205.79L419.96 205.89L419.43 205.97L418.89 206.02L418.35 206.05L417.8 206.06L417.25 206.05L416.71 206.02L416.17 205.97L415.64 205.89L415.11 205.79L414.6 205.68L414.09 205.54L413.59 205.39L413.1 205.21L412.61 205.02L412.14 204.81L411.68 204.58L411.22 204.33L410.78 204.07L410.35 203.79L409.93 203.49L409.53 203.18L409.13 202.86L408.75 202.52L408.38 202.16L408.03 201.79L407.69 201.41L407.36 201.02L407.05 200.61L406.75 200.19L406.47 199.76L406.21 199.32L405.97 198.87L405.74 198.4L405.53 197.93L405.33 197.45L405.16 196.95L405 196.45L404.87 195.95L404.75 195.43L404.65 194.9L404.58 194.37L404.52 193.84L404.49 193.29L404.48 192.74L404.46 191.61L404.42 190.47L404.34 189.35L404.24 188.22L404.1 187.11L403.94 186L403.75 184.89L403.52 183.8L403.27 182.71L403 181.63L402.69 180.56L402.36 179.5L402 178.45L401.61 177.41L401.2 176.38L400.76 175.36L400.29 174.36L399.8 173.36L399.29 172.38L398.75 171.42L398.18 170.47L397.59 169.53L396.98 168.61L396.34 167.7L395.68 166.82L394.99 165.94L394.29 165.09L393.56 164.25L392.8 163.43L392.03 162.63L391.23 161.85L390.41 161.09L389.58 160.35L388.72 159.63L387.84 158.94L386.94 158.26L386.02 157.61L385.08 156.98L384.12 156.37L383.14 155.79L382.15 155.23L381.14 154.71L380.13 154.21L379.1 153.74L378.07 153.3L377.03 152.88L375.97 152.5L374.91 152.14L373.85 151.81L372.77 151.51L371.69 151.24L370.61 151L369.52 150.79L368.42 150.6L367.33 150.45L366.23 150.32L365.12 150.22L364.02 150.15L362.91 150.1L361.8 150.09L360.7 150.1L359.59 150.15L358.49 150.22L357.38 150.32L356.28 150.45L355.19 150.6L354.09 150.79L353 151L351.92 151.24L350.84 151.51L349.76 151.81L348.7 152.14L347.64 152.5L346.58 152.88L345.54 153.3L344.51 153.74L343.48 154.21L342.47 154.71L341.46 155.23L340.47 155.79L339.99 156.06L339.5 156.3L339.01 156.52L338.51 156.72L338.01 156.9L337.5 157.06L336.99 157.19L336.48 157.31L335.97 157.4L335.45 157.48L334.94 157.53L334.42 157.56L333.91 157.58L333.39 157.57L332.88 157.54L332.37 157.5L331.86 157.43L331.36 157.35L330.86 157.24L330.36 157.12L329.87 156.98L329.38 156.82L328.9 156.64L328.43 156.44L327.97 156.23L327.51 155.99L327.06 155.74L326.62 155.47L326.19 155.19L325.77 154.88L325.36 154.56L324.97 154.22L324.58 153.87L324.21 153.49L323.85 153.1L323.5 152.7L323.17 152.28L322.86 151.84L322.56 151.38L322.27 150.92L322.01 150.43L321.77 149.95L321.54 149.45L321.34 148.96L321.16 148.45L321.01 147.95L320.87 147.44L320.76 146.93L320.66 146.42L320.59 145.9L320.53 145.38L320.5 144.87L320.49 144.35L320.49 143.84L320.52 143.33L320.56 142.82L320.63 142.31L320.71 141.8L320.82 141.3L320.94 140.81L321.08 140.32L321.24 139.83L321.42 139.35L321.62 138.88L321.83 138.41L322.07 137.96L322.32 137.51L322.59 137.07L322.88 136.64L323.18 136.22L323.5 135.81L323.84 135.41L324.2 135.03L324.57 134.66L324.96 134.3L325.36 133.95L325.79 133.62L326.22 133.3L326.68 133L327.15 132.72L328.76 131.82L330.39 130.96L332.04 130.15L333.71 129.39L335.39 128.67L337.08 128L338.79 127.37L340.51 126.79L342.25 126.26L343.99 125.78L345.74 125.34L347.51 124.94L349.28 124.6L351.05 124.29L352.84 124.04L354.62 123.83L356.41 123.67L358.21 123.55L360.01 123.48L361.8 123.46L363.6 123.48L365.4 123.55Z" id="fJ4X0NbzK"></path><path d="M381.48 273.26L382 273.31L382.51 273.37L383.03 273.45L383.53 273.55L384.03 273.67L384.53 273.81L385.02 273.97L385.5 274.15L385.97 274.34L386.44 274.55L386.89 274.78L387.34 275.03L387.78 275.29L388.21 275.57L388.62 275.87L389.03 276.18L389.42 276.51L389.8 276.86L390.17 277.21L390.53 277.59L390.87 277.98L391.19 278.38L391.51 278.8L391.8 279.22L392.08 279.67L392.34 280.12L392.59 280.59L392.82 281.07L393.03 281.57L393.22 282.07L393.39 282.59L393.55 283.11L393.86 284.21L394.19 285.29L394.56 286.36L394.95 287.42L395.37 288.46L395.82 289.49L396.29 290.51L396.79 291.51L397.31 292.5L397.86 293.47L398.43 294.42L399.03 295.36L399.64 296.28L400.29 297.19L400.95 298.08L401.64 298.95L402.35 299.8L403.08 300.63L403.83 301.44L404.61 302.23L405.4 303.01L406.21 303.76L407.04 304.49L407.89 305.2L408.76 305.89L409.65 306.55L410.55 307.19L411.48 307.81L412.41 308.41L413.37 308.98L414.34 309.53L415.33 310.05L416.33 310.55L417.34 311.02L418.37 311.47L419.42 311.89L420.48 312.28L421.55 312.65L422.63 312.98L423.73 313.29L424.83 313.57L425.93 313.82L427.04 314.04L428.16 314.23L429.27 314.39L430.38 314.52L431.5 314.62L432.62 314.69L433.73 314.73L434.84 314.74L435.96 314.72L437.07 314.67L438.18 314.6L439.28 314.49L440.38 314.36L441.48 314.2L442.57 314.01L443.65 313.79L444.73 313.55L445.81 313.27L446.87 312.97L447.93 312.65L448.98 312.29L450.02 311.91L451.05 311.5L452.07 311.06L453.08 310.6L454.07 310.11L455.06 309.6L456.03 309.06L456.99 308.49L457.94 307.9L458.87 307.28L459.79 306.64L460.69 305.97L461.57 305.27L462.44 304.55L463.29 303.81L464.13 303.04L464.94 302.25L465.34 301.87L465.74 301.5L466.16 301.16L466.59 300.84L467.03 300.54L467.48 300.26L467.93 299.99L468.4 299.75L468.87 299.52L469.35 299.32L469.83 299.13L470.32 298.97L470.81 298.82L471.31 298.7L471.82 298.59L472.32 298.5L472.83 298.43L473.34 298.38L473.85 298.35L474.36 298.34L474.87 298.35L475.38 298.38L475.89 298.43L476.4 298.5L476.9 298.59L477.41 298.7L477.9 298.82L478.4 298.97L478.89 299.13L479.37 299.32L479.85 299.52L480.32 299.75L480.79 299.99L481.24 300.26L481.69 300.54L482.13 300.84L482.56 301.16L482.98 301.5L483.39 301.87L483.78 302.25L484.16 302.64L484.52 303.05L484.86 303.47L485.19 303.9L485.49 304.34L485.77 304.78L486.03 305.24L486.28 305.7L486.5 306.18L486.71 306.65L486.89 307.14L487.06 307.63L487.2 308.12L487.33 308.62L487.44 309.12L487.52 309.63L487.59 310.13L487.64 310.64L487.67 311.15L487.68 311.67L487.67 312.18L487.64 312.69L487.59 313.2L487.52 313.7L487.44 314.21L487.33 314.71L487.2 315.21L487.06 315.7L486.89 316.19L486.71 316.68L486.5 317.16L486.28 317.63L486.03 318.09L485.77 318.55L485.49 318.99L485.19 319.43L484.86 319.86L484.52 320.28L484.16 320.69L483.78 321.08L482.79 322.06L481.78 323.01L480.75 323.94L479.7 324.84L478.64 325.73L477.57 326.59L476.48 327.42L475.37 328.24L474.25 329.03L473.12 329.8L471.97 330.54L470.81 331.26L469.64 331.96L468.46 332.63L467.26 333.28L466.05 333.9L464.83 334.5L463.6 335.08L462.36 335.63L461.12 336.15L459.86 336.66L458.59 337.13L457.31 337.59L456.03 338.01L454.73 338.42L453.43 338.79L452.13 339.14L450.81 339.47L449.49 339.77L448.17 340.05L446.84 340.3L445.5 340.52L444.16 340.72L442.82 340.89L441.47 341.04L440.11 341.16L438.76 341.25L437.4 341.32L436.04 341.36L434.68 341.37L434.23 341.37L433.78 341.36L433.34 341.36L432.89 341.35L432.44 341.33L432 341.32L431.55 341.3L431.1 341.28L430.65 341.25L430.2 341.23L429.76 341.19L429.31 341.16L428.86 341.13L428.41 341.09L427.97 341.04L427.52 341L427.07 340.95L426.62 340.9L426.18 340.85L425.73 340.79L425.28 340.73L424.83 340.67L424.39 340.6L423.94 340.53L423.49 340.46L423.05 340.39L422.6 340.31L422.16 340.23L421.71 340.14L421.27 340.06L420.82 339.97L420.38 339.87L419.93 339.78L419.49 339.68L419.04 339.58L418.6 339.47L418.16 339.36L417.72 339.25L417.27 339.14L416.83 339.02L415.05 338.52L413.29 337.97L411.55 337.38L409.84 336.74L408.14 336.06L406.47 335.34L404.82 334.57L403.19 333.76L401.59 332.91L400.01 332.02L398.46 331.09L396.94 330.12L395.44 329.12L393.97 328.07L392.53 326.99L391.12 325.88L389.74 324.73L388.38 323.54L387.07 322.32L385.78 321.06L384.52 319.78L383.3 318.46L382.12 317.11L380.96 315.72L379.85 314.31L378.77 312.87L377.72 311.4L376.72 309.91L375.75 308.38L374.82 306.83L373.93 305.25L373.08 303.65L372.27 302.03L371.5 300.38L370.78 298.7L370.1 297.01L369.46 295.29L368.87 293.55L368.32 291.79L367.82 290.01L367.69 289.48L367.58 288.95L367.49 288.41L367.43 287.88L367.38 287.35L367.36 286.82L367.36 286.29L367.38 285.77L367.42 285.25L367.49 284.73L367.57 284.22L367.67 283.72L367.79 283.21L367.93 282.72L368.09 282.23L368.26 281.75L368.46 281.28L368.67 280.81L368.9 280.35L369.15 279.91L369.41 279.47L369.69 279.04L369.99 278.62L370.3 278.22L370.63 277.82L370.97 277.44L371.33 277.07L371.71 276.72L372.09 276.38L372.5 276.05L372.91 275.74L373.34 275.44L373.79 275.16L374.24 274.9L374.71 274.65L375.19 274.43L375.69 274.21L376.19 274.02L376.71 273.85L377.23 273.7L377.77 273.57L378.3 273.46L378.84 273.37L379.37 273.31L379.9 273.26L380.43 273.24L380.95 273.24L381.48 273.26Z" id="b2XhZ1LRo2"></path><path d="M178.77 401.33L179.31 401.38L179.84 401.46L180.36 401.56L180.88 401.67L181.39 401.81L181.89 401.96L182.38 402.14L182.86 402.33L183.34 402.54L183.8 402.77L184.25 403.02L184.69 403.28L185.12 403.56L185.54 403.85L185.95 404.17L186.35 404.49L186.73 404.83L187.1 405.19L187.45 405.55L187.79 405.94L188.12 406.33L188.43 406.74L188.72 407.16L189 407.59L189.26 408.03L189.51 408.48L189.74 408.95L189.95 409.42L190.14 409.9L190.32 410.39L190.47 410.9L190.61 411.4L190.73 411.92L190.82 412.44L190.9 412.98L190.96 413.51L190.99 414.06L191 414.61L190.98 416.45L190.9 418.29L190.78 420.13L190.61 421.95L190.39 423.77L190.12 425.57L189.81 427.36L189.45 429.14L189.04 430.91L188.59 432.66L188.09 434.4L187.55 436.12L186.97 437.83L186.34 439.52L185.67 441.19L184.96 442.84L184.2 444.48L183.4 446.09L182.57 447.68L181.69 449.25L180.77 450.79L179.81 452.31L178.81 453.81L177.78 455.28L176.7 456.72L175.59 458.14L174.44 459.53L173.25 460.89L172.03 462.22L170.77 463.52L169.48 464.78L168.15 466.02L166.79 467.22L165.4 468.39L163.97 469.52L162.51 470.62L161.01 471.68L159.49 472.7L157.93 473.68L156.34 474.63L155.54 475.09L154.73 475.53L153.92 475.97L153.1 476.39L152.28 476.8L151.45 477.2L150.62 477.59L149.78 477.96L148.95 478.33L148.1 478.68L147.26 479.02L146.41 479.35L145.55 479.67L144.7 479.98L143.84 480.27L142.98 480.55L142.11 480.83L141.24 481.09L140.37 481.33L139.5 481.57L138.62 481.8L137.74 482.01L136.86 482.21L135.98 482.41L135.1 482.58L134.21 482.75L133.32 482.91L132.43 483.05L131.54 483.19L130.65 483.31L129.76 483.42L128.86 483.52L127.97 483.6L127.07 483.68L126.17 483.74L125.28 483.79L124.38 483.83L123.48 483.86L122.58 483.88L121.68 483.89L120.78 483.88L119.89 483.86L118.99 483.83L118.09 483.79L117.19 483.74L116.29 483.68L115.4 483.6L114.5 483.52L113.61 483.42L112.72 483.31L111.82 483.19L110.93 483.05L110.04 482.91L109.16 482.75L108.27 482.58L107.39 482.41L106.5 482.21L105.62 482.01L104.75 481.8L103.87 481.57L103 481.33L102.13 481.09L101.26 480.83L100.39 480.55L99.53 480.27L98.67 479.98L97.81 479.67L96.96 479.35L96.11 479.02L95.27 478.68L94.42 478.33L93.58 477.96L92.75 477.59L91.92 477.2L91.09 476.8L90.27 476.39L89.45 475.97L88.64 475.53L87.83 475.09L87.02 474.63L86.55 474.35L86.1 474.05L85.66 473.73L85.24 473.4L84.84 473.05L84.45 472.69L84.07 472.32L83.72 471.94L83.38 471.54L83.06 471.13L82.75 470.71L82.47 470.28L82.2 469.84L81.95 469.39L81.71 468.94L81.5 468.47L81.3 468L81.12 467.52L80.96 467.03L80.82 466.54L80.7 466.05L80.59 465.55L80.51 465.04L80.44 464.53L80.4 464.02L80.37 463.51L80.36 463L80.38 462.48L80.41 461.96L80.47 461.45L80.54 460.93L80.63 460.42L80.75 459.91L80.89 459.4L81.04 458.89L81.22 458.39L81.42 457.9L81.65 457.4L81.89 456.92L82.15 456.43L82.44 455.96L82.74 455.51L83.05 455.07L83.38 454.65L83.73 454.24L84.09 453.86L84.46 453.48L84.85 453.13L85.24 452.79L85.65 452.47L86.07 452.16L86.5 451.88L86.94 451.61L87.39 451.36L87.84 451.12L88.31 450.91L88.78 450.71L89.26 450.53L89.75 450.37L90.24 450.23L90.73 450.11L91.24 450L91.74 449.92L92.25 449.85L92.76 449.81L93.27 449.78L93.79 449.77L94.3 449.79L94.82 449.82L95.33 449.87L95.85 449.95L96.36 450.04L96.87 450.16L97.38 450.29L97.89 450.45L98.39 450.63L98.88 450.83L99.38 451.05L99.86 451.29L100.34 451.56L101.34 452.11L102.34 452.64L103.36 453.14L104.38 453.61L105.42 454.05L106.46 454.47L107.51 454.85L108.57 455.21L109.64 455.54L110.72 455.83L111.79 456.11L112.88 456.35L113.97 456.56L115.06 456.75L116.16 456.9L117.26 457.03L118.37 457.13L119.47 457.2L120.58 457.25L121.68 457.26L122.79 457.25L123.9 457.2L125 457.13L126.1 457.03L127.2 456.9L128.3 456.75L129.4 456.56L130.49 456.35L131.57 456.11L132.65 455.83L133.72 455.54L134.79 455.21L135.85 454.85L136.9 454.47L137.95 454.05L138.98 453.61L140.01 453.14L141.02 452.64L142.03 452.11L143.02 451.56L144 450.98L144.96 450.37L145.9 449.74L146.82 449.09L147.72 448.41L148.6 447.72L149.45 447L150.29 446.26L151.11 445.5L151.91 444.72L152.68 443.92L153.43 443.1L154.16 442.26L154.87 441.41L155.55 440.53L156.22 439.64L156.85 438.74L157.47 437.82L158.06 436.88L158.62 435.93L159.16 434.97L159.68 433.99L160.17 432.99L160.64 431.99L161.07 430.97L161.49 429.94L161.87 428.9L162.23 427.85L162.57 426.79L162.87 425.72L163.15 424.64L163.4 423.55L163.62 422.46L163.81 421.35L163.98 420.24L164.11 419.13L164.22 418L164.29 416.88L164.34 415.74L164.35 414.61L164.37 414.06L164.4 413.51L164.45 412.98L164.53 412.44L164.63 411.92L164.74 411.4L164.88 410.9L165.03 410.39L165.21 409.9L165.4 409.42L165.61 408.95L165.84 408.48L166.09 408.03L166.35 407.59L166.63 407.16L166.93 406.74L167.24 406.33L167.56 405.94L167.9 405.55L168.26 405.19L168.63 404.83L169.01 404.49L169.4 404.17L169.81 403.85L170.23 403.56L170.66 403.28L171.1 403.02L171.56 402.77L172.02 402.54L172.49 402.33L172.97 402.14L173.47 401.96L173.97 401.81L174.48 401.67L174.99 401.56L175.52 401.46L176.05 401.38L176.58 401.33L177.13 401.3L177.68 401.28L177.68 401.28L178.23 401.3L178.77 401.33Z" id="a2lSqcmTgA"></path><path d="M272.71 533.44L274.51 533.57L276.3 533.73L278.09 533.95L279.87 534.21L281.64 534.52L283.41 534.87L285.16 535.27L286.9 535.71L288.63 536.2L290.35 536.73L292.05 537.31L293.74 537.93L295.42 538.59L297.07 539.3L298.71 540.05L300.33 540.84L301.93 541.68L303.51 542.56L305.07 543.48L306.61 544.44L308.12 545.45L309.61 546.49L311.07 547.58L312.51 548.71L313.92 549.88L315.3 551.09L316.66 552.34L317.98 553.63L318.36 554.02L318.72 554.43L319.06 554.85L319.39 555.28L319.69 555.72L319.97 556.16L320.23 556.62L320.48 557.08L320.7 557.55L320.91 558.03L321.09 558.52L321.26 559.01L321.4 559.5L321.53 560L321.64 560.5L321.73 561.01L321.8 561.51L321.84 562.02L321.87 562.53L321.88 563.05L321.87 563.56L321.84 564.07L321.8 564.58L321.73 565.08L321.64 565.59L321.53 566.09L321.4 566.59L321.26 567.08L321.09 567.57L320.91 568.06L320.7 568.53L320.48 569.01L320.23 569.47L319.97 569.93L319.69 570.37L319.39 570.81L319.06 571.24L318.72 571.66L318.36 572.07L317.98 572.46L317.58 572.84L317.18 573.2L316.76 573.54L316.33 573.87L315.89 574.17L315.44 574.45L314.99 574.71L314.52 574.96L314.05 575.18L313.57 575.39L313.09 575.57L312.6 575.74L312.11 575.89L311.61 576.01L311.11 576.12L310.6 576.21L310.09 576.28L309.58 576.32L309.07 576.35L308.56 576.36L308.05 576.35L307.54 576.32L307.03 576.28L306.52 576.21L306.02 576.12L305.52 576.01L305.02 575.89L304.52 575.74L304.04 575.57L303.55 575.39L303.07 575.18L302.6 574.96L302.14 574.71L301.68 574.45L301.23 574.17L300.8 573.87L300.37 573.54L299.95 573.2L299.54 572.84L299.14 572.46L298.33 571.67L297.5 570.9L296.64 570.15L295.78 569.43L294.89 568.74L293.99 568.07L293.07 567.43L292.14 566.81L291.2 566.22L290.24 565.65L289.26 565.11L288.28 564.59L287.28 564.11L286.27 563.64L285.25 563.21L284.22 562.8L283.18 562.42L282.13 562.06L281.08 561.74L280.01 561.44L278.94 561.16L277.86 560.92L276.77 560.7L275.68 560.51L274.58 560.35L273.48 560.22L272.38 560.11L271.27 560.04L270.16 559.99L269.05 559.97L267.93 559.99L266.82 560.03L265.7 560.1L264.58 560.2L263.47 560.32L262.36 560.48L261.24 560.67L260.13 560.89L259.03 561.14L257.92 561.42L256.83 561.73L255.75 562.07L254.68 562.43L253.62 562.82L252.58 563.24L251.54 563.69L250.53 564.16L249.53 564.66L248.54 565.18L247.57 565.73L246.62 566.3L245.68 566.89L244.76 567.51L243.85 568.16L242.96 568.82L242.1 569.51L241.24 570.22L240.41 570.95L239.6 571.7L238.81 572.47L238.04 573.27L237.28 574.08L236.55 574.91L235.84 575.76L235.16 576.63L234.49 577.52L233.85 578.42L233.23 579.34L232.63 580.28L232.06 581.24L231.51 582.21L230.99 583.19L230.49 584.2L230.02 585.21L229.57 586.24L229.16 587.29L228.76 588.34L228.4 589.41L228.06 590.5L227.75 591.59L227.62 592.04L227.48 592.47L227.33 592.9L227.16 593.32L226.98 593.73L226.79 594.13L226.58 594.52L226.36 594.91L226.14 595.28L225.9 595.65L225.64 596L225.38 596.35L225.11 596.69L224.82 597.02L224.53 597.33L224.23 597.64L223.92 597.94L223.6 598.22L223.27 598.5L222.93 598.76L222.58 599.02L222.23 599.26L221.87 599.49L221.5 599.71L221.12 599.91L220.74 600.11L220.36 600.29L219.96 600.46L219.56 600.62L219.16 600.76L218.75 600.89L218.34 601.01L217.92 601.12L217.49 601.21L217.07 601.29L216.64 601.35L216.21 601.4L215.77 601.44L215.33 601.46L214.89 601.47L214.81 601.47L214.72 601.47L214.64 601.47L214.55 601.46L214.46 601.46L214.38 601.46L214.29 601.46L214.21 601.45L214.12 601.45L214.03 601.44L213.95 601.44L213.86 601.43L213.77 601.42L213.69 601.41L213.6 601.41L213.52 601.4L213.43 601.39L213.34 601.38L213.26 601.37L213.17 601.36L213.08 601.35L213 601.33L212.91 601.32L212.82 601.31L212.74 601.29L212.65 601.28L212.56 601.26L212.48 601.25L212.39 601.23L212.31 601.21L212.22 601.2L212.13 601.18L212.05 601.16L211.96 601.14L211.87 601.12L211.79 601.1L211.7 601.08L211.61 601.06L211.53 601.03L211.44 601.01L210.91 600.86L210.39 600.69L209.89 600.49L209.4 600.28L208.92 600.05L208.45 599.81L207.99 599.55L207.55 599.27L207.12 598.97L206.7 598.66L206.3 598.33L205.91 597.99L205.54 597.64L205.18 597.27L204.83 596.89L204.5 596.49L204.19 596.09L203.89 595.67L203.61 595.24L203.35 594.81L203.1 594.36L202.87 593.9L202.66 593.44L202.46 592.96L202.29 592.48L202.13 591.99L201.99 591.5L201.87 591L201.77 590.49L201.69 589.98L201.62 589.46L201.58 588.94L201.56 588.42L201.56 587.89L201.58 587.36L201.62 586.83L201.69 586.3L201.78 585.77L201.88 585.23L202.02 584.7L202.52 582.92L203.07 581.16L203.66 579.42L204.3 577.7L204.98 576.01L205.7 574.33L206.47 572.68L207.28 571.06L208.13 569.46L209.02 567.88L209.95 566.33L210.91 564.8L211.92 563.31L212.97 561.84L214.05 560.4L215.16 558.98L216.32 557.6L217.5 556.25L218.72 554.93L219.98 553.65L221.27 552.39L222.59 551.17L223.94 549.98L225.32 548.83L226.73 547.71L228.17 546.63L229.64 545.59L231.14 544.58L232.66 543.61L234.21 542.69L235.79 541.8L237.39 540.95L239.02 540.14L240.67 539.37L242.34 538.65L244.04 537.97L245.75 537.33L247.49 536.73L249.25 536.19L251.03 535.68L252.82 535.23L254.62 534.83L256.42 534.47L258.23 534.16L260.04 533.9L261.85 533.7L263.66 533.53L265.47 533.42L267.29 533.36L269.1 533.34L270.91 533.37L272.71 533.44Z" id="d4vqR1uEpi"></path><path d="M425.74 78.21L426.1 78.65L426.44 79.11L426.78 79.57L427.1 80.04L427.42 80.52L427.72 81L428.02 81.48L428.3 81.97L428.57 82.47L428.84 82.97L429.09 83.48L429.33 83.99L429.57 84.51L429.79 85.04L430 85.56L430.2 86.09L430.4 86.63L430.58 87.17L430.76 87.72L430.92 88.27L431.08 88.82L431.22 89.38L431.36 89.94L431.49 90.5L431.61 91.07L431.71 91.64L431.82 92.21L431.91 92.79L431.99 93.37L432.06 93.95L432.13 94.53L432.19 95.12L432.23 95.71L432.27 96.3L432.31 96.9L432.31 96.9L432.34 97.68L432.35 98.46L432.35 99.24L432.34 100.03L432.32 100.81L432.28 101.6L432.23 102.39L432.16 103.19L432.08 103.98L431.99 104.77L431.89 105.57L431.77 106.36L431.65 107.16L431.51 107.95L431.36 108.74L431.19 109.54L431.02 110.33L430.83 111.12L430.64 111.9L430.43 112.69L430.21 113.47L429.98 114.25L429.74 115.03L429.49 115.8L429.23 116.57L428.96 117.33L428.69 118.09L428.4 118.85L428.1 119.6L427.79 120.35L427.47 121.09L427.15 121.83L426.81 122.55L426.47 123.28L426.12 123.99L425.76 124.7L425.39 125.41L425.3 125.58L425.2 125.75L425.11 125.92L425.02 126.09L424.92 126.26L424.83 126.43L424.73 126.6L424.64 126.77L424.54 126.94L424.44 127.11L424.35 127.28L424.25 127.44L424.15 127.61L424.05 127.78L423.95 127.94L423.86 128.11L423.76 128.27L423.66 128.43L423.55 128.6L423.45 128.76L423.35 128.92L423.25 129.09L423.15 129.25L423.05 129.41L422.94 129.57L422.84 129.73L422.73 129.89L422.63 130.04L422.52 130.2L422.42 130.36L422.31 130.52L422.21 130.67L422.1 130.83L421.99 130.98L421.89 131.14L421.78 131.29L421.67 131.44L421.01 131.41L420.35 131.37L419.67 131.32L418.98 131.26L418.28 131.19L417.57 131.11L416.84 131.03L416.11 130.94L415.37 130.84L414.63 130.74L413.87 130.62L413.11 130.5L412.33 130.37L411.55 130.24L410.77 130.1L409.97 129.95L409.17 129.8L408.37 129.64L407.56 129.47L406.74 129.3L405.92 129.12L405.09 128.93L404.26 128.74L403.43 128.54L402.59 128.34L401.75 128.14L400.91 127.92L400.06 127.71L399.22 127.48L398.37 127.26L397.52 127.03L396.67 126.79L395.82 126.55L394.97 126.3L394.12 126.05L393.26 125.8L392.42 125.54L391.59 125.15L390.77 124.74L389.95 124.34L389.13 123.93L388.32 123.51L387.51 123.1L386.71 122.68L385.92 122.26L385.13 121.84L384.35 121.41L383.57 120.99L382.81 120.56L382.05 120.13L381.3 119.7L380.55 119.26L379.82 118.83L379.1 118.39L378.39 117.96L377.69 117.52L377 117.09L376.32 116.65L375.65 116.21L374.99 115.78L374.35 115.34L373.72 114.91L373.11 114.47L372.51 114.04L371.92 113.6L371.35 113.17L370.79 112.74L370.25 112.32L369.73 111.89L369.22 111.46L368.73 111.04L368.25 110.62L367.8 110.21L367.36 109.79L368.27 108.55L369.23 107.31L370.25 106.06L371.33 104.82L372.45 103.57L373.63 102.33L374.85 101.1L376.12 99.87L377.44 98.65L378.8 97.45L380.2 96.26L381.64 95.08L383.12 93.93L384.63 92.79L386.18 91.68L387.75 90.6L389.36 89.54L391 88.51L392.66 87.51L394.35 86.54L396.06 85.61L397.79 84.72L399.54 83.87L401.3 83.06L403.09 82.3L404.88 81.58L406.69 80.91L408.51 80.28L410.33 79.72L412.16 79.2L414 78.75L415.83 78.35L417.67 78.02L419.51 77.74L421.34 77.54L423.17 77.4L424.99 77.33L425.37 77.76L425.74 78.21Z" id="bT6E1JQCt"></path><path d="M536.54 216.06L537.46 216.1L538.37 216.15L539.28 216.2L540.18 216.25L541.08 216.31L541.98 216.38L542.87 216.45L543.76 216.52L544.64 216.6L545.51 216.68L546.38 216.77L547.24 216.87L548.09 216.96L548.94 217.07L549.78 217.17L550.6 217.28L551.42 217.4L552.23 217.52L553.03 217.65L553.81 217.78L554.59 217.92L555.35 218.06L556.1 218.2L556.84 218.35L557.57 218.51L558.28 218.67L558.97 218.83L559.66 219L560.32 219.17L560.98 219.35L561.61 219.54L562.23 219.73L562.83 219.92L563.42 220.12L563.98 220.32L563.65 221.82L563.27 223.35L562.84 224.9L562.36 226.47L561.83 228.06L561.25 229.67L560.63 231.3L559.96 232.93L559.24 234.58L558.49 236.23L557.68 237.88L556.84 239.53L555.95 241.18L555.02 242.83L554.06 244.47L553.05 246.1L552 247.72L550.92 249.32L549.8 250.9L548.64 252.47L547.45 254.01L546.23 255.52L544.97 257L543.68 258.46L542.36 259.87L541 261.26L539.62 262.6L538.2 263.9L536.76 265.15L535.29 266.36L533.8 267.51L532.28 268.62L530.73 269.66L529.16 270.65L527.56 271.58L525.94 272.45L524.31 273.24L523.78 273L523.27 272.74L522.76 272.47L522.26 272.19L521.76 271.91L521.28 271.61L520.8 271.3L520.33 270.98L519.86 270.66L519.4 270.32L518.95 269.98L518.51 269.62L518.08 269.26L517.65 268.89L517.23 268.51L516.81 268.12L516.4 267.72L516 267.32L515.61 266.9L515.22 266.48L514.85 266.05L514.47 265.62L514.11 265.17L513.75 264.72L513.4 264.26L513.06 263.8L512.72 263.33L512.39 262.85L512.07 262.37L511.75 261.87L511.44 261.38L511.14 260.87L510.84 260.37L510.55 259.85L510.27 259.33L510 258.8L509.73 258.27L509.73 258.27L509.39 257.57L509.06 256.87L508.74 256.15L508.44 255.43L508.14 254.69L507.86 253.96L507.59 253.21L507.33 252.46L507.08 251.7L506.85 250.94L506.62 250.17L506.41 249.39L506.2 248.62L506.01 247.83L505.83 247.05L505.66 246.26L505.5 245.46L505.35 244.67L505.21 243.87L505.09 243.06L504.97 242.26L504.87 241.45L504.78 240.65L504.69 239.84L504.62 239.03L504.56 238.22L504.51 237.41L504.47 236.6L504.44 235.8L504.42 234.99L504.41 234.18L504.41 233.38L504.43 232.58L504.45 231.78L504.48 230.98L504.53 230.18L504.58 229.39L504.6 229.2L504.61 229L504.63 228.81L504.65 228.61L504.66 228.42L504.68 228.23L504.7 228.03L504.72 227.84L504.74 227.65L504.76 227.45L504.78 227.26L504.8 227.07L504.83 226.88L504.85 226.69L504.87 226.5L504.9 226.3L504.92 226.11L504.95 225.92L504.98 225.73L505 225.54L505.03 225.35L505.06 225.16L505.09 224.98L505.12 224.79L505.15 224.6L505.18 224.41L505.21 224.22L505.24 224.04L505.27 223.85L505.31 223.66L505.34 223.48L505.37 223.29L505.41 223.11L505.44 222.92L505.48 222.74L505.52 222.55L505.55 222.37L506.17 222.14L506.8 221.91L507.44 221.68L508.09 221.46L508.76 221.24L509.44 221.02L510.14 220.8L510.84 220.59L511.56 220.39L512.29 220.18L513.03 219.98L513.77 219.78L514.53 219.59L515.3 219.4L516.08 219.21L516.86 219.02L517.66 218.84L518.46 218.67L519.27 218.49L520.09 218.32L520.91 218.16L521.74 217.99L522.58 217.83L523.42 217.68L524.27 217.53L525.12 217.38L525.98 217.23L526.84 217.09L527.7 216.95L528.57 216.82L529.44 216.69L530.31 216.56L531.19 216.44L532.07 216.32L532.95 216.21L533.83 216.1L534.71 215.99L535.63 216.02L536.54 216.06Z" id="c2MxGPvBYX"></path><path d="M551.87 110.06L552.34 110.4L552.8 110.74L553.25 111.09L553.69 111.45L554.12 111.82L554.55 112.2L554.96 112.59L555.37 112.98L555.77 113.39L556.16 113.8L556.54 114.22L556.92 114.64L557.28 115.08L557.64 115.52L557.99 115.97L558.33 116.42L558.67 116.89L558.99 117.36L559.31 117.83L559.62 118.31L559.92 118.8L560.21 119.3L560.5 119.8L560.78 120.31L561.05 120.82L561.31 121.34L561.56 121.86L561.81 122.39L562.05 122.93L562.28 123.47L562.5 124.01L562.72 124.56L562.93 125.11L563.13 125.67L563.32 126.23L563.32 126.23L563.57 126.97L563.79 127.72L564.01 128.47L564.21 129.23L564.41 130L564.58 130.77L564.75 131.54L564.91 132.32L565.05 133.11L565.18 133.89L565.3 134.69L565.41 135.48L565.5 136.28L565.59 137.08L565.66 137.89L565.72 138.69L565.77 139.5L565.81 140.31L565.84 141.12L565.85 141.93L565.86 142.74L565.85 143.56L565.83 144.37L565.81 145.18L565.77 145.99L565.72 146.8L565.66 147.61L565.59 148.42L565.51 149.22L565.42 150.02L565.31 150.82L565.2 151.62L565.08 152.41L564.95 153.2L564.81 153.99L564.66 154.77L564.5 155.55L564.45 155.74L564.41 155.93L564.37 156.12L564.33 156.31L564.28 156.5L564.24 156.69L564.19 156.88L564.15 157.07L564.1 157.25L564.06 157.44L564.01 157.63L563.96 157.82L563.91 158L563.86 158.19L563.81 158.38L563.76 158.56L563.71 158.75L563.66 158.93L563.61 159.12L563.56 159.3L563.5 159.49L563.45 159.67L563.4 159.85L563.34 160.04L563.29 160.22L563.23 160.4L563.17 160.58L563.12 160.76L563.06 160.94L563 161.12L562.94 161.3L562.88 161.48L562.82 161.66L562.76 161.84L562.7 162.02L562.64 162.19L562.58 162.37L561.94 162.52L561.28 162.66L560.62 162.8L559.94 162.93L559.24 163.06L558.54 163.18L557.82 163.3L557.1 163.41L556.36 163.52L555.61 163.63L554.85 163.72L554.08 163.82L553.31 163.91L552.52 163.99L551.72 164.07L550.92 164.15L550.11 164.22L549.29 164.29L548.46 164.35L547.63 164.41L546.79 164.46L545.95 164.51L545.1 164.55L544.24 164.59L543.38 164.63L542.52 164.66L541.65 164.69L540.78 164.71L539.9 164.73L539.02 164.74L538.14 164.75L537.26 164.76L536.37 164.76L535.49 164.76L534.6 164.75L533.71 164.75L532.83 164.73L531.92 164.57L531.02 164.41L530.12 164.25L529.22 164.08L528.33 163.9L527.44 163.73L526.56 163.54L525.68 163.36L524.8 163.17L523.94 162.97L523.07 162.78L522.22 162.58L521.37 162.37L520.53 162.16L519.7 161.95L518.87 161.73L518.06 161.51L517.26 161.29L516.46 161.06L515.68 160.83L514.9 160.6L514.14 160.36L513.39 160.12L512.66 159.88L511.93 159.63L511.22 159.38L510.52 159.13L509.84 158.88L509.17 158.62L508.52 158.36L507.88 158.1L507.26 157.83L506.66 157.56L506.07 157.29L505.5 157.02L504.95 156.74L504.41 156.46L504.94 155.02L505.53 153.56L506.17 152.08L506.86 150.59L507.6 149.09L508.39 147.57L509.23 146.04L510.11 144.52L511.04 142.98L512.02 141.45L513.04 139.92L514.1 138.4L515.21 136.88L516.35 135.38L517.53 133.88L518.75 132.41L520 130.95L521.3 129.51L522.62 128.09L523.98 126.7L525.37 125.34L526.79 124L528.23 122.7L529.71 121.44L531.21 120.21L532.74 119.03L534.3 117.89L535.87 116.79L537.47 115.75L539.09 114.75L540.73 113.81L542.39 112.92L544.06 112.09L545.76 111.33L547.46 110.63L549.18 109.99L550.91 109.42L551.4 109.74L551.87 110.06Z" id="d6jhDXbGq"></path></defs><g><g><g><use xlink:href="#b2akm63gzU" opacity="1" fill="#ffffff" fill-opacity="1"></use><g><use xlink:href="#b2akm63gzU" opacity="1" fill-opacity="0" stroke="#000000" stroke-width="1" stroke-opacity="0"></use></g></g><g><use xlink:href="#aBfSsxYvF" opacity="1" fill="#ffffff" fill-opacity="1"></use><g><use xlink:href="#aBfSsxYvF" opacity="1" fill-opacity="0" stroke="#000000" stroke-width="1" stroke-opacity="0"></use></g></g><g><use xlink:href="#d31PqkZ7YB" opacity="1" fill="#ffffff" fill-opacity="1"></use><g><use xlink:href="#d31PqkZ7YB" opacity="1" fill-opacity="0" stroke="#000000" stroke-width="1" stroke-opacity="0"></use></g></g><g><use xlink:href="#h72uqO8pkT" opacity="1" fill="#ffffff" fill-opacity="1"></use><g><use xlink:href="#h72uqO8pkT" opacity="1" fill-opacity="0" stroke="#000000" stroke-width="1" stroke-opacity="0"></use></g></g><g><use xlink:href="#g1tNpt8oCW" opacity="1" fill="#cfa278" fill-opacity="1"></use><g><use xlink:href="#g1tNpt8oCW" opacity="1" fill-opacity="0" stroke="#000000" stroke-width="1" stroke-opacity="0"></use></g></g><g><use xlink:href="#f1tB0W28bD" opacity="1" fill="#5053cb" fill-opacity="1"></use><g><use xlink:href="#f1tB0W28bD" opacity="1" fill-opacity="0" stroke="#000000" stroke-width="1" stroke-opacity="0"></use></g></g><g><use xlink:href="#c1rEE6Z6lw" opacity="1" fill="#f5c293" fill-opacity="1"></use><g><use xlink:href="#c1rEE6Z6lw" opacity="1" fill-opacity="0" stroke="#000000" stroke-width="1" stroke-opacity="0"></use></g></g><g><use xlink:href="#e1di1gTtKj" opacity="1" fill="#000000" fill-opacity="1"></use><g><use xlink:href="#e1di1gTtKj" opacity="1" fill-opacity="0" stroke="#000000" stroke-width="1" stroke-opacity="0"></use></g></g><g><use xlink:href="#f10j6Phc0h" opacity="1" fill="#000000" fill-opacity="1"></use><g><use xlink:href="#f10j6Phc0h" opacity="1" fill-opacity="0" stroke="#000000" stroke-width="1" stroke-opacity="0"></use></g></g><g><use xlink:href="#fJ4X0NbzK" opacity="1" fill="#000000" fill-opacity="1"></use><g><use xlink:href="#fJ4X0NbzK" opacity="1" fill-opacity="0" stroke="#000000" stroke-width="1" stroke-opacity="0"></use></g></g><g><use xlink:href="#b2XhZ1LRo2" opacity="1" fill="#d12f2f" fill-opacity="1"></use><g><use xlink:href="#b2XhZ1LRo2" opacity="1" fill-opacity="0" stroke="#000000" stroke-width="1" stroke-opacity="0"></use></g></g><g><use xlink:href="#a2lSqcmTgA" opacity="1" fill="#000000" fill-opacity="1"></use><g><use xlink:href="#a2lSqcmTgA" opacity="1" fill-opacity="0" stroke="#000000" stroke-width="1" stroke-opacity="0"></use></g></g><g><use xlink:href="#d4vqR1uEpi" opacity="1" fill="#000000" fill-opacity="1"></use><g><use xlink:href="#d4vqR1uEpi" opacity="1" fill-opacity="0" stroke="#000000" stroke-width="1" stroke-opacity="0"></use></g></g><g><use xlink:href="#bT6E1JQCt" opacity="1" fill="#5053cb" fill-opacity="1"></use><g><use xlink:href="#bT6E1JQCt" opacity="1" fill-opacity="0" stroke="#000000" stroke-width="1" stroke-opacity="0"></use></g></g><g><use xlink:href="#c2MxGPvBYX" opacity="1" fill="#5053cb" fill-opacity="1"></use><g><use xlink:href="#c2MxGPvBYX" opacity="1" fill-opacity="0" stroke="#000000" stroke-width="1" stroke-opacity="0"></use></g></g><g><use xlink:href="#d6jhDXbGq" opacity="1" fill="#5053cb" fill-opacity="1"></use><g><use xlink:href="#d6jhDXbGq" opacity="1" fill-opacity="0" stroke="#000000" stroke-width="1" stroke-opacity="0"></use></g></g></g></g></svg>