<svg height="512" viewBox="0 0 58 61" width="512" xmlns="http://www.w3.org/2000/svg"><g id="020---Cyborg"><path id="Shape" d="m14.43 22.81c1.5210329 5.0985255 6.7490895 8.1310613 11.93 6.92 2.0392609-.5060292 4.0434837-1.1440401 6-1.91.3946585-.2607502.5526379-.7623562.3786315-1.2022059-.1740065-.4398496-.6323973-.6976168-1.0986315-.6177941-1.8702248.7377651-3.78787 1.3491398-5.74 1.83-4.1477283.9710351-8.3339143-1.4573912-9.55-5.54l-1.35-4.69c-.0762536-.2550492-.2510531-.4691681-.4856788-.5949275-.2346258-.1257594-.5097108-.1527786-.7643212-.0750725-.2675149.0588091-.4991981.2247735-.6409528.4591414-.1417548.2343679-.1811717.5166224-.1090472.7808586z"/><path id="Shape" d="m3.4 33.8c2.55 1.91 1 5.41 0 8.41-.20651152.1588859-.34285275.3921012-.38.65-.14777851 1.2489773-.14777851 2.5110227 0 3.76.35 2.88 1.51 4.27 2.67 4.92-.39 1.26 0 2.14-.27 5.48-.1561844.822114-.01437356 1.672979.4 2.4 1.38 2.19 3.93 1.54 6.3.65 6.72-2.51 9.42-5.57 13.9-5.57 3.08 0 5-4.43 5.69-13.07 7.93 1.68 15.43.49 20.23-3.28 4.06-3.15 6.06-7.92 6.06-14.15 0-17.58-16.59-21.93-16.77-22-.64-.13-15.79-3.68-26.32 2.85-4.600231 2.87233001-7.80716763 7.5198544-8.86 12.84-.4354988 1.490598-.3829393 3.0813988.15 4.54.18539315.5755212.12801704 1.2017624-.15886999 1.7340133-.28688704.532251-.77846095.9244565-1.36113001 1.0859867-1.90511383.4899741-3.38985253 1.9823859-3.87 3.89-.19 1.18.1 2.99 2.59 4.86zm15.44 14.68c-.2836089.4889183-.7870289.8096155-1.35.86-.21-1.36-.27-2.09-.35-2.91 1-.32 2-.69 3.06-1.13-.3308677 1.1082913-.787154 2.1751962-1.36 3.18zm-11.6 1.52c-.97483231-.3009404-1.71222659-1.1032865-1.93-2.1 1.36606396.2413146 2.75757535.3051762 4.14.19.09.79.18 1.48.28 2.1-.83438754.0250698-1.6690764-.0386213-2.49-.19zm4.5.07c-.11-.64-.21-1.38-.31-2.25 1.2684648-.1986389 2.5240095-.4724545 3.76-.82.08.8.16 1.54.32 2.64-1.6.27-2.69.36-3.77.46zm9.14-9.4c.0065271.7431009-.0469802 1.485515-.16 2.22-1.34.61-2.58 1.11-3.72 1.49-.06-.77-.1-1.49-.14-2.14 1.67-.66 3.14-1.33 4.02-1.54zm-6 2.27c0 .64.08 1.33.14 2-1.2422024.3599365-2.5043469.6470911-3.78.86-.05-.62-.1-1.24-.14-1.87 1.2801627-.2213907 2.5432517-.5321507 3.78-.93zm-5.76 1.3c0 .63.08 1.23.14 1.82-1.45542709.140355-2.92418573.025291-4.34-.34-.02974274-.5262467-.02974274-1.0537533 0-1.58 1.3893317.2158348 2.79997943.2594977 4.2.13zm16.88 8.26c-5.09 0-8 3.2-14.61 5.7-1.64.62-3.28 1.13-3.9.15-.15867834-.3619603-.19381947-.7660834-.1-1.15.29-3.24-.08-4.29.2-5.1 3.4906478.1637184 6.9880358-.1117723 10.41-.82 1.0680176-.2023674 1.9951475-.8593886 2.54-1.8 1.0332585-1.8181485 1.7342178-3.8058931 2.07-5.87.67-4.16-.24-5.43.25-6 .2062901-.2262712.5397293-.2839026.81-.14.8596204.4142577 1.8737602.3458887 2.67-.18l2.66-1.77c.3129301-.1454251.6550058-.217261 1-.21 0 1.75-.08 2.94-.21 4.82-.61 9.13-2.42 12.37-3.79 12.37zm-17.88-30.85c0-.09 0-.18-.07-.26 1.47.81 2.95 2 2.95 3.66 0 2.13-1.08 3.88-1.63 3.95-.21 0-1.09-.58-1.89-3.59.79682659-1.081222 1.03424288-2.4760427.64-3.76zm-5.34 7.61c.39601307-1.1438006 1.35791239-1.9996637 2.54-2.26.16-.06.31-.14.46-.21.62 2 1.75 4.49 3.83 4.24s3.39-3.31 3.39-5.98c0-2.42-1.86-4.53-5.23-6 .0234806-.2887235.10152738-.5703706.23-.83.93288294-4.8311087 3.8303341-9.05776563 8-11.67 9.77-6.09 24.62-2.61 24.76-2.55s15.24 4 15.24 20c0 5.58-1.79 9.82-5.31 12.58-5.13 4-12.94 4.12-18.85 2.84.1-1.45.17-2.22.17-4.56 0-1.61-2.13-1.85-3.64-1.24-1.6087092-1.019744-3.4657363-1.5799644-5.37-1.62-5.18 0-7.53 4.77-9.68 4-1.5772585-.4354474-2.8268085-1.639833-3.32-3.2-.11045695-.5522847-.64771525-.9104569-1.2-.8s-.91045695.6477153-.8 1.2c.61346008 2.3082087 2.388059 4.1283102 4.68 4.8 4.49 1.49 6.67-6.59 13.74-3.1l-1.16.78c-.2181182.1191671-.4818818.1191671-.7 0-.8760096-.4287812-1.9164308-.3437611-2.7112061.2215515-.7947754.5653126-1.2164358 1.5202509-1.0987939 2.4884485v.31c-2.85.47-8.57 4.39-15.27 3.53 1.28-3.66 2.4-7.55-.9-10-.91-.73-1.99-1.81-1.8-2.97z"/><path id="Shape" d="m21 19c1.4339341-.0036463 2.6648056-1.0215374 2.9375883-2.4292908.2727827-1.4077535-.4888005-2.8117258-1.8175883-3.3507092.29-1.09 1.1-2.22 1.88-2.22h5.75c-4.45 4.54-.07 11 8.25 11v2.18c-1.4160897.5034893-2.241084 1.9771392-1.9300349 3.4475336.3110492 1.4703945 1.6621399 2.4837126 3.1608124 2.3706093 1.4986724-.1131033 2.6823779-1.3177198 2.7692225-2.8181429l4.61-1.38c.8823854 1.1591372 2.469962 1.5168357 3.7641845.8481121 1.2942225-.6687235 1.9209767-2.1705647 1.4860502-3.5609035s-1.8058118-2.2672773-3.2504039-2.0792434c-1.4445921.1880338-2.5453103 1.386686-2.6098308 2.8420348l-4.61 1.38c-.3492806-.4797789-.8330113-.845187-1.39-1.05v-2.32c4.62-.63 8-3.42 8-6.86 0-5.74-8.81-8.68-15.2-6h-8.8c-2.08 0-3.56 2.26-3.91 4.16-1.3801624.4689542-2.2235034 1.8621216-1.9990766 3.3023989.2244268 1.4402774 1.4516651 2.5108031 2.9090766 2.5376011zm18 9c-.5522847 0-1-.4477153-1-1s.4477153-1 1-1 1 .4477153 1 1-.4477153 1-1 1zm10-5c.5522847 0 1 .4477153 1 1s-.4477153 1-1 1-1-.4477153-1-1 .4477153-1 1-1zm-14.68-3.58c.1902237-.4592024.472726-.8744466.83-1.22.9366631-.9415286 2.2795625-1.3567647 3.5841931-1.1082636 1.3046306.248501 2.4008506 1.1283314 2.9258069 2.3482636-2.3877594.7662299-4.9564517.7592307-7.34-.02zm9.16-.82c-.1648542-.3949957-.3727783-.7706006-.62-1.12l.76-.77c.2500859-.2554449.3448966-.624905.2487178-.9692082s-.3687353-.6111417-.715-.7-.7136319.0137633-.9637178.2692082l-.77.78c-.3047974-.2361893-.6414639-.4280892-1-.57l.27-1c.1229051-.355579.0358365-.7500498-.2253258-1.0208565-.2611624-.2708068-.652218-.3721165-1.0120183-.2621809-.3598003.1099355-.6274506.4125103-.6926559.7830374l-.28 1c-.375858-.0349057-.754142-.0349057-1.13 0l-.29-1c-.0673885-.3728787-.3397413-.67564-.7034347-.7819738-.3636934-.1063339-.756247.0020273-1.01389.2798758-.257643.2778486-.336114.6774519-.2026753 1.032098l.29 1.06c-.3523854.154435-.6875604.3454847-1 .57l-.78-.77c-.2554449-.2500859-.624905-.3448966-.9692082-.2487178s-.6111417.3687353-.7.715.0137633.7136319.2692082.9637178l.77.76c-.2234885.3130974-.4144758.6481629-.57 1-5.45-3.28-1.23-8.6 5.55-8.6s10.93 5.35 5.48 8.6zm-22.48-3.6c.5522847 0 1 .4477153 1 1s-.4477153 1-1 1-1-.4477153-1-1 .4477153-1 1-1z"/><path id="Shape" d="m39 36c-.5522847 0-1 .4477153-1 1s.4477153 1 1 1c11.56 0 14.8-8.3 14.94-8.65.125043-.3358297.0614244-.7128587-.1668911-.9890639s-.5866415-.4096244-.94-.35c-.3533585.0596245-.6480659.3032342-.7731089.6390639-.06.07-2.87 7.35-13.06 7.35z"/></g></svg>