<svg height="512" viewBox="0 0 58 61" width="512" xmlns="http://www.w3.org/2000/svg"><g id="020---Cyborg" fill="none"><g id="Icons" transform="translate(1 1)"><path id="Shape" d="m18.7 48c-.3976953.6903197-1.0770957 1.1724749-1.86 1.32-.24 0-6.47 1.24-10 .83-.28278977-.0328718-.56331081-.0829649-.84-.15-2-.49-2.79-2.49-3-4.5-.14141936-1.1623811-.14141936-2.3376189 0-3.5 3.78.63 6.93.53 12.74-1.79l.13-.05c2.57-1 4.39-1.93 5-1.33.1707975 3.2014971-.5824556 6.3845991-2.17 9.17z" fill="#f5f5f5"/><path id="Shape" d="m56 23c0 13.56-10.18 17.58-19.88 17.12-2.1379241-.102874-4.2610153-.4109566-6.34-.92.06-.43.23-2.89.23-5.34.0119687-.3755848-.18763-.7261749-.5167121-.9075919-.3290821-.1814171-.7320897-.163033-1.0432879.0475919-1.92 1.29-1.35.89-3.64 2.43-.5019088.3288994-1.13949.3706458-1.68.11-.5509412-.276957-1.2100032-.2256986-1.7114978.1331113s-.7627716.9660368-.6785022 1.5768887c.05.48.1 1 .13 1.55-1.36-1.33-9.19 5-17.69 3.2.73-2.54 3.3-7.42-.18-10-4-3-2-6 1-7 .83142909-.2420876 1.52977977-.8098257 1.93650666-1.5743216.40672688-.7644959.48732393-1.6608911.22349334-2.4856784-.51017699-1.2547039-.56675998-2.6480601-.16-3.94 2.89-12.68 13.74-15.73 22.42-16 3.8863948-.14247501 7.7755653.19337737 11.58 1 0 0 16 4 16 21z" fill="#9e9e9e"/><path id="Shape" d="m40 2c-3.7883246-.80125603-7.6602939-1.13707297-11.53-1 2.8679216.07191393 5.7232082.40664859 8.53 1 0 0 16 4 16 21 0 12.2-8.23 16.67-17 17.12 11.8.56 20-5.12 20-17.12 0-17-16-21-16-21z" fill="#707070"/><path id="Shape" d="m11 24.05c0 4-3.53 8.73-5.62.11.84483886-.8412503 1.14621409-2.0853891.78-3.22-.2360615-.7318739-.37393218-1.491844-.41-2.26 2.07.81 5.25 2.51 5.25 5.37z" fill="#ef314c"/><ellipse id="Oval" cx="37" cy="14" fill="#37474f" rx="9" ry="6"/><path id="Shape" d="m41.9 19c-3.1373229 1.3000352-6.6626771 1.3000352-9.8 0 .4731925-2.330324 2.5221184-4.0050126 4.9-4.0050126s4.4268075 1.6746886 4.9 4.0050126z" fill="#7f8e94"/><path id="Shape" d="m30 33.86c0 4.4-.61 18.64-5 18.64-4.81 0-7.7 3.19-14.11 5.58-1.5.56-4.1 1.62-5.25-.19-.30474213-.6202745-.38598588-1.3267418-.23-2 .3-3.71-.34-4.84.69-5.87 2.59.56 8.13-.25 10.73-.72.782952-.1402211 1.4658143-.6149382 1.87-1.3 1.3766232-2.3983928 2.1263929-5.1051301 2.18-7.87.0235391-.9454994-.0232565-1.8914404-.14-2.83-.0842694-.6108519.1770076-1.2180788.6785022-1.5768887s1.1605566-.4100683 1.7114978-.1331113c.54051.2606458 1.1780912.2188994 1.68-.11l3.64-2.48c.3108941-.2049076.7098886-.2201145 1.0354775-.0394652.3255888.1806493.5238468.527235.5145225.8994652z" fill="#545c60"/><path id="Shape" d="m28.15 33.23c-.21 4.39-1 17.24-5.39 17.24s-7.76 2.64-11.56 4.44c-1.8738608.9166969-3.81642961 1.6857-5.81 2.3-.05965945-.4379777-.05965945-.8820223 0-1.32.3-3.71-.34-4.84.69-5.87 2.59.56 8.13-.25 10.73-.72.7903265-.1347863 1.4814534-.6101646 1.89-1.3 1.3766232-2.3983928 2.1263929-5.1051301 2.18-7.87.0235391-.9454994-.0232565-1.8914404-.14-2.83-.0842694-.6108519.1770076-1.2180788.6785022-1.5768887s1.1605566-.4100683 1.7114978-.1331113c.54051.2606458 1.1780912.2188994 1.68-.11z" fill="#7f8e94"/><g fill="#ef314c"><circle id="Oval" cx="20" cy="15" r="3"/><circle id="Oval" cx="38" cy="26" r="3"/><circle id="Oval" cx="48" cy="23" r="3"/></g></g><g id="Layer_2" fill="#000"><path id="Shape" d="m14.43 22.81c1.4955012 5.1185928 6.7443465 8.1631871 11.93 6.92 2.0392609-.5060292 4.0434837-1.1440401 6-1.91.3946585-.2607502.5526379-.7623562.3786315-1.2022059-.1740065-.4398496-.6323973-.6976168-1.0986315-.6177941-1.8702248.7377651-3.78787 1.3491398-5.74 1.83-4.1477283.9710351-8.3339143-1.4573912-9.55-5.54l-1.35-4.69c-.0762536-.2550492-.2510531-.4691681-.4856788-.5949275-.2346258-.1257594-.5097108-.1527786-.7643212-.0750725-.2675149.0588091-.4991981.2247735-.6409528.4591414-.1417548.2343679-.1811717.5166224-.1090472.7808586z"/><path id="Shape" d="m3.4 33.8c2.15 1.62 1.41 4.35.3 7.5-.11.32-.22.63-.31.91-.20651152.1588859-.34285275.3921012-.38.65-.14777851 1.2489773-.14777851 2.5110227 0 3.76.35 2.88 1.51 4.27 2.67 4.92-.17972411.7015725-.24056725 1.4283101-.18 2.15v.31c.02813744.9509464-.00191869 1.9027236-.09 2.85v.15c-.1561844.822114-.01437356 1.672979.4 2.4.59165251.9764874 1.66943191 1.5518145 2.81 1.5 1.19941489-.0723623 2.3770382-.3532322 3.48-.83h.14c1.16-.44 2.32-.93 3.55-1.52.87-.42 1.72-.89 2.55-1.34 2.52-1.37 4.89-2.66 7.66-2.66 3.08 0 5-4.43 5.69-13.07 7.93 1.68 15.43.49 20.23-3.28 4.08-3.2 6.08-7.97 6.08-14.2 0-17.58-16.59-21.93-16.77-22-.64-.13-15.79-3.68-26.32 2.85-4.600231 2.87233001-7.80716763 7.5198544-8.86 12.84-.2368527.6388448-.33899275 1.3197784-.3 2 .03917452.856062.19046488 1.7032881.45 2.52.27668926.8296297.02831639 1.7442727-.63 2.32-.26101379.2234088-.5634196.3932997-.89.5-1.90511383.4899741-3.38985253 1.9823859-3.87 3.89-.19 1.21.1 3.01 2.59 4.88zm16.48 12.47c-.279516.7598534-.6137244 1.4984541-1 2.21-.2567518.4387079-.6906424.7449836-1.19.84h-.16c-.13-.84-.23-1.62-.29-2.33l-.06-.58c1-.32 2-.69 3.06-1.13-.14.35-.24.72-.36.99zm-11.88 3.86c-.23239167-.0295028-.46280516-.072914-.69-.13h-.07c-.97483231-.3009404-1.71222659-1.1032865-1.93-2.1.90398779.1642517 1.82122286.2445934 2.74.24h1.4c.09.79.18 1.48.28 2.1-.57823574-.00524-1.15575726-.041961-1.73-.11zm3.77 0c-.11-.64-.21-1.38-.31-2.25 1.2595983-.2195246 2.5051072-.5133712 3.73-.88v.16c.07.77.17 1.58.3 2.48-1 .15-2.21.3-3.38.4zm9.14-9.4v.39c-.0176843.6125934-.0711085 1.2236324-.16 1.83-1.37.55-2.61 1.05-3.75 1.43-.06-.77-.1-1.49-.14-2.14l.4-.15 1.09-.45c.823423-.364516 1.6683272-.678433 2.53-.94zm-6 2.27c0 .64.08 1.33.14 2-1.2422024.3599365-2.5043469.6470911-3.78.86-.05-.62-.1-1.24-.14-1.87h.21c1.1996079-.2553784 2.3819467-.5860325 3.54-.99zm-5.76 1.3c0 .63.08 1.23.14 1.82-1.45542709.140355-2.92418573.025291-4.34-.34-.02974274-.5262467-.02974274-1.0537533 0-1.58.67952469.0928154 1.36420244.1429138 2.05.15.72.01 1.42-.02 2.12-.08zm16.85 8.2c-3.28 0-6 1.48-8.62 2.91-.8.44-1.63.89-2.45 1.28-1.18.57-2.29 1-3.39 1.45l-.15.06c-1.64.62-3.28 1.13-3.9.15-.15867834-.3619603-.19381947-.7660834-.1-1.15v-.23c.08821436-1.0174558.11826326-2.0391184.09-3.06v-.3c-.05195281-.505373-.01814363-1.0158916.1-1.51h.2c.51 0 1.08.07 1.7.07h1.42.1l1.3-.08c2.15-.19 4.3-.53 5.74-.79 1.0680176-.2023674 1.9951475-.8593886 2.54-1.8.4524216-.8012171.8403146-1.6371933 1.16-2.5.4189473-1.0881451.7206533-2.2178666.9-3.37.1367282-.8168316.2169187-1.6421258.24-2.47 0-.44 0-.88 0-1.3 0-.57-.08-1.11-.14-1.62-.0275502-.1977622.0306651-.3978771.16-.55.2062901-.2262712.5397293-.2839026.81-.14.8596204.4142577 1.8737602.3458887 2.67-.18l2.62-1.83c.3129301-.1454251.6550058-.217261 1-.21v.68c0 1.37-.06 2.06-.13 3l-.07 1v.15c-.62 9.1-2.43 12.34-3.8 12.34zm-17.88-30.85c0-.09 0-.18-.07-.26 1.47.81 2.95 2 2.95 3.66 0 2.13-1.08 3.88-1.63 3.95-.21 0-1.09-.58-1.89-3.59.79682659-1.081222 1.03424288-2.4760427.64-3.76zm-5.34 7.61c.39601307-1.1438006 1.35791239-1.9996637 2.54-2.26.16-.06.31-.14.46-.21.88 2.78 2.07 4.21 3.55 4.21h.28c2-.24 3.39-3.26 3.39-5.93 0-2.42-1.86-4.53-5.23-6 .02297877-.1997484.06312728-.3971453.12-.59.04982479-.0804912.08692819-.1681902.11-.26.93288294-4.8311087 3.8303341-9.05776563 8-11.67 9.77-6.09 24.62-2.61 24.76-2.55s15.24 4 15.24 20c0 5.58-1.79 9.82-5.31 12.58-5.13 4-12.94 4.12-18.85 2.84v-.28c.07-1 .12-1.7.14-3.1 0-.27 0-.71 0-1.18-.0004072-.5441738-.3054657-1.0423072-.79-1.29-.9131926-.3739895-1.9368074-.3739895-2.85 0l-.18-.1c-1.5620128-.9324401-3.3411035-1.4392741-5.16-1.47-2.92 0-4.91 1.5-6.51 2.7-1.42 1.06-2.27 1.65-3.17 1.35-1.589233-.4449852-2.8412547-1.6706089-3.32-3.25-.11045695-.5522847-.64771525-.9104569-1.2-.8s-.91045695.6477153-.8 1.2c.61346008 2.3082087 2.388059 4.1283102 4.68 4.8.3610188.1206777.7393486.1814807 1.12.18 1.44 0 2.68-.93 3.89-1.84 1.5-1.12 3-2.29 5.31-2.29 1.1912816.0080662 2.3635536.2994203 3.42.85l-1.16.78c-.2181182.1191671-.4818818.1191671-.7 0-1.0760349-.5283981-2.3723318-.2748637-3.17.62-.5076285.5701589-.7413371 1.3333636-.64 2.09v.31c-1.0998356.2619539-2.1715571.6303582-3.2 1.1l-1.07.44-1.12.44c-1.4462679.5564706-2.9342279.997843-4.45 1.32-1.26005079.2570802-2.54411422.3777754-3.83.36-.52859-.0154521-1.05599307-.058846-1.58-.13l.09-.23c.94-2.67 2.51-7.13-1-9.76-.92-.74-2-1.82-1.81-2.98z"/><path id="Shape" d="m21 19c1.4339341-.0036463 2.6648056-1.0215374 2.9375883-2.4292908.2727827-1.4077535-.4888005-2.8117258-1.8175883-3.3507092.29-1.09 1.1-2.22 1.88-2.22h5.75c-1.0938802 1.0462845-1.7239852 2.4865244-1.75 4 0 3.93 4.39 7 10 7v2.18c-1.4160897.5034893-2.241084 1.9771392-1.9300349 3.4475336.3110492 1.4703945 1.6621399 2.4837126 3.1608124 2.3706093 1.4986724-.1131033 2.6823779-1.3177198 2.7692225-2.8181429l4.61-1.38c.8823854 1.1591372 2.469962 1.5168357 3.7641845.8481121 1.2942225-.6687235 1.9209767-2.1705647 1.4860502-3.5609035s-1.8058118-2.2672773-3.2504039-2.0792434c-1.4445921.1880338-2.5453103 1.386686-2.6098308 2.8420348l-4.61 1.38c-.3492806-.4797789-.8330113-.845187-1.39-1.05v-2.32c4.62-.63 8-3.42 8-6.86 0-3.93-4.39-7-10-7-1.7822555-.01215862-3.5493765.32767233-5.2 1h-8.8c-2.08 0-3.56 2.26-3.91 4.16-1.3801624.4689542-2.2235034 1.8621216-1.9990766 3.3023989.2244268 1.4402774 1.4516651 2.5108031 2.9090766 2.5376011zm18 9c-.5522847 0-1-.4477153-1-1s.4477153-1 1-1 1 .4477153 1 1-.4477153 1-1 1zm10-5c.5522847 0 1 .4477153 1 1s-.4477153 1-1 1-1-.4477153-1-1 .4477153-1 1-1zm-14.68-3.58c.1890703-.4495893.4603811-.8599469.8-1.21.4966933-.4766405 1.105405-.8205455 1.77-1 1.0373022-.2899741 2.1477122-.1493702 3.08.39.7464144.4299485 1.3299601 1.0943469 1.66 1.89-2.3889452.7735228-4.9610548.7735228-7.35 0zm11.68-4.42c-.1475928 1.5599814-1.104764 2.9273688-2.52 3.6-.1648542-.3949957-.3727783-.7706006-.62-1.12l.76-.77c.2500859-.2554449.3448966-.624905.2487178-.9692082s-.3687353-.6111417-.715-.7-.7136319.0137633-.9637178.2692082l-.77.78c-.14-.09-.27-.21-.42-.29-.1759824-.1071191-.3598442-.2007215-.55-.28l.27-1c.1229051-.355579.0358365-.7500498-.2253258-1.0208565-.2611624-.2708068-.652218-.3721165-1.0120183-.2621809-.3598003.1099355-.6274506.4125103-.6926559.7830374l-.28 1c-.375858-.0349057-.754142-.0349057-1.13 0l-.29-1c-.0673885-.3728787-.3397413-.67564-.7034347-.7819738-.3636934-.1063339-.756247.0020273-1.01389.2798758-.257643.2778486-.336114.6774519-.2026753 1.032098l.29 1.06c-.3523854.154435-.6875604.3454847-1 .57l-.78-.77c-.2554449-.2500859-.624905-.3448966-.9692082-.2487178s-.6111417.3687353-.7.715.0137633.7136319.2692082.9637178l.77.76c-.2234885.3130974-.4144758.6481629-.57 1-1.403763-.6785893-2.3461552-2.0465781-2.48-3.6 0-2.71 3.66-5 8-5s8 2.29 8 5zm-25 0c.5522847 0 1 .4477153 1 1s-.4477153 1-1 1-1-.4477153-1-1 .4477153-1 1-1z"/><path id="Shape" d="m39 36c-.5522847 0-1 .4477153-1 1s.4477153 1 1 1c11.56 0 14.8-8.3 14.94-8.65.125043-.3358297.0614244-.7128587-.1668911-.9890639s-.5866415-.4096244-.94-.35c-.3533585.0596245-.6480659.3032342-.7731089.6390639-.06.07-2.87 7.35-13.06 7.35z"/></g></g></svg>