<?xml version="1.0" encoding="iso-8859-1"?>
<!-- Generator: Adobe Illustrator 19.0.0, SVG Export Plug-In . SVG Version: 6.00 Build 0)  -->
<svg version="1.1" id="Capa_1" xmlns="http://www.w3.org/2000/svg" xmlns:xlink="http://www.w3.org/1999/xlink" x="0px" y="0px"
	 viewBox="0 0 511.963 511.963" style="enable-background:new 0 0 511.963 511.963;" xml:space="preserve">
<g>
	<g>
		<path d="M362.77,269.794l-73.526-73.522c-1.5-1.5-4.156-1.5-5.656,0L61.645,418.2c-30.127,30.146-60.601,72.674-60.906,73.104
			c-0.82,1.141-0.965,2.641-0.398,3.93s1.781,2.187,3.176,2.367c0,0,1.598,0.195,4.777,0.195c12.727,0,48.697-3.148,107.715-32.35
			c74.553-36.881,157.579-100.807,246.761-189.996C364.332,273.888,364.332,271.356,362.77,269.794z M11.818,489.719
			c9.558-12.859,32.654-43.021,55.485-65.863l219.115-219.101l67.871,67.867C156.133,469.861,40.567,488.43,11.818,489.719z"/>
	</g>
</g>
<g>
	<g>
		<path d="M340.133,269.778c-1.562-1.586-4.094-1.602-5.656-0.055C225.219,376.958,126.064,444.369,39.761,470.101
			c-2.117,0.625-3.32,2.86-2.687,4.977c0.516,1.735,2.105,2.852,3.832,2.852c0.375,0,0.762-0.054,1.144-0.164
			c87.561-26.107,187.833-94.181,298.021-202.332C341.649,273.887,341.68,271.348,340.133,269.778z"/>
	</g>
</g>
<g>
	<g>
		<path d="M374.091,258.487c-1.561-1.562-4.093-1.562-5.655,0l-5.656,5.652c-1.562,1.562-1.562,4.093,0,5.655
			c0.781,0.781,1.805,1.172,2.828,1.172c1.023,0,2.047-0.39,2.828-1.172l5.655-5.655
			C375.653,262.581,375.653,260.049,374.091,258.487z"/>
	</g>
</g>
<g>
	<g>
		<path d="M374.091,258.487l-33.942-33.936c-1.562-1.562-4.094-1.563-5.656,0c-1.562,1.563-1.562,4.094,0,5.656l33.943,33.932
			c0.781,0.781,1.805,1.172,2.828,1.172c1.024,0,2.047-0.391,2.827-1.172C375.653,262.581,375.653,260.049,374.091,258.487z"/>
	</g>
</g>
<g>
	<g>
		<path d="M460.532,24.985c-1.562-1.562-4.093-1.562-5.655,0L306.214,173.64c-1.562,1.562-1.562,4.094,0,5.656
			c0.781,0.781,1.805,1.172,2.828,1.172c1.022,0,2.045-0.39,2.827-1.172L460.532,30.641
			C462.094,29.078,462.094,26.547,460.532,24.985z"/>
	</g>
</g>
<g>
	<g>
		<path d="M476.483,66.229c-2.172-0.347-4.203,1.149-4.57,3.301c-0.039,0.215-4.163,21.771-50.441,68.05
			c-47.483,47.478-80.363,69.273-80.683,69.488c-1.851,1.215-2.359,3.695-1.156,5.539c0.774,1.172,2.047,1.804,3.351,1.804
			c0.758,0,1.516-0.211,2.195-0.655c1.359-0.891,33.81-22.394,81.948-70.52c48.778-48.774,52.559-71.562,52.692-72.507
			C480.139,68.561,478.639,66.569,476.483,66.229z"/>
	</g>
</g>
<g>
	<g>
		<path d="M510.716,41.727c-3.438-12.8-13.515-23.486-25.092-26.588c-10.641-2.863-21.546,0.648-30.748,9.847
			c-1.562,1.562-1.562,4.094,0,5.656c1.562,1.562,4.093,1.562,5.655,0c7.196-7.195,15.14-9.878,23.015-7.777
			c8.914,2.387,16.726,10.8,19.436,20.932c1.406,5.234,2.515,15.253-5.765,23.53c-1.562,1.559-1.562,4.094,0,5.656
			c0.781,0.781,1.812,1.171,2.828,1.171c1.032,0,2.046-0.39,2.827-1.171C510.997,64.866,513.857,53.473,510.716,41.727z"/>
	</g>
</g>
<g>
	<g>
		<path d="M502.872,67.327c-3.624-3.629-9.062-5.707-14.92-5.707c-5.867,0.176-11.297,2.082-14.922,5.711
			c-1.562,1.563-1.562,4.097,0.008,5.656c1.562,1.554,4.094,1.562,5.656-0.008c2.101-2.102,5.554-3.355,9.242-3.359
			c0.008,0,0.016,0,0.016,0c3.703,0,7.163,1.258,9.265,3.363c0.781,0.781,1.812,1.171,2.828,1.171c1.032,0,2.046-0.39,2.827-1.171
			C504.434,71.42,504.434,68.889,502.872,67.327z"/>
	</g>
</g>
<g>
	<g>
		<path d="M340.149,213.239l-33.936-33.943c-1.562-1.562-4.094-1.563-5.656,0s-1.562,4.094,0,5.656l33.936,33.943
			c0.781,0.781,1.812,1.172,2.828,1.172c1.031,0,2.047-0.391,2.828-1.173C341.711,217.332,341.711,214.801,340.149,213.239z"/>
	</g>
</g>
<g>
	<g>
		<path d="M306.214,179.297c-1.562-1.562-4.094-1.562-5.656,0l-11.312,11.319c-1.562,1.562-1.562,4.097,0,5.656
			c0.781,0.781,1.812,1.172,2.828,1.172c1.031,0,2.047-0.391,2.828-1.171l11.312-11.32
			C307.776,183.39,307.776,180.856,306.214,179.297z"/>
	</g>
</g>
<g>
	<g>
		<path d="M340.149,218.895c1.562-1.562,1.562-4.093,0-5.655c-1.562-1.562-4.094-1.562-5.656,0c-4.671,4.679-4.671,12.288,0,16.967
			c0.781,0.781,1.812,1.172,2.828,1.172c1.031,0,2.047-0.391,2.828-1.172c1.562-1.562,1.562-4.094,0-5.656
			C338.594,222.993,338.594,220.454,340.149,218.895z"/>
	</g>
</g>
<g>
	<g>
		<path d="M362.796,156.648c-4.538-4.531-12.445-4.531-16.968,0c-2.274,2.269-3.524,5.285-3.516,8.496
			c0.008,3.203,1.25,6.214,3.516,8.472c2.265,2.266,5.281,3.516,8.484,3.516s6.219-1.25,8.477-3.512
			c2.273-2.262,3.515-5.273,3.523-8.476C366.319,161.933,365.069,158.918,362.796,156.648z M357.14,167.961
			c-1.516,1.508-4.133,1.512-5.664-0.004c-0.75-0.75-1.164-1.754-1.164-2.82c0-1.07,0.414-2.074,1.18-2.832
			c0.75-0.758,1.75-1.172,2.82-1.172s2.07,0.418,2.828,1.172c0.758,0.758,1.172,1.762,1.172,2.832
			C358.312,166.203,357.898,167.207,357.14,167.961z"/>
	</g>
</g>
<g>
	<g>
		<path d="M408.051,111.401c-4.531-4.527-12.437-4.535-16.975,0c-4.672,4.684-4.672,12.292,0.008,16.968
			c2.265,2.266,5.28,3.516,8.483,3.516s6.219-1.25,8.484-3.512c2.266-2.27,3.516-5.281,3.516-8.488
			C411.567,116.682,410.317,113.667,408.051,111.401z M402.387,122.713c-1.507,1.516-4.132,1.508-5.648,0
			c-1.562-1.558-1.562-4.097,0-5.655c0.75-0.754,1.758-1.172,2.828-1.172c1.062,0,2.062,0.414,2.828,1.171
			c0.75,0.758,1.172,1.761,1.172,2.828S403.145,121.956,402.387,122.713z"/>
	</g>
</g>
<g>
	<g>
		<path d="M453.299,66.143c-4.539-4.523-12.438-4.527-16.968,0.004c-4.672,4.68-4.672,12.296,0,16.972
			c2.264,2.265,5.272,3.511,8.483,3.511c3.203,0,6.219-1.242,8.493-3.511C457.978,78.435,457.978,70.822,453.299,66.143z
			 M447.65,77.463c-1.508,1.504-4.148,1.524-5.664,0.004c-1.562-1.563-1.562-4.102,0-5.664c0.758-0.754,1.766-1.168,2.828-1.168
			c1.07,0,2.078,0.414,2.828,1.168C449.205,73.362,449.205,75.904,447.65,77.463z"/>
	</g>
</g>
<g>
</g>
<g>
</g>
<g>
</g>
<g>
</g>
<g>
</g>
<g>
</g>
<g>
</g>
<g>
</g>
<g>
</g>
<g>
</g>
<g>
</g>
<g>
</g>
<g>
</g>
<g>
</g>
<g>
</g>
</svg>
