<?xml version="1.0" encoding="iso-8859-1"?>
<!-- Generator: Adobe Illustrator 19.0.0, SVG Export Plug-In . SVG Version: 6.00 Build 0)  -->
<svg version="1.1" id="Capa_1" xmlns="http://www.w3.org/2000/svg" xmlns:xlink="http://www.w3.org/1999/xlink" x="0px" y="0px"
	 viewBox="0 0 512 512" style="enable-background:new 0 0 512 512;" xml:space="preserve">
<path style="fill:#F4F8FF;" d="M360.005,113.998H20.011c-5.523,0-10-4.477-10-10V20c0-5.523,4.477-10,10-10h339.994
	c5.523,0,10,4.477,10,10v83.999C370.005,109.521,365.528,113.998,360.005,113.998z"/>
<path style="fill:#FEE891;" d="M18.011,113.877v367.994c0,11.046,8.954,20,20,20h303.995c11.046,0,20-8.954,20-20V113.877H18.011z"
	/>
<rect x="18.01" y="203.876" style="fill:#FE7C7A;" width="207.996" height="207.996"/>
<path style="fill:#FFFFFF;" d="M486.759,334.066L486.759,334.066c-20.307-20.307-53.231-20.307-73.538,0l-79.195,79.195
	c-20.307,20.307-20.307,53.231,0,73.538l0,0c20.307,20.307,53.231,20.307,73.538,0l79.195-79.195
	C507.066,387.297,507.066,354.374,486.759,334.066z"/>
<path style="fill:#ABC7FF;" d="M373.624,373.663l73.538,73.538l39.597-39.597c20.307-20.307,20.307-53.231,0-73.538
	c-20.307-20.307-53.231-20.307-73.538,0L373.624,373.663z"/>
<path d="M290.006,491.87H38.01c-5.514,0-10-4.486-10-10v-59.999h197.997c5.523,0,10-4.477,10-10V203.875c0-5.523-4.477-10-10-10
	H28.011v-69.878h323.994v202.875c0,5.523,4.477,10,10,10s10-4.477,10-10V119.96c4.847-3.653,8-9.439,8-15.962V20
	c0-11.028-8.972-20-20-20H20.011c-11.028,0-20,8.972-20,20v83.999c0,6.523,3.153,12.309,8,15.962v83.917v207.996v69.999
	c0,16.542,13.458,29.999,29.999,29.999h251.996c5.523,0,10-4.477,10-10S295.529,491.87,290.006,491.87z M216.007,213.875v187.997
	H28.011V213.875H216.007z M20.011,20h339.994l0.013,83.999c0,0-0.004,0-0.013,0h-47.999V61.999c0-5.523-4.477-10-10-10
	c-5.523,0-10,4.477-10,10v41.999H237.34V61.999c0-5.523-4.477-10-10-10s-10,4.477-10,10v41.999h-54.666V61.999
	c0-5.523-4.477-10-10-10c-5.523,0-10,4.477-10,10v41.999H88.009V61.999c0-5.523-4.477-10-10-10s-10,4.477-10,10v41.999H20.011
	C20.011,103.998,20.011,20,20.011,20z"/>
<path d="M85.436,317.873h26.574v26.574c0,5.523,4.477,10,10,10c5.523,0,10-4.477,10-10v-26.574h26.574c5.523,0,10-4.477,10-10
	s-4.477-10-10-10h-26.574V271.3c0-5.523-4.477-10-10-10c-5.523,0-10,4.477-10,10v26.574H85.436c-5.523,0-10,4.477-10,10
	S79.913,317.873,85.436,317.873z"/>
<path d="M511.989,370.836c0-16.561-6.449-32.129-18.159-43.84c-24.173-24.172-63.505-24.174-87.68,0l-79.195,79.195
	c-24.173,24.174-24.173,63.506,0,87.68c12.087,12.087,27.964,18.13,43.84,18.13s31.753-6.044,43.84-18.131l39.59-39.59
	c0.002-0.002,0.005-0.004,0.008-0.007s0.004-0.005,0.007-0.008l39.589-39.59C505.54,402.965,511.989,387.396,511.989,370.836z
	 M400.493,479.728c-7.933,7.933-18.479,12.302-29.697,12.302c-11.219,0-21.766-4.369-29.697-12.302
	c-16.376-16.375-16.376-43.02,0-59.395l32.525-32.526l59.396,59.396L400.493,479.728z M479.688,400.534l-32.525,32.525
	l-59.396-59.396l32.525-32.525c8.189-8.189,18.942-12.282,29.698-12.282c10.754,0,21.512,4.095,29.697,12.282l0,0
	c7.933,7.933,12.301,18.479,12.301,29.697S487.62,392.6,479.688,400.534z"/>
<path d="M304.006,176.302v83.332c0,5.523,4.477,10,10,10s10-4.477,10-10v-83.332c0-5.523-4.477-10-10-10
	S304.006,170.779,304.006,176.302z"/>
<path d="M321.075,304.704c1.86-1.86,2.93-4.44,2.93-7.07c0-2.63-1.07-5.21-2.93-7.07s-4.44-2.93-7.07-2.93
	c-2.63,0-5.21,1.07-7.07,2.93c-1.86,1.86-2.93,4.44-2.93,7.07c0,2.63,1.07,5.21,2.93,7.07c1.86,1.86,4.44,2.93,7.07,2.93
	C316.635,307.634,319.215,306.564,321.075,304.704z"/>
<g>
</g>
<g>
</g>
<g>
</g>
<g>
</g>
<g>
</g>
<g>
</g>
<g>
</g>
<g>
</g>
<g>
</g>
<g>
</g>
<g>
</g>
<g>
</g>
<g>
</g>
<g>
</g>
<g>
</g>
</svg>
