<?xml version="1.0" encoding="iso-8859-1"?>
<!-- Generator: Adobe Illustrator 19.0.0, SVG Export Plug-In . SVG Version: 6.00 Build 0)  -->
<svg version="1.1" id="Capa_1" xmlns="http://www.w3.org/2000/svg" xmlns:xlink="http://www.w3.org/1999/xlink" x="0px" y="0px"
	 viewBox="0 0 512 512" style="enable-background:new 0 0 512 512;" xml:space="preserve">
<g>
	<g>
		<path d="M360.005,0H20.011c-11.028,0-20,8.972-20,20v83.999c0,6.523,3.153,12.309,8,15.962v83.917v207.996v69.999
			c0,16.542,13.458,29.999,29.999,29.999h251.996c5.523,0,10-4.477,10-10c0-5.523-4.477-10.001-10-10.001H38.01
			c-5.514,0-10-4.486-10-10v-59.999h197.997c5.523,0,10-4.477,10-10V203.875c0-5.523-4.477-10-10-10H28.011v-69.878h323.994v202.875
			c0,5.523,4.477,10,10,10s10-4.477,10-10V119.96c4.847-3.653,8-9.439,8-15.962V20C380.004,8.972,371.033,0,360.005,0z
			 M216.007,213.875v187.997H28.011V213.875H216.007z M360.005,103.998h-47.999V61.999c0-5.523-4.477-10-10-10
			c-5.523,0-10,4.477-10,10v41.999H237.34V61.999c0-5.523-4.477-10-10-10s-10,4.477-10,10v41.999h-54.666V61.999
			c0-5.523-4.477-10-10-10s-10,4.477-10,10v41.999H88.009V61.999c0-5.523-4.477-10-10-10s-10,4.477-10,10v41.999H20.011
			c0,0,0-83.999,0-83.999h339.994l0.013,83.999C360.018,103.998,360.014,103.998,360.005,103.998z"/>
	</g>
</g>
<g>
	<g>
		<path d="M158.582,297.874h-26.574V271.3c0-5.523-4.477-10-10-10s-10,4.477-10,10v26.574H85.436c-5.523,0-10,4.477-10,10
			c0,5.523,4.477,10,10,10h26.574v26.574c0,5.523,4.477,10,10,10s10-4.477,10-10v-26.574h26.574c5.523,0,10-4.477,10-10
			C168.582,302.351,164.105,297.874,158.582,297.874z"/>
	</g>
</g>
<g>
	<g>
		<path d="M493.83,326.995c-24.173-24.172-63.505-24.174-87.68,0l-79.195,79.195c-24.173,24.174-24.173,63.506,0,87.68
			c12.087,12.087,27.964,18.13,43.84,18.13c15.877,0,31.753-6.044,43.84-18.131l39.59-39.59c0.002-0.002,0.005-0.004,0.008-0.007
			s0.004-0.005,0.007-0.008l39.589-39.59c11.71-11.709,18.159-27.278,18.159-43.838S505.54,338.706,493.83,326.995z
			 M400.493,479.728c-7.933,7.933-18.479,12.302-29.697,12.302c-11.219,0-21.766-4.369-29.698-12.302
			c-16.376-16.375-16.376-43.02,0-59.395l32.525-32.526l59.396,59.396L400.493,479.728z M479.688,400.534l-32.525,32.525
			l-59.396-59.396l32.525-32.525c8.189-8.189,18.942-12.282,29.698-12.282c10.754,0,21.512,4.095,29.698,12.282
			c7.933,7.933,12.301,18.479,12.301,29.698C491.988,382.054,487.62,392.6,479.688,400.534z"/>
	</g>
</g>
<g>
	<g>
		<path d="M314.006,166.302c-5.523,0-10,4.477-10,10v83.332c0,5.523,4.477,10,10,10c5.523,0,10-4.477,10-10v-83.332
			C324.005,170.779,319.528,166.302,314.006,166.302z"/>
	</g>
</g>
<g>
	<g>
		<path d="M321.075,290.564c-1.86-1.86-4.44-2.93-7.07-2.93s-5.21,1.07-7.07,2.93c-1.86,1.86-2.93,4.44-2.93,7.07
			s1.07,5.21,2.93,7.07c1.86,1.86,4.44,2.93,7.07,2.93s5.21-1.07,7.07-2.93c1.86-1.86,2.93-4.44,2.93-7.07
			S322.935,292.424,321.075,290.564z"/>
	</g>
</g>
<g>
</g>
<g>
</g>
<g>
</g>
<g>
</g>
<g>
</g>
<g>
</g>
<g>
</g>
<g>
</g>
<g>
</g>
<g>
</g>
<g>
</g>
<g>
</g>
<g>
</g>
<g>
</g>
<g>
</g>
</svg>
