<svg height="512" viewBox="0 0 64 64" width="512" xmlns="http://www.w3.org/2000/svg"><g id="Filled_outline" data-name="Filled outline"><path d="m11 51 42-18-9.168-3.929-32.832 13.929z" fill="#ffd782"/><path d="m53 33-42-18v-8l42 18z" fill="#f9bb4b"/><path d="m53 51h-42l18.667-8h23.333z" fill="#f9bb4b"/><g fill="#394d5c"><path d="m37.164 26.213 4.82 2.066 3.672-6.427-4.82-2.065z"/><path d="m26.148 21.492 4.819 2.065 3.672-6.426-4.819-2.065z"/><path d="m15.475 16.918 4.82 2.066 3.672-6.427-4.819-2.065z"/><path d="m38.481 31.341 3.617 6.331 4.82-2.065-3.608-6.314z"/><path d="m30.164 42.787 4.82-2.066-3.632-6.355-4.829 2.049z"/><path d="m19.492 47.361 4.819-2.066-3.652-6.393-4.83 2.049z"/><path d="m46 51h-6l3-8h6z"/><path d="m33 51h-6l3-8h6z"/></g><path d="m49.5 25.307h2v5.385h-2z" fill="#fcf05a" transform="matrix(.371 -.928 .928 .371 5.747 64.489)"/><path d="m12 9.764h2v4.472h-2z" fill="#fcf05a" transform="matrix(.447 -.894 .894 .447 -3.547 18.261)"/><path d="m10.919 45.5h3.162v2h-3.162z" fill="#fcf05a" transform="matrix(.949 -.316 .316 .949 -14.069 6.343)"/><path d="m3 3h10v4h-10z" fill="#7d8d9c"/><path d="m5 7h6v54h-6z" fill="#aabece"/><path d="m5 28h3v2h-3z" fill="#cfdfe8"/><path d="m8 56h3v2h-3z" fill="#cfdfe8"/><path d="m5 52h3v2h-3z" fill="#cfdfe8"/><path d="m8 35h3v2h-3z" fill="#cfdfe8"/><path d="m5 11h3v2h-3z" fill="#cfdfe8"/><path d="m5 17h3v2h-3z" fill="#cfdfe8"/><path d="m8 22h3v2h-3z" fill="#cfdfe8"/><path d="m51 3h10v4h-10z" fill="#7d8d9c"/><path d="m53 7h6v54h-6z" fill="#aabece"/><path d="m53 11h3v2h-3z" fill="#cfdfe8"/><path d="m56 17h3v2h-3z" fill="#cfdfe8"/><path d="m56 21h2v2h-2z" fill="#cfdfe8"/><path d="m53 37h3v2h-3z" fill="#cfdfe8"/><path d="m56 49h3v2h-3z" fill="#cfdfe8"/><path d="m56 53h3v2h-3z" fill="#cfdfe8"/><path d="m61 2h-10a1 1 0 0 0 -1 1v4a1 1 0 0 0 1 1h1v15.484l-38.037-16.302a.918.918 0 0 0 .037-.182v-4a1 1 0 0 0 -1-1h-10a1 1 0 0 0 -1 1v4a1 1 0 0 0 1 1h1v53a1 1 0 0 0 1 1h6a1 1 0 0 0 1-1v-9h40v9a1 1 0 0 0 1 1h6a1 1 0 0 0 1-1v-53h1a1 1 0 0 0 1-1v-4a1 1 0 0 0 -1-1zm-26.462 40 17.462-7.484v7.484zm-.095 8 2.25-6h4.864l-2.25 6zm-14.792-38.2 2.891 1.24-2.673 4.678-2.969-1.278 2.673-4.678zm8.749 3.743-2.673 4.678-4-1.715 2.674-4.678zm11.017 4.721-2.674 4.679-4.351-1.863 2.673-4.68zm1.871 8.8-29.288 12.426v-24.974zm-13.716-8.05 2.673-4.678 2.97 1.273-2.674 4.678zm14.952 15.386-2.617-4.579 2.976-1.262 2.61 4.569zm-11.934 5.116-2.641-4.616 2.975-1.262 2.635 4.61zm-4.5-3.834 2.644 4.627-4 1.716-2.652-4.641zm-14.09 10.039 2.316-.772-.632-1.9-1.684.563v-1.95l3.4-1.443 2.665 4.664-6.065 2.6zm5.256-6.289 2.975-1.262 2.656 4.647-2.969 1.273zm18.153-1.981-2.631-4.6 5.275-2.238 2.621 4.585zm11.935-5.115-2.022-3.536 5.139 2.2zm-8.755-8.6 2.673-4.677 2.969 1.272-2.673 4.678zm-23.539-10.088-3.05-1.307v-1.723l2.553 1.282.894-1.79-3.447-1.728v-1.865l5.723 2.452zm36.95 11.875-3.629-1.452-.742 1.858 4.371 1.748v1.806l-8.592-3.683 2.674-4.678 5.918 2.537zm-48-23.523h8v2h-8zm2 56v-6h2v-2h-2v-22h2v-2h-2v-9h2v-2h-2v-4h2v-2h-2v-3h4v14h-2v2h2v11h-2v2h2v19h-2v2h2v2zm22.305-15.328-2 5.328h-10.433zm.138 5.328 2.25-6h3.864l-2.25 6zm13 0 2.25-6h3.864l-2.25 6zm6 0 2.25-6h2.307v6zm10.557-33h-2v2h2v2h-2v2h2v26h-2v2h2v2h-2v2h2v5h-4v-21h2v-2h-2v-24h2v-2h-2v-3h4zm2-11h-8v-2h8z"/></g></svg>