<?xml version="1.0"?>
<svg xmlns="http://www.w3.org/2000/svg" viewBox="0 0 64 64" width="512" height="512"><g id="outline"><path d="M61,2H51a1,1,0,0,0-1,1V7a1,1,0,0,0,1,1h1V23.484L13.963,7.182A.918.918,0,0,0,14,7V3a1,1,0,0,0-1-1H3A1,1,0,0,0,2,3V7A1,1,0,0,0,3,8H4V61a1,1,0,0,0,1,1h6a1,1,0,0,0,1-1V52H52v9a1,1,0,0,0,1,1h6a1,1,0,0,0,1-1V8h1a1,1,0,0,0,1-1V3A1,1,0,0,0,61,2ZM34.538,42,52,34.516V42Zm-.095,8,2.25-6h4.864l-2.25,6ZM19.651,11.8l2.891,1.24-2.673,4.678L16.9,16.44l2.673-4.678ZM28.4,15.543l-2.673,4.678-4-1.715,2.674-4.678Zm11.017,4.721-2.674,4.679L32.392,23.08,35.065,18.4Zm1.871,8.8L12,41.49V16.516ZM27.572,21.014l2.673-4.678,2.97,1.273-2.674,4.678ZM42.524,36.4l-2.617-4.579,2.976-1.262,2.61,4.569ZM30.59,41.516,27.949,36.9l2.975-1.262,2.635,4.61Zm-4.5-3.834,2.644,4.627-4,1.716-2.652-4.641ZM12,47.721l2.316-.772-.632-1.9L12,45.612v-1.95l3.4-1.443,2.665,4.664L12,49.483Zm5.256-6.289,2.975-1.262,2.656,4.647L19.918,46.09Zm18.153-1.981-2.631-4.6,5.275-2.238,2.621,4.585Zm11.935-5.115L45.322,30.8,50.461,33Zm-8.755-8.6,2.673-4.677,2.969,1.272-2.673,4.678ZM15.05,15.648,12,14.341V12.618L14.553,13.9l.894-1.79L12,10.382V8.517l5.723,2.452ZM52,27.523l-3.629-1.452-.742,1.858L52,29.677v1.806L43.408,27.8l2.674-4.678L52,25.659ZM4,4h8V6H4ZM6,60V54H8V52H6V30H8V28H6V19H8V17H6V13H8V11H6V8h4V22H8v2h2V35H8v2h2V56H8v2h2v2ZM28.305,44.672l-2,5.328H15.872ZM28.443,50l2.25-6h3.864l-2.25,6Zm13,0,2.25-6h3.864l-2.25,6Zm6,0,2.25-6H52v6ZM58,17H56v2h2v2H56v2h2V49H56v2h2v2H56v2h2v5H54V39h2V37H54V13h2V11H54V8h4ZM60,6H52V4h8Z"/></g></svg>
