<?xml version="1.0" encoding="iso-8859-1"?>
<!-- Generator: Adobe Illustrator 19.0.0, SVG Export Plug-In . SVG Version: 6.00 Build 0)  -->
<svg version="1.1" id="Capa_1" xmlns="http://www.w3.org/2000/svg" xmlns:xlink="http://www.w3.org/1999/xlink" x="0px" y="0px"
	 viewBox="0 0 448 448" style="enable-background:new 0 0 448 448;" xml:space="preserve">
<path style="fill:#58B56A;" d="M151.944,163.44C157.016,153.288,160,141.112,160,128c0-18.88-6.248-35.672-16-47.392
	c0-90.504,0,17.84,0-80.608H80c0,98.864,0-9.704,0,80.608C70.248,92.32,64,109.12,64,128c0,13.112,2.984,25.288,8.056,35.44
	C48.168,177.272,32,202.92,32,232.512V432c0,8.832,7.16,16,16,16h128c8.84,0,16-7.168,16-16V232.512
	C192,202.92,175.832,177.272,151.944,163.44z"/>
<g>
	<path style="fill:#010101;" d="M151.944,163.44C157.016,153.288,160,141.112,160,128c0-18.88-6.248-35.672-16-47.392
		c0-90.504,0,17.84,0-80.608H80c0,98.864,0-9.704,0,80.608C70.248,92.32,64,109.12,64,128c0,13.112,2.984,25.288,8.056,35.44
		C48.168,177.272,32,202.92,32,232.512V432c0,8.832,7.16,16,16,16h128c8.84,0,16-7.168,16-16V232.512
		C192,202.92,175.832,177.272,151.944,163.44z M96,16h32v16H96V16z M176,432H48V232.512c0-39,29.096-53.496,45.104-62.76
		C85.36,154.272,80,145.84,80,128c0-18.672,6.08-29.68,16-41.6c0-14.768,0-23.864,0-38.4h32c0,14.528,0,23.624,0,38.4
		c9.92,11.92,16,22.928,16,41.6c0,17.84-5.36,26.272-13.104,41.744c16,9.264,45.104,23.752,45.104,62.76V432z"/>
	<path style="fill:#010101;" d="M32,400h160V256H32V400z M48,272h128v112H48V272z"/>
	<path style="fill:#010101;" d="M224,256v192h192V256H224z M400,432H240v-64h41.528l27.424,27.424
		C312.008,398.472,316.008,400,320,400c4,0,8-1.528,11.048-4.576L358.472,368H400V432z M351.848,352h-63.696l31.832-31.848
		l32.128,31.584L351.848,352z M336.112,368l-15.84,16.112L303.888,368H336.112z M400,352h-32c0-4-1.528-8-4.576-11.048
		l-32.392-32.376c-3.056-3.048-7.056-4.576-11.048-4.576c-4,0-8,1.528-11.048,4.576l-32.36,32.376C273.528,344.008,272,348,272,352
		h-32v-80h160V352z"/>
</g>
<rect x="48" y="272" style="fill:#FFFFFF;" width="128" height="112"/>
<rect x="96" y="16" style="fill:#AA7135;" width="32" height="16"/>
<path style="fill:#643B20;" d="M400,432H240v-64h41.528l27.424,27.424C312.008,398.472,316.008,400,320,400
	c4,0,8-1.528,11.048-4.576L358.472,368H400V432z"/>
<path style="fill:#CDDBED;" d="M400,352h-32c0-4-1.528-8-4.576-11.048l-32.392-32.376c-3.056-3.048-7.056-4.576-11.048-4.576
	c-4,0-8,1.528-11.048,4.576l-32.36,32.376C273.528,344.008,272,348,272,352h-32v-80h160V352z"/>
<g>
	<rect x="80" y="304" style="fill:#010101;" width="64" height="16"/>
	<rect x="80" y="336" style="fill:#010101;" width="64" height="16"/>
</g>
<g>
</g>
<g>
</g>
<g>
</g>
<g>
</g>
<g>
</g>
<g>
</g>
<g>
</g>
<g>
</g>
<g>
</g>
<g>
</g>
<g>
</g>
<g>
</g>
<g>
</g>
<g>
</g>
<g>
</g>
</svg>
