<svg height="512pt" viewBox="-66 0 511 512" width="512pt" xmlns="http://www.w3.org/2000/svg"><g fill-rule="evenodd"><path d="m140.496094 30v100h30.003906c11 0 20 8.996094 20 20 0 11-9 20-20 20h-30.003906v292h100v-52.003906h-30c-11 0-20-9-20-20s9-20 20-20h30v-339.996094c0-11-9-20-20-20h-60c-11 0-20 9-20 20zm0 0" fill="#c58965"/><path d="m240.496094 50v40h69.996094c11 0 20-9 20-20s-9-20-20-20zm0 0" fill="#d29976"/><path d="m170.5 130h-100c-11 0-20 8.996094-20 20 0 11 9 20 20 20h100c11 0 20-9 20-20s-9-20-20-20zm0 0" fill="#d29976"/><path d="m140.496094 289.996094h-109.996094c-11 0-20 9-20 20s9 20 20 20h109.996094zm0 0" fill="#d29976"/><path d="m240.496094 209.996094v40h110c11 0 20-8.996094 20-20 0-11-9-20-20-20zm0 0" fill="#d29976"/><path d="m310.492188 369.996094h-99.996094c-11 0-20 9-20 20s9 20 20 20h99.996094c11 0 20-9 20-20s-9-20-20-20zm0 0" fill="#d29976"/><path d="m260.496094 462h-140c-11 0-20 9-20 20v20h180v-20c0-11-9-20-20-20zm0 0" fill="#d29976"/></g><path d="m350.496094 200h-14.996094c-5.523438 0-10 4.476562-10 10 0 5.519531 4.476562 10 10 10h14.996094c5.511718 0 10 4.484375 10 10 0 5.511719-4.488282 10-10 10h-100v-20h5.003906c5.523438 0 10-4.480469 10-10 0-5.523438-4.476562-10-10-10h-5.003906v-100h59.996094c16.542968 0 30-13.457031 30-30s-13.457032-30-30-30h-59.996094v-10c0-16.542969-13.457032-30-30-30h-60c-16.539063 0-30 13.457031-30 30v90h-59.996094c-16.542969 0-30 13.457031-30 30 0 16.539062 13.457031 30 30 30h59.996094v99.996094h-5c-5.523438 0-10 4.476562-10 10 0 5.523437 4.476562 10 10 10h5v20h-99.996094c-5.515625 0-10-4.484375-10-10 0-5.511719 4.484375-10 10-10h14.996094c5.519531 0 10-4.476563 10-10 0-5.523438-4.480469-10-10-10h-14.996094c-16.542969 0-30 13.457031-30 30 0 16.542968 13.457031 30 30 30h99.996094v112.003906h-10c-16.539063 0-30 13.457031-30 30v20c0 5.523438 4.480468 10 10 10h180c5.523437 0 10-4.476562 10-10v-20c0-16.542969-13.457032-30-30-30h-10v-32.003906h59.996094c16.542968 0 30-13.457032 30-30 0-16.542969-13.457032-30-30-30h-59.996094v-100h100c16.542968 0 30-13.457032 30-30 0-16.539063-13.457032-29.996094-30-29.996094zm-40.003906-140c5.515624 0 10 4.484375 10 10s-4.484376 10-10 10h-59.996094v-20zm-249.992188 90c0-5.515625 4.488281-10 10-10h100c5.511719 0 10 4.484375 10 10 0 5.511719-4.488281 10-10 10h-100c-5.511719 0-10-4.488281-10-10zm209.996094 332v10h-160v-10c0-5.515625 4.488281-10 10-10h140c5.515625 0 10 4.484375 10 10zm49.996094-92.003906c0 5.511718-4.484376 10-10 10h-99.996094c-5.515625 0-10-4.488282-10-10 0-5.515625 4.484375-10 10-10h99.996094c5.515624 0 10 4.484375 10 10zm-109.996094-30c-16.542969 0-30 13.457031-30 30 0 16.542968 13.457031 30 30 30h20v32.003906h-80v-272h20.003906c16.542969 0 30-13.460938 30-30 0-16.542969-13.457031-30-30-30h-20.003906v-90c0-5.515625 4.488281-10 10-10h60c5.515625 0 10 4.484375 10 10v329.996094zm0 0"/><path d="m95.5 289.996094c0-5.523438-4.480469-10-10-10h-.007812c-5.523438 0-9.996094 4.476562-9.996094 10 0 5.523437 4.480468 10 10.003906 10s10-4.476563 10-10zm0 0"/><path d="m295.496094 200c-5.523438 0-9.996094 4.476562-9.996094 10 0 5.519531 4.480469 10 10.003906 10 5.523438 0 10-4.480469 10-10 0-5.523438-4.476562-10-10-10zm0 0"/></svg>