<svg height="480pt" viewBox="0 0 480 480" width="480pt" xmlns="http://www.w3.org/2000/svg"><path d="m288 464h32c4.417969 0 8-3.582031 8-8v-64c0-4.417969-3.582031-8-8-8h-30.113281l-41.886719-20.945312v-46.109376l4.425781 2.214844c2.480469 1.238282 5.425781 1.105469 7.78125-.351562 2.359375-1.460938 3.792969-4.035156 3.792969-6.808594v-128c0-4.417969-3.582031-8-8-8h-160c-22.082031.027344-39.972656 17.917969-40 40v32c-.015625 2.78125 1.414062 5.367188 3.773438 6.835938 2.363281 1.46875 5.316406 1.605468 7.800781.363281l32-16c2.726562-1.359375 4.441406-4.152344 4.425781-7.199219v-8h48v88c0 2.460938 1.136719 4.789062 3.074219 6.304688 1.941406 1.515624 4.472656 2.050781 6.863281 1.457031l14.0625-3.515625-37.6875 38.152344c-1.476562 1.492187-2.304688 3.503906-2.3125 5.601562v72h-8c-4.417969 0-8 3.582031-8 8v32c0 4.417969 3.582031 8 8 8h64c4.417969 0 8-3.582031 8-8v-32c0-4.417969-3.582031-8-8-8h-8v-52.6875l16-16v20.6875c-.015625 3.046875 1.699219 5.839844 4.425781 7.199219l75.574219 37.746093v27.054688c0 4.417969 3.582031 8 8 8zm24-16h-16v-48h16zm-216-240c-4.417969 0-8 3.582031-8 8v11.054688l-16 8v-19.054688c0-13.253906 10.746094-24 24-24h96c4.417969 0 8 3.582031 8 8s-3.582031 8-8 8zm72 16h24c13.253906 0 24-10.746094 24-24-.027344-2.730469-.523438-5.4375-1.472656-8h33.472656v42.457031l-14.28125 5.351563-1.878906-9.410156-15.679688 3.136718 2.398438 11.9375-20.628906 7.734375-6.480469-16.207031-14.863281 5.9375 16 40 14.863281-5.9375-3.578125-8.929688 17.863281-6.703124 2.402344 12.167968 15.679687-3.136718-2.945312-14.71875 11.128906-4.136719v47.511719l-4.425781-2.214844-16-8c-1.402344-.660156-2.972657-.894532-4.511719-.671875-.34375.039062-2.925781.558593-2.925781.558593l-20.183594 5.042969h-.097656l-31.855469 8zm16 240h-48v-16h48zm-13.65625-93.65625c-1.5 1.5-2.34375 3.535156-2.34375 5.65625v56h-16v-68.710938l48-48.578124v25.976562zm45.65625 8.710938v-72.796876l7.078125-1.785156 8.921875 4.472656v59.054688c-.015625 3.046875 1.699219 5.839844 4.425781 7.199219l43.574219 21.746093v14.109376zm0 0"/><path d="m224 160h32c4.417969 0 8-3.582031 8-8v-112c-.027344-22.082031-17.917969-39.9726562-40-40h-32c-22.082031.0273438-39.972656 17.917969-40 40v104h16v-16h16v16h16v-16h8c4.417969 0 8 3.582031 8 8v16c0 4.417969 3.582031 8 8 8zm23.945312-120.519531c-14.210937-.390625-26.566406-9.859375-30.632812-23.480469h6.6875c13.03125.027344 23.660156 10.449219 23.945312 23.480469zm-39.945312 72.519531h-40v-72c0-13.253906 10.746094-24 24-24h8.800781c.757813 3.933594 1.992188 7.761719 3.679688 11.398438l-15.039063 5.015624 5.054688 15.203126 19.558594-6.519532c9.242187 8.703125 21.269531 13.851563 33.945312 14.535156v88.367188h-16v-8c0-13.253906-10.746094-24-24-24zm0 0"/><path d="m210.34375 58.34375-10.34375 10.34375-10.34375-10.34375-11.3125 11.3125 10.34375 10.34375-10.34375 10.34375 11.3125 11.3125 10.34375-10.34375 10.34375 10.34375 11.3125-11.3125-10.34375-10.34375 10.34375-10.34375zm0 0"/><path d="m464 392c-.042969-28.5625-21.550781-52.53125-49.945312-55.65625l-12.726563-42.398438 24.609375-6.152343-3.875-15.519531-25.335938 6.335937-5.0625-16.875-15.328124 4.59375 4.847656 16.167969-23.121094 5.777344 3.875 15.519531 23.847656-5.96875 11.765625 39.199219c-26.398437 5.039062-45.507812 28.101562-45.550781 54.976562v72h-16v16h144v-16h-16zm-96 72v-72c0-22.089844 17.910156-40 40-40s40 17.910156 40 40v72zm0 0"/><path d="m104 480v-16h-24v-72h32v-48h-32v-32h-48v32h-32v48h32v72h-32v16zm-88-104v-16h32v-32h16v32h32v16h-32v88h-16v-88zm0 0"/><path d="m392 376h32v16h-32zm0 0"/><path d="m384 408h16v16h-16zm0 0"/><path d="m416 408h16v16h-16zm0 0"/><path d="m399.199219 81.601562c-10-1.140624-19.054688-6.4375-24.953125-14.59375-8.554688-11.953124-21.945313-19.53125-36.597656-20.710937-25.503907-1.464844-46.402344 19.199219-47.304688 20.054687l11.296875 11.328126c.175781-.167969 16.960937-16.703126 35.199219-15.398438 10.078125.980469 19.199218 6.375 24.921875 14.726562 8.570312 11.523438 21.558593 18.953126 35.839843 20.503907 1.777344.1875 3.5625.277343 5.351563.273437 18.351563-1.203125 35.882813-8.058594 50.183594-19.625l-10.257813-12.304687c-.214844.183593-21.917968 17.855469-43.679687 15.746093zm0 0"/><path d="m356.425781 205.160156c11.480469 5.6875 24.136719 8.605469 36.949219 8.527344 11.578125.046875 23.054688-2.109375 33.824219-6.359375l-6.398438-14.65625c-18.539062 7.136719-39.179687 6.476563-57.226562-1.832031-22.027344-10.867188-48.5625-6.109375-65.445313 11.726562l11.71875 10.890625c12.089844-12.558593 30.890625-15.910156 46.578125-8.296875zm0 0"/><path d="m457.3125 128.113281c-2.039062-.351562-50.679688-8.191406-92.28125 8.453125-21.25 8.40625-45.277344 5.796875-64.230469-6.964844l-9.601562 12.796876c14.320312 9.789062 31.246093 15.0625 48.59375 15.136718 10.695312-.015625 21.285156-2.089844 31.199219-6.101562 37.367187-14.9375 83.265624-7.617188 83.71875-7.546875zm0 0"/><path d="m320 88h16v16h-16zm0 0"/><path d="m288 232h16v16h-16zm0 0"/><path d="m416 160h16v16h-16zm0 0"/></svg>